<svg width="19" height="17" viewBox="0 0 19 17" fill="none" xmlns="http://www.w3.org/2000/svg">
<path d="M16.9811 10.1721C16.8984 10.5649 16.6607 10.7612 16.2679 10.7612H7.18323L7.36926 11.7534H15.7098C15.9372 11.7534 16.1233 11.8464 16.2679 12.0325C16.4126 12.2185 16.4643 12.4252 16.423 12.6526L16.2369 13.4277C16.8984 13.7378 17.2291 14.2546 17.2291 14.978C17.2291 15.4535 17.0534 15.8565 16.702 16.1873C16.3713 16.5387 15.9682 16.7144 15.4928 16.7144C15.0174 16.7144 14.604 16.5387 14.2526 16.1873C13.9218 15.8565 13.7565 15.4535 13.7565 14.978C13.7565 14.4819 13.9322 14.0685 14.2836 13.7378H7.77234C8.12374 14.0685 8.29944 14.4819 8.29944 14.978C8.29944 15.4535 8.12374 15.8565 7.77234 16.1873C7.44161 16.5387 7.03853 16.7144 6.56311 16.7144C6.08769 16.7144 5.67428 16.5387 5.32288 16.1873C4.99215 15.8565 4.82678 15.4535 4.82678 14.978C4.82678 14.3166 5.11617 13.8101 5.69495 13.4587L3.52454 2.82373H1.35413C1.14742 2.82373 0.97172 2.75138 0.827026 2.60669C0.682332 2.462 0.609985 2.2863 0.609985 2.07959V1.5835C0.609985 1.37679 0.682332 1.20109 0.827026 1.0564C0.97172 0.911702 1.14742 0.839355 1.35413 0.839355H4.54773C4.71309 0.839355 4.85779 0.901367 4.98181 1.02539C5.12651 1.12874 5.21952 1.2631 5.26086 1.42847L5.53992 2.82373H17.7252C17.9733 2.82373 18.1696 2.91675 18.3143 3.10278C18.459 3.28882 18.5004 3.49552 18.4384 3.7229L16.9811 10.1721Z" fill="#4D5756"/>
</svg>
