<svg width="14" height="15" viewBox="0 0 14 15" fill="none" xmlns="http://www.w3.org/2000/svg">
<path d="M2.23755 2.69482C3.56828 1.3641 5.17244 0.69873 7.05005 0.69873C8.92765 0.69873 10.5227 1.3641 11.8352 2.69482C13.1659 4.00732 13.8313 5.60238 13.8313 7.47998C13.8313 9.35758 13.1659 10.9618 11.8352 12.2925C10.5227 13.605 8.92765 14.2612 7.05005 14.2612C5.17244 14.2612 3.56828 13.605 2.23755 12.2925C0.925049 10.9618 0.268799 9.35758 0.268799 7.47998C0.268799 5.60238 0.925049 4.00732 2.23755 2.69482ZM8.60864 10.269C8.79093 10.3966 8.94588 10.3784 9.07349 10.2144L9.83911 9.14795C9.96672 8.96566 9.94849 8.81071 9.78442 8.68311L8.03442 7.42529V3.65186C8.03442 3.43311 7.92505 3.32373 7.7063 3.32373H6.3938C6.17505 3.32373 6.06567 3.43311 6.06567 3.65186V8.24561C6.06567 8.35498 6.11125 8.44613 6.20239 8.51904L8.60864 10.269Z" fill="black"/>
</svg>
