<svg width="11" height="15" viewBox="0 0 11 15" fill="none" xmlns="http://www.w3.org/2000/svg">
<path d="M8.375 7.47998V9.22998H3.125V7.47998H8.375ZM10.8086 3.35107C10.9362 3.47868 11 3.63363 11 3.81592V3.97998H7.5V0.47998H7.66406C7.84635 0.47998 8.0013 0.543783 8.12891 0.671387L10.8086 3.35107ZM6.625 4.19873C6.625 4.38102 6.6888 4.53597 6.81641 4.66357C6.94401 4.79118 7.09896 4.85498 7.28125 4.85498H11V13.8237C11 14.006 10.9362 14.161 10.8086 14.2886C10.681 14.4162 10.526 14.48 10.3438 14.48H1.15625C0.973958 14.48 0.81901 14.4162 0.691406 14.2886C0.563802 14.161 0.5 14.006 0.5 13.8237V1.13623C0.5 0.953939 0.563802 0.798991 0.691406 0.671387C0.81901 0.543783 0.973958 0.47998 1.15625 0.47998H6.625V4.19873ZM2.25 2.44873V2.88623C2.25 3.03206 2.32292 3.10498 2.46875 3.10498H4.65625C4.80208 3.10498 4.875 3.03206 4.875 2.88623V2.44873C4.875 2.3029 4.80208 2.22998 4.65625 2.22998H2.46875C2.32292 2.22998 2.25 2.3029 2.25 2.44873ZM2.25 4.19873V4.63623C2.25 4.78206 2.32292 4.85498 2.46875 4.85498H4.65625C4.80208 4.85498 4.875 4.78206 4.875 4.63623V4.19873C4.875 4.0529 4.80208 3.97998 4.65625 3.97998H2.46875C2.32292 3.97998 2.25 4.0529 2.25 4.19873ZM9.25 12.5112V12.0737C9.25 11.9279 9.17708 11.855 9.03125 11.855H6.84375C6.69792 11.855 6.625 11.9279 6.625 12.0737V12.5112C6.625 12.6571 6.69792 12.73 6.84375 12.73H9.03125C9.17708 12.73 9.25 12.6571 9.25 12.5112ZM9.25 7.04248C9.25 6.91488 9.20443 6.81462 9.11328 6.7417C9.04036 6.65055 8.9401 6.60498 8.8125 6.60498H2.6875C2.5599 6.60498 2.45052 6.65055 2.35938 6.7417C2.28646 6.81462 2.25 6.91488 2.25 7.04248V9.66748C2.25 9.79508 2.28646 9.90446 2.35938 9.99561C2.45052 10.0685 2.5599 10.105 2.6875 10.105H8.8125C8.9401 10.105 9.04036 10.0685 9.11328 9.99561C9.20443 9.90446 9.25 9.79508 9.25 9.66748V7.04248Z" fill="black"/>
</svg>
