<svg width="14" height="15" viewBox="0 0 14 15" fill="none" xmlns="http://www.w3.org/2000/svg">
<path d="M9.37598 6.46826C8.7015 7.14274 7.88118 7.47998 6.91504 7.47998C5.94889 7.47998 5.11947 7.14274 4.42676 6.46826C3.75228 5.77555 3.41504 4.94613 3.41504 3.97998C3.41504 3.01383 3.75228 2.19352 4.42676 1.51904C5.11947 0.826335 5.94889 0.47998 6.91504 0.47998C7.88118 0.47998 8.7015 0.826335 9.37598 1.51904C10.0687 2.19352 10.415 3.01383 10.415 3.97998C10.415 4.94613 10.0687 5.77555 9.37598 6.46826ZM9.37598 8.35498C10.3786 8.35498 11.2354 8.71956 11.9463 9.44873C12.6755 10.1597 13.04 11.0164 13.04 12.019V13.1675C13.04 13.5321 12.9124 13.842 12.6572 14.0972C12.402 14.3524 12.0921 14.48 11.7275 14.48H2.10254C1.73796 14.48 1.42806 14.3524 1.17285 14.0972C0.917643 13.842 0.790039 13.5321 0.790039 13.1675V12.019C0.790039 11.0164 1.14551 10.1597 1.85645 9.44873C2.58561 8.71956 3.4515 8.35498 4.4541 8.35498H4.91895C5.55697 8.64665 6.22233 8.79248 6.91504 8.79248C7.60775 8.79248 8.27311 8.64665 8.91113 8.35498H9.37598Z" fill="black"/>
</svg>
