<svg width="79" height="15" viewBox="0 0 79 15" fill="none" xmlns="http://www.w3.org/2000/svg">
<path d="M7.58203 0.972168C7.74609 0.644043 8.01042 0.47998 8.375 0.47998C8.73958 0.47998 9.00391 0.644043 9.16797 0.972168L10.9453 4.58154L14.9375 5.18311C15.3021 5.21956 15.5391 5.41097 15.6484 5.75732C15.7578 6.10368 15.6849 6.40446 15.4297 6.65967L12.5312 9.47607L13.2148 13.4683C13.2695 13.8146 13.151 14.0881 12.8594 14.2886C12.5677 14.5073 12.2669 14.5347 11.957 14.3706L8.375 12.5112L4.79297 14.3706C4.48307 14.5529 4.18229 14.5347 3.89062 14.3159C3.59896 14.0972 3.48047 13.8146 3.53516 13.4683L4.21875 9.47607L1.32031 6.65967C1.0651 6.40446 0.992188 6.10368 1.10156 5.75732C1.21094 5.41097 1.44792 5.21956 1.8125 5.18311L5.80469 4.58154L7.58203 0.972168ZM23.332 0.972168C23.4961 0.644043 23.7604 0.47998 24.125 0.47998C24.4896 0.47998 24.7539 0.644043 24.918 0.972168L26.6953 4.58154L30.6875 5.18311C31.0521 5.21956 31.2891 5.41097 31.3984 5.75732C31.5078 6.10368 31.4349 6.40446 31.1797 6.65967L28.2812 9.47607L28.9648 13.4683C29.0195 13.8146 28.901 14.0881 28.6094 14.2886C28.3177 14.5073 28.0169 14.5347 27.707 14.3706L24.125 12.5112L20.543 14.3706C20.2331 14.5529 19.9323 14.5347 19.6406 14.3159C19.349 14.0972 19.2305 13.8146 19.2852 13.4683L19.9688 9.47607L17.0703 6.65967C16.8151 6.40446 16.7422 6.10368 16.8516 5.75732C16.9609 5.41097 17.1979 5.21956 17.5625 5.18311L21.5547 4.58154L23.332 0.972168ZM39.082 0.972168C39.2461 0.644043 39.5104 0.47998 39.875 0.47998C40.2396 0.47998 40.5039 0.644043 40.668 0.972168L42.4453 4.58154L46.4375 5.18311C46.8021 5.21956 47.0391 5.41097 47.1484 5.75732C47.2578 6.10368 47.1849 6.40446 46.9297 6.65967L44.0312 9.47607L44.7148 13.4683C44.7695 13.8146 44.651 14.0881 44.3594 14.2886C44.0677 14.5073 43.7669 14.5347 43.457 14.3706L39.875 12.5112L36.293 14.3706C35.9831 14.5529 35.6823 14.5347 35.3906 14.3159C35.099 14.0972 34.9805 13.8146 35.0352 13.4683L35.7188 9.47607L32.8203 6.65967C32.5651 6.40446 32.4922 6.10368 32.6016 5.75732C32.7109 5.41097 32.9479 5.21956 33.3125 5.18311L37.3047 4.58154L39.082 0.972168ZM54.832 0.972168C54.9961 0.644043 55.2604 0.47998 55.625 0.47998C55.9896 0.47998 56.2539 0.644043 56.418 0.972168L58.1953 4.58154L62.1875 5.18311C62.5521 5.21956 62.7891 5.41097 62.8984 5.75732C63.0078 6.10368 62.9349 6.40446 62.6797 6.65967L59.7812 9.47607L60.4648 13.4683C60.5195 13.8146 60.401 14.0881 60.1094 14.2886C59.8177 14.5073 59.5169 14.5347 59.207 14.3706L55.625 12.5112L52.043 14.3706C51.7331 14.5529 51.4323 14.5347 51.1406 14.3159C50.849 14.0972 50.7305 13.8146 50.7852 13.4683L51.4688 9.47607L48.5703 6.65967C48.3151 6.40446 48.2422 6.10368 48.3516 5.75732C48.4609 5.41097 48.6979 5.21956 49.0625 5.18311L53.0547 4.58154L54.832 0.972168ZM70.582 0.972168C70.7461 0.644043 71.0104 0.47998 71.375 0.47998C71.7396 0.47998 72.0039 0.644043 72.168 0.972168L73.9453 4.58154L77.9375 5.18311C78.3021 5.21956 78.5391 5.41097 78.6484 5.75732C78.7578 6.10368 78.6849 6.40446 78.4297 6.65967L75.5312 9.47607L76.2148 13.4683C76.2695 13.8146 76.151 14.0881 75.8594 14.2886C75.5677 14.5073 75.2669 14.5347 74.957 14.3706L71.375 12.5112L67.793 14.3706C67.4831 14.5529 67.1823 14.5347 66.8906 14.3159C66.599 14.0972 66.4805 13.8146 66.5352 13.4683L67.2188 9.47607L64.3203 6.65967C64.0651 6.40446 63.9922 6.10368 64.1016 5.75732C64.2109 5.41097 64.4479 5.21956 64.8125 5.18311L68.8047 4.58154L70.582 0.972168Z" fill="#FFD25D"/>
</svg>
