<svg width="1921" height="195" viewBox="0 0 1921 195" fill="none" xmlns="http://www.w3.org/2000/svg">
<mask id="path-1-inside-1_2_1279" fill="white">
<path d="M0.5 0.110352H1920.5V194.11H0.5V0.110352Z"/>
</mask>
<path d="M1920.5 193.11H0.5V195.11H1920.5V193.11Z" fill="white" fill-opacity="0.3" mask="url(#path-1-inside-1_2_1279)"/>
<rect x="300.5" y="61.6104" width="70" height="70" rx="35" fill="white" fill-opacity="0.05"/>
<rect x="301" y="62.1104" width="69" height="69" rx="34.5" stroke="#F4F4F4" stroke-opacity="0.5"/>
<path d="M334.628 108.247C333.847 107.108 332.952 105.822 331.943 104.39C330.966 102.957 330.266 101.948 329.843 101.362C329.42 100.776 328.932 100.06 328.378 99.2139C327.825 98.335 327.451 97.7165 327.255 97.3584C327.093 97.0003 326.897 96.5446 326.669 95.9912C326.474 95.4378 326.344 94.9658 326.279 94.5752C326.246 94.152 326.23 93.6637 326.23 93.1104C326.23 90.5062 327.141 88.2926 328.964 86.4697C330.787 84.6468 333.001 83.7354 335.605 83.7354C338.209 83.7354 340.423 84.6468 342.246 86.4697C344.069 88.2926 344.98 90.5062 344.98 93.1104C344.98 93.6637 344.947 94.152 344.882 94.5752C344.85 94.9658 344.72 95.4378 344.492 95.9912C344.296 96.5446 344.101 97.0003 343.906 97.3584C343.743 97.7165 343.385 98.335 342.832 99.2139C342.278 100.06 341.79 100.776 341.367 101.362C340.944 101.948 340.227 102.957 339.218 104.39C338.242 105.822 337.363 107.108 336.582 108.247C336.354 108.573 336.028 108.735 335.605 108.735C335.182 108.735 334.856 108.573 334.628 108.247ZM332.822 95.8936C333.603 96.6423 334.531 97.0166 335.605 97.0166C336.679 97.0166 337.591 96.6423 338.339 95.8936C339.121 95.1123 339.511 94.1846 339.511 93.1104C339.511 92.0361 339.121 91.1247 338.339 90.376C337.591 89.5947 336.679 89.2041 335.605 89.2041C334.531 89.2041 333.603 89.5947 332.822 90.376C332.073 91.1247 331.699 92.0361 331.699 93.1104C331.699 94.1846 332.073 95.1123 332.822 95.8936Z" fill="white"/>
<path d="M400.92 81.1104L404.865 70.1604H407.355L411.42 81.1104H409.905L406.23 71.1204L406.95 71.4804H405.18L405.945 71.1204L402.39 81.1104H400.92ZM403.275 77.8404L403.77 76.5204H408.495L408.99 77.8404H403.275ZM416.475 81.3804C415.905 81.3804 415.38 81.2754 414.9 81.0654C414.42 80.8554 414 80.5604 413.64 80.1804C413.29 79.8004 413.015 79.3604 412.815 78.8604C412.625 78.3604 412.53 77.8204 412.53 77.2404V76.9704C412.53 76.4004 412.625 75.8654 412.815 75.3654C413.005 74.8654 413.27 74.4254 413.61 74.0454C413.96 73.6654 414.37 73.3704 414.84 73.1604C415.32 72.9404 415.85 72.8304 416.43 72.8304C417.04 72.8304 417.595 72.9604 418.095 73.2204C418.595 73.4704 419.005 73.8654 419.325 74.4054C419.645 74.9454 419.825 75.6454 419.865 76.5054L419.265 75.5454V70.1604H420.705V81.1104H419.565V77.5554H419.985C419.945 78.4654 419.755 79.2054 419.415 79.7754C419.075 80.3354 418.645 80.7454 418.125 81.0054C417.615 81.2554 417.065 81.3804 416.475 81.3804ZM416.67 80.1204C417.16 80.1204 417.605 80.0104 418.005 79.7904C418.405 79.5704 418.725 79.2554 418.965 78.8454C419.205 78.4254 419.325 77.9354 419.325 77.3754V76.6854C419.325 76.1354 419.2 75.6704 418.95 75.2904C418.71 74.9004 418.385 74.6054 417.975 74.4054C417.575 74.1954 417.135 74.0904 416.655 74.0904C416.125 74.0904 415.655 74.2154 415.245 74.4654C414.845 74.7154 414.53 75.0654 414.3 75.5154C414.08 75.9654 413.97 76.4954 413.97 77.1054C413.97 77.7154 414.085 78.2504 414.315 78.7104C414.545 79.1604 414.865 79.5104 415.275 79.7604C415.685 80.0004 416.15 80.1204 416.67 80.1204ZM426.817 81.3804C426.247 81.3804 425.722 81.2754 425.242 81.0654C424.762 80.8554 424.342 80.5604 423.982 80.1804C423.632 79.8004 423.357 79.3604 423.157 78.8604C422.967 78.3604 422.872 77.8204 422.872 77.2404V76.9704C422.872 76.4004 422.967 75.8654 423.157 75.3654C423.347 74.8654 423.612 74.4254 423.952 74.0454C424.302 73.6654 424.712 73.3704 425.182 73.1604C425.662 72.9404 426.192 72.8304 426.772 72.8304C427.382 72.8304 427.937 72.9604 428.437 73.2204C428.937 73.4704 429.347 73.8654 429.667 74.4054C429.987 74.9454 430.167 75.6454 430.207 76.5054L429.607 75.5454V70.1604H431.047V81.1104H429.907V77.5554H430.327C430.287 78.4654 430.097 79.2054 429.757 79.7754C429.417 80.3354 428.987 80.7454 428.467 81.0054C427.957 81.2554 427.407 81.3804 426.817 81.3804ZM427.012 80.1204C427.502 80.1204 427.947 80.0104 428.347 79.7904C428.747 79.5704 429.067 79.2554 429.307 78.8454C429.547 78.4254 429.667 77.9354 429.667 77.3754V76.6854C429.667 76.1354 429.542 75.6704 429.292 75.2904C429.052 74.9004 428.727 74.6054 428.317 74.4054C427.917 74.1954 427.477 74.0904 426.997 74.0904C426.467 74.0904 425.997 74.2154 425.587 74.4654C425.187 74.7154 424.872 75.0654 424.642 75.5154C424.422 75.9654 424.312 76.4954 424.312 77.1054C424.312 77.7154 424.427 78.2504 424.657 78.7104C424.887 79.1604 425.207 79.5104 425.617 79.7604C426.027 80.0004 426.492 80.1204 427.012 80.1204ZM433.814 81.1104V73.1004H434.954V76.4004H434.894C434.894 75.2304 435.149 74.3754 435.659 73.8354C436.179 73.2854 436.954 73.0104 437.984 73.0104H438.254V74.3004H437.744C436.944 74.3004 436.329 74.5154 435.899 74.9454C435.469 75.3654 435.254 75.9754 435.254 76.7754V81.1104H433.814ZM443.283 81.3804C442.583 81.3804 441.978 81.2604 441.468 81.0204C440.958 80.7804 440.543 80.4654 440.223 80.0754C439.903 79.6754 439.663 79.2304 439.503 78.7404C439.353 78.2504 439.278 77.7504 439.278 77.2404V76.9704C439.278 76.4504 439.353 75.9454 439.503 75.4554C439.663 74.9654 439.903 74.5254 440.223 74.1354C440.543 73.7354 440.948 73.4204 441.438 73.1904C441.938 72.9504 442.523 72.8304 443.193 72.8304C444.063 72.8304 444.778 73.0204 445.338 73.4004C445.908 73.7704 446.328 74.2504 446.598 74.8404C446.878 75.4304 447.018 76.0604 447.018 76.7304V77.3754H439.908V76.2954H445.968L445.638 76.8804C445.638 76.3104 445.548 75.8204 445.368 75.4104C445.188 74.9904 444.918 74.6654 444.558 74.4354C444.198 74.2054 443.743 74.0904 443.193 74.0904C442.623 74.0904 442.148 74.2204 441.768 74.4804C441.398 74.7404 441.118 75.0954 440.928 75.5454C440.748 75.9954 440.658 76.5154 440.658 77.1054C440.658 77.6754 440.748 78.1904 440.928 78.6504C441.118 79.1004 441.408 79.4604 441.798 79.7304C442.188 79.9904 442.683 80.1204 443.283 80.1204C443.913 80.1204 444.423 79.9804 444.813 79.7004C445.213 79.4204 445.453 79.0954 445.533 78.7254H446.883C446.773 79.2754 446.553 79.7504 446.223 80.1504C445.893 80.5504 445.478 80.8554 444.978 81.0654C444.478 81.2754 443.913 81.3804 443.283 81.3804ZM451.688 81.3504C450.638 81.3504 449.823 81.1254 449.243 80.6754C448.673 80.2254 448.378 79.6104 448.358 78.8304H449.708C449.728 79.1404 449.883 79.4354 450.173 79.7154C450.473 79.9854 450.978 80.1204 451.688 80.1204C452.328 80.1204 452.818 79.9954 453.158 79.7454C453.498 79.4854 453.668 79.1704 453.668 78.8004C453.668 78.4704 453.543 78.2154 453.293 78.0354C453.043 77.8454 452.638 77.7204 452.078 77.6604L451.208 77.5704C450.448 77.4904 449.828 77.2654 449.348 76.8954C448.868 76.5154 448.628 75.9854 448.628 75.3054C448.628 74.7954 448.758 74.3604 449.018 74.0004C449.278 73.6304 449.638 73.3504 450.098 73.1604C450.558 72.9604 451.088 72.8604 451.688 72.8604C452.588 72.8604 453.318 73.0604 453.878 73.4604C454.438 73.8604 454.728 74.4554 454.748 75.2454H453.398C453.388 74.9254 453.238 74.6554 452.948 74.4354C452.668 74.2054 452.248 74.0904 451.688 74.0904C451.128 74.0904 450.703 74.2054 450.413 74.4354C450.123 74.6654 449.978 74.9554 449.978 75.3054C449.978 75.6054 450.078 75.8454 450.278 76.0254C450.488 76.2054 450.828 76.3204 451.298 76.3704L452.168 76.4604C453.028 76.5504 453.718 76.7904 454.238 77.1804C454.758 77.5604 455.018 78.1004 455.018 78.8004C455.018 79.3004 454.873 79.7454 454.583 80.1354C454.303 80.5154 453.913 80.8154 453.413 81.0354C452.913 81.2454 452.338 81.3504 451.688 81.3504ZM459.73 81.3504C458.68 81.3504 457.865 81.1254 457.285 80.6754C456.715 80.2254 456.42 79.6104 456.4 78.8304H457.75C457.77 79.1404 457.925 79.4354 458.215 79.7154C458.515 79.9854 459.02 80.1204 459.73 80.1204C460.37 80.1204 460.86 79.9954 461.2 79.7454C461.54 79.4854 461.71 79.1704 461.71 78.8004C461.71 78.4704 461.585 78.2154 461.335 78.0354C461.085 77.8454 460.68 77.7204 460.12 77.6604L459.25 77.5704C458.49 77.4904 457.87 77.2654 457.39 76.8954C456.91 76.5154 456.67 75.9854 456.67 75.3054C456.67 74.7954 456.8 74.3604 457.06 74.0004C457.32 73.6304 457.68 73.3504 458.14 73.1604C458.6 72.9604 459.13 72.8604 459.73 72.8604C460.63 72.8604 461.36 73.0604 461.92 73.4604C462.48 73.8604 462.77 74.4554 462.79 75.2454H461.44C461.43 74.9254 461.28 74.6554 460.99 74.4354C460.71 74.2054 460.29 74.0904 459.73 74.0904C459.17 74.0904 458.745 74.2054 458.455 74.4354C458.165 74.6654 458.02 74.9554 458.02 75.3054C458.02 75.6054 458.12 75.8454 458.32 76.0254C458.53 76.2054 458.87 76.3204 459.34 76.3704L460.21 76.4604C461.07 76.5504 461.76 76.7904 462.28 77.1804C462.8 77.5604 463.06 78.1004 463.06 78.8004C463.06 79.3004 462.915 79.7454 462.625 80.1354C462.345 80.5154 461.955 80.8154 461.455 81.0354C460.955 81.2454 460.38 81.3504 459.73 81.3504ZM464.862 81.1104V79.2804H466.602V81.1104H464.862ZM464.862 75.5604V73.7304H466.602V75.5604H464.862Z" fill="#2FC7A1"/>
<path d="M409.613 102.409V121.61H405.609V106.179C405.496 106.266 405.254 106.379 404.881 106.517C404.517 106.647 404.079 106.773 403.568 106.894C403.057 107.016 402.528 107.098 401.982 107.141V103.969C402.528 103.9 403.061 103.783 403.581 103.618C404.101 103.445 404.547 103.25 404.92 103.033C405.301 102.817 405.553 102.609 405.674 102.409H409.613ZM420.016 121.922C418.855 121.922 417.897 121.727 417.143 121.337C416.389 120.939 415.804 120.445 415.388 119.855C414.972 119.257 414.678 118.655 414.504 118.048C414.34 117.433 414.257 116.913 414.257 116.488C414.257 116.462 414.257 116.445 414.257 116.436C414.257 116.428 414.257 116.415 414.257 116.397H418.001C418.001 116.415 418.001 116.428 418.001 116.436C418.001 116.445 418.001 116.462 418.001 116.488C418.001 116.705 418.027 116.948 418.079 117.216C418.14 117.476 418.244 117.728 418.391 117.97C418.539 118.213 418.742 118.412 419.002 118.568C419.271 118.724 419.613 118.802 420.029 118.802C420.653 118.802 421.173 118.534 421.589 117.996C422.005 117.45 422.313 116.623 422.512 115.513C422.72 114.404 422.824 112.996 422.824 111.288L423.578 111.275C423.544 111.821 423.349 112.35 422.993 112.861C422.647 113.373 422.14 113.793 421.472 114.122C420.805 114.443 419.986 114.603 419.015 114.603C417.819 114.603 416.823 114.339 416.025 113.81C415.228 113.273 414.626 112.562 414.218 111.678C413.82 110.794 413.62 109.819 413.62 108.753C413.62 107.488 413.867 106.357 414.361 105.36C414.855 104.364 415.588 103.579 416.558 103.007C417.538 102.435 418.755 102.149 420.211 102.149C421.754 102.149 423.006 102.522 423.968 103.267C424.939 104.004 425.654 105.057 426.113 106.426C426.573 107.787 426.802 109.408 426.802 111.288C426.802 112.996 426.655 114.512 426.36 115.838C426.066 117.156 425.628 118.265 425.047 119.166C424.475 120.068 423.765 120.752 422.915 121.22C422.075 121.688 421.108 121.922 420.016 121.922ZM420.029 111.717C420.541 111.717 420.987 111.596 421.368 111.353C421.758 111.111 422.062 110.764 422.278 110.313C422.504 109.854 422.616 109.295 422.616 108.636C422.616 107.969 422.517 107.388 422.317 106.894C422.118 106.392 421.832 105.997 421.459 105.711C421.095 105.425 420.666 105.282 420.172 105.282C419.618 105.282 419.154 105.404 418.781 105.646C418.417 105.889 418.14 106.249 417.949 106.725C417.767 107.193 417.676 107.778 417.676 108.48C417.676 109.148 417.767 109.724 417.949 110.209C418.14 110.695 418.409 111.067 418.755 111.327C419.111 111.587 419.535 111.717 420.029 111.717ZM429.346 121.61V118.308C429.424 118.118 429.653 117.836 430.035 117.463C430.416 117.082 430.88 116.653 431.426 116.176C431.972 115.7 432.544 115.214 433.142 114.72C433.748 114.218 434.307 113.754 434.819 113.329C435.425 112.827 436.015 112.307 436.587 111.769C437.159 111.223 437.631 110.647 438.004 110.04C438.385 109.425 438.576 108.779 438.576 108.103C438.576 107.254 438.372 106.574 437.965 106.062C437.566 105.551 436.929 105.295 436.054 105.295C435.352 105.295 434.793 105.451 434.377 105.763C433.969 106.067 433.679 106.496 433.506 107.05C433.332 107.596 433.246 108.238 433.246 108.974H429.216C429.216 107.57 429.48 106.357 430.009 105.334C430.546 104.312 431.326 103.527 432.349 102.981C433.38 102.427 434.637 102.149 436.119 102.149C437.557 102.149 438.758 102.414 439.72 102.942C440.69 103.471 441.418 104.186 441.904 105.087C442.389 105.989 442.632 107.007 442.632 108.142C442.632 108.905 442.484 109.62 442.19 110.287C441.904 110.946 441.527 111.557 441.059 112.12C440.599 112.684 440.105 113.199 439.577 113.667C439.048 114.127 438.55 114.543 438.082 114.915C437.293 115.539 436.608 116.09 436.028 116.566C435.447 117.043 434.983 117.446 434.637 117.775C434.299 118.105 434.091 118.356 434.013 118.529H442.515V121.61H429.346ZM458.055 105.477H450.463L449.774 110.482C449.8 110.396 449.891 110.279 450.047 110.131C450.203 109.984 450.419 109.837 450.697 109.689C450.983 109.533 451.334 109.408 451.75 109.312C452.174 109.208 452.664 109.156 453.219 109.156C454.952 109.156 456.269 109.72 457.171 110.846C458.081 111.964 458.536 113.429 458.536 115.24C458.536 116.688 458.284 117.91 457.782 118.906C457.288 119.903 456.555 120.657 455.585 121.168C454.614 121.671 453.405 121.922 451.958 121.922C450.779 121.922 449.778 121.749 448.955 121.402C448.14 121.047 447.477 120.579 446.966 119.998C446.463 119.409 446.095 118.759 445.861 118.048C445.627 117.329 445.51 116.601 445.51 115.864C445.51 115.847 445.51 115.838 445.51 115.838C445.51 115.83 445.51 115.821 445.51 115.812H449.501C449.501 115.821 449.501 115.83 449.501 115.838C449.501 115.838 449.501 115.847 449.501 115.864C449.544 116.792 449.761 117.511 450.151 118.022C450.549 118.534 451.173 118.789 452.023 118.789C452.569 118.789 453.024 118.664 453.388 118.412C453.76 118.161 454.038 117.78 454.22 117.268C454.402 116.748 454.493 116.103 454.493 115.331C454.493 114.291 454.311 113.485 453.947 112.913C453.583 112.333 452.998 112.042 452.192 112.042C451.715 112.042 451.295 112.133 450.931 112.315C450.575 112.497 450.281 112.723 450.047 112.991C449.821 113.26 449.661 113.524 449.566 113.784L445.731 112.783L447.226 102.435H458.055V105.477ZM475.808 102.435C477.151 102.435 478.252 102.622 479.11 102.994C479.976 103.367 480.618 103.904 481.034 104.606C481.45 105.3 481.658 106.119 481.658 107.063C481.658 108.008 481.471 108.814 481.099 109.481C480.726 110.14 480.254 110.651 479.682 111.015C479.11 111.371 478.529 111.57 477.94 111.613C478.555 111.631 479.188 111.791 479.838 112.094C480.488 112.389 481.034 112.87 481.476 113.537C481.918 114.196 482.139 115.076 482.139 116.176C482.139 117.216 481.926 118.148 481.502 118.971C481.086 119.786 480.414 120.432 479.487 120.908C478.559 121.376 477.32 121.61 475.769 121.61H468.229V102.435H475.808ZM472.09 111.314L470.751 110.183H474.573C475.595 110.183 476.362 109.967 476.874 109.533C477.385 109.091 477.641 108.498 477.641 107.752C477.641 107.25 477.532 106.838 477.316 106.517C477.099 106.188 476.778 105.945 476.354 105.789C475.929 105.633 475.405 105.555 474.781 105.555H470.27L472.09 103.631V111.314ZM474.989 118.477C475.977 118.477 476.726 118.252 477.238 117.801C477.758 117.342 478.018 116.722 478.018 115.942C478.018 115.5 477.94 115.115 477.784 114.785C477.636 114.456 477.424 114.183 477.147 113.966C476.869 113.741 476.531 113.572 476.133 113.459C475.743 113.338 475.309 113.277 474.833 113.277H470.751L472.09 112.159V120.401L470.27 118.477H474.989ZM491.788 121.909C490.297 121.909 488.984 121.602 487.849 120.986C486.713 120.371 485.825 119.526 485.184 118.451C484.551 117.368 484.235 116.12 484.235 114.707C484.235 113.303 484.551 112.064 485.184 110.989C485.825 109.906 486.713 109.065 487.849 108.467C488.984 107.861 490.297 107.557 491.788 107.557C493.278 107.557 494.591 107.861 495.727 108.467C496.862 109.065 497.746 109.906 498.379 110.989C499.02 112.064 499.341 113.303 499.341 114.707C499.341 116.12 499.02 117.368 498.379 118.451C497.746 119.526 496.862 120.371 495.727 120.986C494.591 121.602 493.278 121.909 491.788 121.909ZM491.788 118.711C492.49 118.711 493.101 118.547 493.621 118.217C494.141 117.888 494.544 117.424 494.83 116.826C495.116 116.22 495.259 115.513 495.259 114.707C495.259 113.901 495.116 113.204 494.83 112.614C494.544 112.016 494.141 111.557 493.621 111.236C493.101 110.916 492.49 110.755 491.788 110.755C491.094 110.755 490.483 110.916 489.955 111.236C489.435 111.557 489.032 112.016 488.746 112.614C488.46 113.204 488.317 113.901 488.317 114.707C488.317 115.513 488.46 116.22 488.746 116.826C489.032 117.424 489.435 117.888 489.955 118.217C490.483 118.547 491.094 118.711 491.788 118.711ZM511.387 119.972C512.236 120.059 512.977 120.224 513.61 120.466C514.251 120.7 514.75 121.051 515.105 121.519C515.46 121.979 515.638 122.594 515.638 123.365C515.638 124.258 515.343 125.016 514.754 125.64C514.173 126.273 513.32 126.754 512.193 127.083C511.066 127.413 509.701 127.577 508.098 127.577C505.732 127.577 503.899 127.235 502.599 126.55C501.308 125.874 500.662 124.969 500.662 123.833C500.662 123.513 500.697 123.222 500.766 122.962C500.844 122.711 500.939 122.494 501.052 122.312L504.718 122.845C504.675 122.906 504.627 122.997 504.575 123.118C504.532 123.248 504.51 123.409 504.51 123.599C504.51 124.059 504.852 124.401 505.537 124.626C506.23 124.852 507.123 124.964 508.215 124.964C508.986 124.964 509.645 124.908 510.191 124.795C510.746 124.691 511.166 124.535 511.452 124.327C511.747 124.119 511.894 123.881 511.894 123.612C511.894 123.222 511.703 122.967 511.322 122.845C510.949 122.724 510.516 122.637 510.022 122.585L504.796 122.052C503.834 121.957 503.037 121.68 502.404 121.22C501.771 120.761 501.455 120.141 501.455 119.361C501.455 118.876 501.589 118.434 501.858 118.035C502.127 117.628 502.434 117.294 502.781 117.034C503.128 116.766 503.418 116.597 503.652 116.527L505.706 117.567C505.541 117.593 505.346 117.697 505.121 117.879C504.904 118.061 504.796 118.274 504.796 118.516C504.796 118.759 504.917 118.967 505.16 119.14C505.411 119.314 505.866 119.431 506.525 119.491L511.387 119.972ZM512.752 107.804H516.301L514.858 113.108C514.589 114.114 514.191 115.011 513.662 115.799C513.133 116.579 512.427 117.195 511.543 117.645C510.668 118.096 509.563 118.321 508.228 118.321C506.824 118.321 505.606 118.105 504.575 117.671C503.552 117.238 502.764 116.627 502.209 115.838C501.654 115.041 501.377 114.101 501.377 113.017C501.377 111.934 501.659 110.981 502.222 110.157C502.794 109.334 503.57 108.693 504.549 108.233C505.537 107.774 506.655 107.544 507.903 107.544C508.848 107.544 509.71 107.7 510.49 108.012C511.279 108.316 511.911 108.719 512.388 109.221C512.873 109.724 513.125 110.279 513.142 110.885L512.401 111.08L512.752 107.804ZM508.202 115.37C508.774 115.37 509.277 115.279 509.71 115.097C510.143 114.907 510.481 114.634 510.724 114.278C510.967 113.914 511.088 113.477 511.088 112.965C511.088 112.463 510.967 112.034 510.724 111.678C510.481 111.323 510.143 111.05 509.71 110.859C509.277 110.669 508.774 110.573 508.202 110.573C507.656 110.573 507.162 110.673 506.72 110.872C506.287 111.063 505.944 111.34 505.693 111.704C505.442 112.06 505.316 112.493 505.316 113.004C505.316 113.507 505.437 113.936 505.68 114.291C505.923 114.638 506.261 114.907 506.694 115.097C507.127 115.279 507.63 115.37 508.202 115.37ZM527.79 119.972C528.639 120.059 529.38 120.224 530.013 120.466C530.654 120.7 531.152 121.051 531.508 121.519C531.863 121.979 532.041 122.594 532.041 123.365C532.041 124.258 531.746 125.016 531.157 125.64C530.576 126.273 529.722 126.754 528.596 127.083C527.469 127.413 526.104 127.577 524.501 127.577C522.135 127.577 520.302 127.235 519.002 126.55C517.71 125.874 517.065 124.969 517.065 123.833C517.065 123.513 517.099 123.222 517.169 122.962C517.247 122.711 517.342 122.494 517.455 122.312L521.121 122.845C521.077 122.906 521.03 122.997 520.978 123.118C520.934 123.248 520.913 123.409 520.913 123.599C520.913 124.059 521.255 124.401 521.94 124.626C522.633 124.852 523.526 124.964 524.618 124.964C525.389 124.964 526.048 124.908 526.594 124.795C527.148 124.691 527.569 124.535 527.855 124.327C528.149 124.119 528.297 123.881 528.297 123.612C528.297 123.222 528.106 122.967 527.725 122.845C527.352 122.724 526.919 122.637 526.425 122.585L521.199 122.052C520.237 121.957 519.439 121.68 518.807 121.22C518.174 120.761 517.858 120.141 517.858 119.361C517.858 118.876 517.992 118.434 518.261 118.035C518.529 117.628 518.837 117.294 519.184 117.034C519.53 116.766 519.821 116.597 520.055 116.527L522.109 117.567C521.944 117.593 521.749 117.697 521.524 117.879C521.307 118.061 521.199 118.274 521.199 118.516C521.199 118.759 521.32 118.967 521.563 119.14C521.814 119.314 522.269 119.431 522.928 119.491L527.79 119.972ZM529.155 107.804H532.704L531.261 113.108C530.992 114.114 530.593 115.011 530.065 115.799C529.536 116.579 528.83 117.195 527.946 117.645C527.07 118.096 525.965 118.321 524.631 118.321C523.227 118.321 522.009 118.105 520.978 117.671C519.955 117.238 519.166 116.627 518.612 115.838C518.057 115.041 517.78 114.101 517.78 113.017C517.78 111.934 518.061 110.981 518.625 110.157C519.197 109.334 519.972 108.693 520.952 108.233C521.94 107.774 523.058 107.544 524.306 107.544C525.25 107.544 526.113 107.7 526.893 108.012C527.681 108.316 528.314 108.719 528.791 109.221C529.276 109.724 529.527 110.279 529.545 110.885L528.804 111.08L529.155 107.804ZM524.605 115.37C525.177 115.37 525.679 115.279 526.113 115.097C526.546 114.907 526.884 114.634 527.127 114.278C527.369 113.914 527.491 113.477 527.491 112.965C527.491 112.463 527.369 112.034 527.127 111.678C526.884 111.323 526.546 111.05 526.113 110.859C525.679 110.669 525.177 110.573 524.605 110.573C524.059 110.573 523.565 110.673 523.123 110.872C522.689 111.063 522.347 111.34 522.096 111.704C521.844 112.06 521.719 112.493 521.719 113.004C521.719 113.507 521.84 113.936 522.083 114.291C522.325 114.638 522.663 114.907 523.097 115.097C523.53 115.279 524.033 115.37 524.605 115.37ZM535.702 115.916V113.251H544.854L544.464 113.927C544.464 113.858 544.464 113.793 544.464 113.732C544.464 113.663 544.464 113.598 544.464 113.537C544.464 113.043 544.347 112.571 544.113 112.12C543.879 111.661 543.515 111.288 543.021 111.002C542.536 110.708 541.912 110.56 541.149 110.56C540.386 110.56 539.728 110.725 539.173 111.054C538.627 111.375 538.207 111.839 537.912 112.445C537.626 113.052 537.483 113.784 537.483 114.642C537.483 115.526 537.622 116.285 537.899 116.917C538.185 117.541 538.605 118.022 539.16 118.36C539.723 118.698 540.421 118.867 541.253 118.867C541.79 118.867 542.254 118.82 542.644 118.724C543.034 118.62 543.35 118.49 543.593 118.334C543.844 118.178 544.035 118.005 544.165 117.814C544.295 117.624 544.373 117.437 544.399 117.255H548.377C548.325 117.836 548.126 118.408 547.779 118.971C547.432 119.526 546.951 120.029 546.336 120.479C545.721 120.921 544.971 121.272 544.087 121.532C543.212 121.792 542.211 121.922 541.084 121.922C539.559 121.922 538.228 121.619 537.093 121.012C535.958 120.397 535.078 119.552 534.454 118.477C533.83 117.394 533.518 116.146 533.518 114.733C533.518 113.303 533.834 112.051 534.467 110.976C535.108 109.893 535.997 109.052 537.132 108.454C538.276 107.848 539.598 107.544 541.097 107.544C542.631 107.544 543.957 107.852 545.075 108.467C546.193 109.074 547.055 109.928 547.662 111.028C548.269 112.12 548.572 113.394 548.572 114.85C548.572 115.067 548.568 115.275 548.559 115.474C548.55 115.674 548.537 115.821 548.52 115.916H535.702ZM556.837 121.922C556.013 121.922 555.22 121.827 554.458 121.636C553.695 121.446 553.01 121.164 552.404 120.791C551.806 120.419 551.329 119.955 550.974 119.4C550.627 118.837 550.454 118.183 550.454 117.437C550.454 117.403 550.454 117.364 550.454 117.32C550.454 117.268 550.454 117.229 550.454 117.203H554.458C554.458 117.229 554.458 117.26 554.458 117.294C554.458 117.32 554.458 117.351 554.458 117.385C554.458 117.888 554.679 118.256 555.121 118.49C555.571 118.724 556.178 118.841 556.941 118.841C557.339 118.841 557.721 118.802 558.085 118.724C558.457 118.638 558.761 118.503 558.995 118.321C559.237 118.131 559.359 117.892 559.359 117.606C559.359 117.147 559.103 116.822 558.592 116.631C558.089 116.441 557.279 116.25 556.161 116.059C555.528 115.955 554.887 115.808 554.237 115.617C553.587 115.427 552.989 115.175 552.443 114.863C551.897 114.543 551.459 114.14 551.13 113.654C550.8 113.16 550.636 112.562 550.636 111.86C550.636 110.924 550.917 110.136 551.481 109.494C552.053 108.853 552.811 108.368 553.756 108.038C554.7 107.709 555.74 107.544 556.876 107.544C557.959 107.544 558.969 107.726 559.905 108.09C560.841 108.446 561.599 108.961 562.18 109.637C562.76 110.305 563.051 111.111 563.051 112.055C563.051 112.073 563.051 112.099 563.051 112.133C563.051 112.168 563.051 112.203 563.051 112.237H559.086C559.086 112.203 559.086 112.172 559.086 112.146C559.086 112.12 559.086 112.099 559.086 112.081C559.086 111.735 558.973 111.453 558.748 111.236C558.531 111.02 558.254 110.859 557.916 110.755C557.578 110.643 557.227 110.586 556.863 110.586C556.533 110.586 556.191 110.625 555.836 110.703C555.489 110.773 555.194 110.894 554.952 111.067C554.709 111.232 554.588 111.466 554.588 111.769C554.588 112.064 554.718 112.307 554.978 112.497C555.238 112.679 555.602 112.831 556.07 112.952C556.538 113.065 557.079 113.173 557.695 113.277C558.275 113.373 558.886 113.507 559.528 113.68C560.178 113.845 560.784 114.083 561.348 114.395C561.92 114.699 562.379 115.102 562.726 115.604C563.081 116.098 563.259 116.727 563.259 117.489C563.259 118.278 563.077 118.954 562.713 119.517C562.349 120.081 561.855 120.54 561.231 120.895C560.615 121.242 559.926 121.498 559.164 121.662C558.41 121.836 557.634 121.922 556.837 121.922ZM571.512 121.922C570.689 121.922 569.896 121.827 569.133 121.636C568.371 121.446 567.686 121.164 567.079 120.791C566.481 120.419 566.005 119.955 565.649 119.4C565.303 118.837 565.129 118.183 565.129 117.437C565.129 117.403 565.129 117.364 565.129 117.32C565.129 117.268 565.129 117.229 565.129 117.203H569.133C569.133 117.229 569.133 117.26 569.133 117.294C569.133 117.32 569.133 117.351 569.133 117.385C569.133 117.888 569.354 118.256 569.796 118.49C570.247 118.724 570.854 118.841 571.616 118.841C572.015 118.841 572.396 118.802 572.76 118.724C573.133 118.638 573.436 118.503 573.67 118.321C573.913 118.131 574.034 117.892 574.034 117.606C574.034 117.147 573.779 116.822 573.267 116.631C572.765 116.441 571.954 116.25 570.836 116.059C570.204 115.955 569.562 115.808 568.912 115.617C568.262 115.427 567.664 115.175 567.118 114.863C566.572 114.543 566.135 114.14 565.805 113.654C565.476 113.16 565.311 112.562 565.311 111.86C565.311 110.924 565.593 110.136 566.156 109.494C566.728 108.853 567.487 108.368 568.431 108.038C569.376 107.709 570.416 107.544 571.551 107.544C572.635 107.544 573.644 107.726 574.58 108.09C575.516 108.446 576.275 108.961 576.855 109.637C577.436 110.305 577.726 111.111 577.726 112.055C577.726 112.073 577.726 112.099 577.726 112.133C577.726 112.168 577.726 112.203 577.726 112.237H573.761C573.761 112.203 573.761 112.172 573.761 112.146C573.761 112.12 573.761 112.099 573.761 112.081C573.761 111.735 573.649 111.453 573.423 111.236C573.207 111.02 572.929 110.859 572.591 110.755C572.253 110.643 571.902 110.586 571.538 110.586C571.209 110.586 570.867 110.625 570.511 110.703C570.165 110.773 569.87 110.894 569.627 111.067C569.385 111.232 569.263 111.466 569.263 111.769C569.263 112.064 569.393 112.307 569.653 112.497C569.913 112.679 570.277 112.831 570.745 112.952C571.213 113.065 571.755 113.173 572.37 113.277C572.951 113.373 573.562 113.507 574.203 113.68C574.853 113.845 575.46 114.083 576.023 114.395C576.595 114.699 577.055 115.102 577.401 115.604C577.757 116.098 577.934 116.727 577.934 117.489C577.934 118.278 577.752 118.954 577.388 119.517C577.024 120.081 576.53 120.54 575.906 120.895C575.291 121.242 574.602 121.498 573.839 121.662C573.085 121.836 572.31 121.922 571.512 121.922ZM593.455 121.922C592.068 121.922 590.846 121.701 589.789 121.259C588.74 120.817 587.917 120.159 587.319 119.283C586.73 118.399 586.435 117.303 586.435 115.994C586.435 115.856 586.435 115.73 586.435 115.617C586.435 115.496 586.435 115.366 586.435 115.227H590.478C590.478 115.357 590.478 115.474 590.478 115.578C590.478 115.674 590.478 115.786 590.478 115.916C590.478 116.809 590.729 117.494 591.232 117.97C591.735 118.447 592.48 118.685 593.468 118.685C594.465 118.685 595.232 118.529 595.769 118.217C596.306 117.897 596.575 117.372 596.575 116.644C596.575 116.133 596.371 115.682 595.964 115.292C595.565 114.902 595.019 114.556 594.326 114.252C593.641 113.94 592.857 113.65 591.973 113.381C591.011 113.078 590.118 112.679 589.295 112.185C588.472 111.691 587.809 111.063 587.306 110.3C586.812 109.538 586.565 108.597 586.565 107.479C586.565 106.353 586.864 105.395 587.462 104.606C588.06 103.809 588.875 103.202 589.906 102.786C590.937 102.362 592.103 102.149 593.403 102.149C594.764 102.149 595.964 102.362 597.004 102.786C598.053 103.202 598.872 103.831 599.461 104.671C600.059 105.503 600.358 106.543 600.358 107.791C600.358 107.93 600.358 108.06 600.358 108.181C600.358 108.294 600.358 108.424 600.358 108.571H596.328C596.328 108.476 596.328 108.376 596.328 108.272C596.328 108.168 596.328 108.069 596.328 107.973C596.328 107.133 596.094 106.487 595.626 106.036C595.167 105.586 594.443 105.36 593.455 105.36C592.502 105.36 591.761 105.534 591.232 105.88C590.712 106.227 590.452 106.76 590.452 107.479C590.452 107.999 590.638 108.441 591.011 108.805C591.392 109.169 591.912 109.494 592.571 109.78C593.23 110.066 593.979 110.352 594.82 110.638C595.964 111.037 596.961 111.479 597.81 111.964C598.668 112.441 599.331 113.043 599.799 113.771C600.267 114.491 600.501 115.409 600.501 116.527C600.501 117.671 600.206 118.646 599.617 119.452C599.028 120.258 598.2 120.874 597.134 121.298C596.077 121.714 594.85 121.922 593.455 121.922ZM609.927 121.896C609.399 121.896 608.853 121.849 608.289 121.753C607.735 121.667 607.215 121.489 606.729 121.22C606.253 120.943 605.867 120.54 605.572 120.011C605.278 119.483 605.13 118.785 605.13 117.918C605.13 117.728 605.13 117.533 605.13 117.333C605.13 117.134 605.13 116.935 605.13 116.735V110.924H601.945V107.804H602.842C603.362 107.804 603.774 107.783 604.077 107.739C604.389 107.696 604.619 107.588 604.766 107.414C604.922 107.232 605.022 106.951 605.065 106.569C605.109 106.188 605.13 105.664 605.13 104.996V103.254H609.173V107.804H613.19V110.924H609.173V115.89C609.173 116.046 609.173 116.198 609.173 116.345C609.173 116.493 609.173 116.636 609.173 116.774C609.173 117.372 609.243 117.858 609.381 118.23C609.529 118.603 609.888 118.789 610.46 118.789C610.746 118.789 611.015 118.763 611.266 118.711C611.526 118.659 611.721 118.607 611.851 118.555V121.584C611.669 121.662 611.414 121.732 611.084 121.792C610.755 121.862 610.369 121.896 609.927 121.896ZM615.634 121.61V107.804H619.677V112.562L618.845 112.042C618.94 111.392 619.113 110.794 619.365 110.248C619.616 109.702 619.941 109.23 620.34 108.831C620.738 108.424 621.211 108.108 621.757 107.882C622.311 107.657 622.944 107.544 623.655 107.544C624.209 107.544 624.643 107.588 624.955 107.674C625.275 107.752 625.475 107.813 625.553 107.856L624.89 111.47C624.812 111.427 624.638 111.358 624.37 111.262C624.101 111.167 623.754 111.119 623.33 111.119C622.636 111.119 622.056 111.236 621.588 111.47C621.12 111.704 620.743 112.016 620.457 112.406C620.179 112.788 619.98 113.212 619.859 113.68C619.737 114.148 619.677 114.621 619.677 115.097V121.61H615.634ZM628.886 115.916V113.251H638.038L637.648 113.927C637.648 113.858 637.648 113.793 637.648 113.732C637.648 113.663 637.648 113.598 637.648 113.537C637.648 113.043 637.531 112.571 637.297 112.12C637.063 111.661 636.699 111.288 636.205 111.002C635.719 110.708 635.095 110.56 634.333 110.56C633.57 110.56 632.911 110.725 632.357 111.054C631.811 111.375 631.39 111.839 631.096 112.445C630.81 113.052 630.667 113.784 630.667 114.642C630.667 115.526 630.805 116.285 631.083 116.917C631.369 117.541 631.789 118.022 632.344 118.36C632.907 118.698 633.605 118.867 634.437 118.867C634.974 118.867 635.438 118.82 635.828 118.724C636.218 118.62 636.534 118.49 636.777 118.334C637.028 118.178 637.219 118.005 637.349 117.814C637.479 117.624 637.557 117.437 637.583 117.255H641.561C641.509 117.836 641.309 118.408 640.963 118.971C640.616 119.526 640.135 120.029 639.52 120.479C638.904 120.921 638.155 121.272 637.271 121.532C636.395 121.792 635.394 121.922 634.268 121.922C632.742 121.922 631.412 121.619 630.277 121.012C629.141 120.397 628.262 119.552 627.638 118.477C627.014 117.394 626.702 116.146 626.702 114.733C626.702 113.303 627.018 112.051 627.651 110.976C628.292 109.893 629.18 109.052 630.316 108.454C631.46 107.848 632.781 107.544 634.281 107.544C635.815 107.544 637.141 107.852 638.259 108.467C639.377 109.074 640.239 109.928 640.846 111.028C641.452 112.12 641.756 113.394 641.756 114.85C641.756 115.067 641.751 115.275 641.743 115.474C641.734 115.674 641.721 115.821 641.704 115.916H628.886ZM645.821 115.916V113.251H654.973L654.583 113.927C654.583 113.858 654.583 113.793 654.583 113.732C654.583 113.663 654.583 113.598 654.583 113.537C654.583 113.043 654.466 112.571 654.232 112.12C653.998 111.661 653.634 111.288 653.14 111.002C652.655 110.708 652.031 110.56 651.268 110.56C650.506 110.56 649.847 110.725 649.292 111.054C648.746 111.375 648.326 111.839 648.031 112.445C647.745 113.052 647.602 113.784 647.602 114.642C647.602 115.526 647.741 116.285 648.018 116.917C648.304 117.541 648.725 118.022 649.279 118.36C649.843 118.698 650.54 118.867 651.372 118.867C651.91 118.867 652.373 118.82 652.763 118.724C653.153 118.62 653.47 118.49 653.712 118.334C653.964 118.178 654.154 118.005 654.284 117.814C654.414 117.624 654.492 117.437 654.518 117.255H658.496C658.444 117.836 658.245 118.408 657.898 118.971C657.552 119.526 657.071 120.029 656.455 120.479C655.84 120.921 655.09 121.272 654.206 121.532C653.331 121.792 652.33 121.922 651.203 121.922C649.678 121.922 648.348 121.619 647.212 121.012C646.077 120.397 645.197 119.552 644.573 118.477C643.949 117.394 643.637 116.146 643.637 114.733C643.637 113.303 643.954 112.051 644.586 110.976C645.228 109.893 646.116 109.052 647.251 108.454C648.395 107.848 649.717 107.544 651.216 107.544C652.75 107.544 654.076 107.852 655.194 108.467C656.312 109.074 657.175 109.928 657.781 111.028C658.388 112.12 658.691 113.394 658.691 114.85C658.691 115.067 658.687 115.275 658.678 115.474C658.67 115.674 658.657 115.821 658.639 115.916H645.821ZM667.894 121.896C667.365 121.896 666.819 121.849 666.256 121.753C665.701 121.667 665.181 121.489 664.696 121.22C664.219 120.943 663.834 120.54 663.539 120.011C663.244 119.483 663.097 118.785 663.097 117.918C663.097 117.728 663.097 117.533 663.097 117.333C663.097 117.134 663.097 116.935 663.097 116.735V110.924H659.912V107.804H660.809C661.329 107.804 661.741 107.783 662.044 107.739C662.356 107.696 662.586 107.588 662.733 107.414C662.889 107.232 662.989 106.951 663.032 106.569C663.075 106.188 663.097 105.664 663.097 104.996V103.254H667.14V107.804H671.157V110.924H667.14V115.89C667.14 116.046 667.14 116.198 667.14 116.345C667.14 116.493 667.14 116.636 667.14 116.774C667.14 117.372 667.209 117.858 667.348 118.23C667.495 118.603 667.855 118.789 668.427 118.789C668.713 118.789 668.982 118.763 669.233 118.711C669.493 118.659 669.688 118.607 669.818 118.555V121.584C669.636 121.662 669.38 121.732 669.051 121.792C668.722 121.862 668.336 121.896 667.894 121.896Z" fill="white"/>
<rect x="747" y="0.610352" width="1" height="192" stroke="white" stroke-opacity="0.3"/>
<rect x="823.5" y="61.6104" width="70" height="70" rx="35" fill="white" fill-opacity="0.05"/>
<rect x="824" y="62.1104" width="69" height="69" rx="34.5" stroke="#F4F4F4" stroke-opacity="0.5"/>
<path d="M869.857 107.632C869.738 108.252 869.369 108.568 868.751 108.579C862.502 108.688 857.125 106.568 852.621 102.219C848.118 97.8695 845.811 92.5704 845.702 86.3213C845.692 85.7029 845.994 85.3232 846.61 85.1822L851.667 83.9219C852.283 83.7484 852.726 83.9686 852.997 84.5824L855.436 90.0094C855.673 90.5262 855.567 90.9838 855.118 91.3824L852.231 93.8257C853.143 95.7307 854.361 97.4024 855.883 98.8409C857.407 100.312 859.12 101.47 861.023 102.316L863.413 99.3443C863.763 98.8824 864.217 98.7605 864.774 98.9787L870.283 101.227C870.873 101.477 871.092 101.912 870.94 102.534L869.857 107.632Z" fill="white"/>
<path d="M926.26 77.3004V76.0104H928.705C929.225 76.0104 929.655 75.9104 929.995 75.7104C930.335 75.5004 930.59 75.2204 930.76 74.8704C930.94 74.5204 931.03 74.1304 931.03 73.7004C931.03 73.2604 930.94 72.8654 930.76 72.5154C930.59 72.1654 930.335 71.8904 929.995 71.6904C929.655 71.4904 929.225 71.3904 928.705 71.3904H926.26V70.1004H928.435C929.335 70.1004 930.085 70.2454 930.685 70.5354C931.295 70.8154 931.755 71.2154 932.065 71.7354C932.375 72.2554 932.53 72.8704 932.53 73.5804V73.8204C932.53 74.5204 932.375 75.1354 932.065 75.6654C931.755 76.1854 931.295 76.5904 930.685 76.8804C930.085 77.1604 929.335 77.3004 928.435 77.3004H926.26ZM925.09 81.1104V70.1004H926.56V81.1104H925.09ZM934.475 81.1104V70.1604H935.915V76.7004H935.555C935.555 75.9104 935.655 75.2304 935.855 74.6604C936.065 74.0804 936.385 73.6354 936.815 73.3254C937.245 73.0154 937.795 72.8604 938.465 72.8604H938.525C939.485 72.8604 940.21 73.1804 940.7 73.8204C941.19 74.4504 941.435 75.3554 941.435 76.5354V81.1104H939.995V76.2354C939.995 75.5854 939.81 75.0804 939.44 74.7204C939.08 74.3604 938.61 74.1804 938.03 74.1804C937.39 74.1804 936.875 74.3954 936.485 74.8254C936.105 75.2454 935.915 75.8004 935.915 76.4904V81.1104H934.475ZM947.759 81.3804C947.059 81.3804 946.444 81.2604 945.914 81.0204C945.384 80.7804 944.934 80.4654 944.564 80.0754C944.204 79.6754 943.929 79.2304 943.739 78.7404C943.559 78.2504 943.469 77.7504 943.469 77.2404V76.9704C943.469 76.4604 943.564 75.9604 943.754 75.4704C943.944 74.9704 944.224 74.5254 944.594 74.1354C944.964 73.7354 945.414 73.4204 945.944 73.1904C946.474 72.9504 947.079 72.8304 947.759 72.8304C948.439 72.8304 949.044 72.9504 949.574 73.1904C950.104 73.4204 950.554 73.7354 950.924 74.1354C951.294 74.5254 951.574 74.9704 951.764 75.4704C951.954 75.9604 952.049 76.4604 952.049 76.9704V77.2404C952.049 77.7504 951.954 78.2504 951.764 78.7404C951.584 79.2304 951.309 79.6754 950.939 80.0754C950.579 80.4654 950.134 80.7804 949.604 81.0204C949.074 81.2604 948.459 81.3804 947.759 81.3804ZM947.759 80.0904C948.359 80.0904 948.869 79.9604 949.289 79.7004C949.719 79.4304 950.044 79.0704 950.264 78.6204C950.494 78.1704 950.609 77.6654 950.609 77.1054C950.609 76.5354 950.494 76.0254 950.264 75.5754C950.034 75.1254 949.704 74.7704 949.274 74.5104C948.854 74.2504 948.349 74.1204 947.759 74.1204C947.179 74.1204 946.674 74.2504 946.244 74.5104C945.814 74.7704 945.484 75.1254 945.254 75.5754C945.024 76.0254 944.909 76.5354 944.909 77.1054C944.909 77.6654 945.019 78.1704 945.239 78.6204C945.469 79.0704 945.794 79.4304 946.214 79.7004C946.644 79.9604 947.159 80.0904 947.759 80.0904ZM954.206 81.1104V73.1004H955.346V76.5354H955.166C955.166 75.7454 955.271 75.0804 955.481 74.5404C955.701 73.9904 956.031 73.5754 956.471 73.2954C956.911 73.0054 957.466 72.8604 958.136 72.8604H958.196C959.206 72.8604 959.951 73.1754 960.431 73.8054C960.921 74.4354 961.166 75.3454 961.166 76.5354V81.1104H959.726V76.2354C959.726 75.6154 959.551 75.1204 959.201 74.7504C958.851 74.3704 958.371 74.1804 957.761 74.1804C957.131 74.1804 956.621 74.3754 956.231 74.7654C955.841 75.1554 955.646 75.6754 955.646 76.3254V81.1104H954.206ZM967.206 81.3804C966.506 81.3804 965.901 81.2604 965.391 81.0204C964.881 80.7804 964.466 80.4654 964.146 80.0754C963.826 79.6754 963.586 79.2304 963.426 78.7404C963.276 78.2504 963.201 77.7504 963.201 77.2404V76.9704C963.201 76.4504 963.276 75.9454 963.426 75.4554C963.586 74.9654 963.826 74.5254 964.146 74.1354C964.466 73.7354 964.871 73.4204 965.361 73.1904C965.861 72.9504 966.446 72.8304 967.116 72.8304C967.986 72.8304 968.701 73.0204 969.261 73.4004C969.831 73.7704 970.251 74.2504 970.521 74.8404C970.801 75.4304 970.941 76.0604 970.941 76.7304V77.3754H963.831V76.2954H969.891L969.561 76.8804C969.561 76.3104 969.471 75.8204 969.291 75.4104C969.111 74.9904 968.841 74.6654 968.481 74.4354C968.121 74.2054 967.666 74.0904 967.116 74.0904C966.546 74.0904 966.071 74.2204 965.691 74.4804C965.321 74.7404 965.041 75.0954 964.851 75.5454C964.671 75.9954 964.581 76.5154 964.581 77.1054C964.581 77.6754 964.671 78.1904 964.851 78.6504C965.041 79.1004 965.331 79.4604 965.721 79.7304C966.111 79.9904 966.606 80.1204 967.206 80.1204C967.836 80.1204 968.346 79.9804 968.736 79.7004C969.136 79.4204 969.376 79.0954 969.456 78.7254H970.806C970.696 79.2754 970.476 79.7504 970.146 80.1504C969.816 80.5504 969.401 80.8554 968.901 81.0654C968.401 81.2754 967.836 81.3804 967.206 81.3804ZM972.7 81.1104V79.2804H974.44V81.1104H972.7ZM972.7 75.5604V73.7304H974.44V75.5604H972.7Z" fill="#2FC7A1"/>
<path d="M931.911 127.681C931.694 127.525 931.352 127.239 930.884 126.823C930.425 126.416 929.913 125.853 929.35 125.133C928.787 124.414 928.245 123.526 927.725 122.468C927.205 121.42 926.776 120.18 926.438 118.75C926.109 117.312 925.944 115.669 925.944 113.823C925.944 111.969 926.109 110.322 926.438 108.883C926.776 107.445 927.205 106.197 927.725 105.139C928.245 104.082 928.787 103.194 929.35 102.474C929.913 101.755 930.425 101.192 930.884 100.784C931.352 100.377 931.694 100.1 931.911 99.9523L934.004 102.162C933.744 102.362 933.363 102.726 932.86 103.254C932.366 103.783 931.855 104.511 931.326 105.438C930.806 106.357 930.364 107.51 930 108.896C929.636 110.274 929.454 111.917 929.454 113.823C929.454 115.721 929.636 117.359 930 118.737C930.364 120.107 930.806 121.251 931.326 122.169C931.855 123.097 932.366 123.825 932.86 124.353C933.363 124.882 933.744 125.255 934.004 125.471L931.911 127.681ZM942.38 121.922C941.158 121.922 940.118 121.658 939.26 121.129C938.41 120.601 937.717 119.881 937.18 118.971C936.651 118.053 936.265 117 936.023 115.812C935.78 114.625 935.659 113.377 935.659 112.068C935.659 110.76 935.78 109.512 936.023 108.324C936.265 107.128 936.651 106.067 937.18 105.139C937.717 104.212 938.41 103.484 939.26 102.955C940.118 102.418 941.158 102.149 942.38 102.149C943.602 102.149 944.637 102.418 945.487 102.955C946.345 103.484 947.038 104.212 947.567 105.139C948.104 106.067 948.494 107.128 948.737 108.324C948.979 109.512 949.101 110.76 949.101 112.068C949.101 113.377 948.979 114.625 948.737 115.812C948.494 117 948.104 118.053 947.567 118.971C947.038 119.881 946.345 120.601 945.487 121.129C944.637 121.658 943.602 121.922 942.38 121.922ZM942.38 118.789C942.96 118.789 943.446 118.568 943.836 118.126C944.234 117.676 944.533 116.956 944.733 115.968C944.932 114.98 945.032 113.68 945.032 112.068C945.032 110.448 944.932 109.148 944.733 108.168C944.533 107.18 944.234 106.461 943.836 106.01C943.446 105.56 942.96 105.334 942.38 105.334C941.808 105.334 941.322 105.56 940.924 106.01C940.525 106.461 940.226 107.18 940.027 108.168C939.827 109.148 939.728 110.448 939.728 112.068C939.728 113.689 939.827 114.993 940.027 115.981C940.226 116.961 940.525 117.676 940.924 118.126C941.322 118.568 941.808 118.789 942.38 118.789ZM957.893 121.922C956.671 121.922 955.631 121.658 954.773 121.129C953.924 120.601 953.231 119.881 952.693 118.971C952.165 118.053 951.779 117 951.536 115.812C951.294 114.625 951.172 113.377 951.172 112.068C951.172 110.76 951.294 109.512 951.536 108.324C951.779 107.128 952.165 106.067 952.693 105.139C953.231 104.212 953.924 103.484 954.773 102.955C955.631 102.418 956.671 102.149 957.893 102.149C959.115 102.149 960.151 102.418 961 102.955C961.858 103.484 962.552 104.212 963.08 105.139C963.618 106.067 964.008 107.128 964.25 108.324C964.493 109.512 964.614 110.76 964.614 112.068C964.614 113.377 964.493 114.625 964.25 115.812C964.008 117 963.618 118.053 963.08 118.971C962.552 119.881 961.858 120.601 961 121.129C960.151 121.658 959.115 121.922 957.893 121.922ZM957.893 118.789C958.474 118.789 958.959 118.568 959.349 118.126C959.748 117.676 960.047 116.956 960.246 115.968C960.446 114.98 960.545 113.68 960.545 112.068C960.545 110.448 960.446 109.148 960.246 108.168C960.047 107.18 959.748 106.461 959.349 106.01C958.959 105.56 958.474 105.334 957.893 105.334C957.321 105.334 956.836 105.56 956.437 106.01C956.039 106.461 955.74 107.18 955.54 108.168C955.341 109.148 955.241 110.448 955.241 112.068C955.241 113.689 955.341 114.993 955.54 115.981C955.74 116.961 956.039 117.676 956.437 118.126C956.836 118.568 957.321 118.789 957.893 118.789ZM968.818 127.681L966.725 125.471C966.985 125.255 967.362 124.882 967.856 124.353C968.359 123.825 968.87 123.097 969.39 122.169C969.919 121.251 970.365 120.107 970.729 118.737C971.093 117.359 971.275 115.721 971.275 113.823C971.275 111.917 971.093 110.274 970.729 108.896C970.365 107.51 969.919 106.357 969.39 105.438C968.87 104.511 968.359 103.783 967.856 103.254C967.362 102.726 966.985 102.362 966.725 102.162L968.818 99.9523C969.035 100.1 969.373 100.377 969.832 100.784C970.3 101.192 970.816 101.755 971.379 102.474C971.942 103.194 972.484 104.082 973.004 105.139C973.524 106.197 973.949 107.445 974.278 108.883C974.616 110.322 974.785 111.969 974.785 113.823C974.785 115.669 974.616 117.312 974.278 118.75C973.949 120.18 973.524 121.42 973.004 122.468C972.484 123.526 971.942 124.414 971.379 125.133C970.816 125.853 970.3 126.416 969.832 126.823C969.373 127.239 969.035 127.525 968.818 127.681ZM992.1 121.922C990.601 121.922 989.34 121.667 988.317 121.155C987.295 120.635 986.523 119.938 986.003 119.062C985.483 118.187 985.223 117.212 985.223 116.137C985.223 115.158 985.414 114.343 985.795 113.693C986.185 113.043 986.658 112.541 987.212 112.185C987.776 111.821 988.304 111.592 988.798 111.496C988.382 111.401 987.927 111.189 987.433 110.859C986.948 110.53 986.536 110.062 986.198 109.455C985.86 108.84 985.691 108.06 985.691 107.115C985.691 106.127 985.964 105.261 986.51 104.515C987.065 103.77 987.823 103.189 988.785 102.773C989.756 102.357 990.861 102.149 992.1 102.149C993.34 102.149 994.44 102.357 995.402 102.773C996.364 103.189 997.123 103.77 997.677 104.515C998.232 105.261 998.509 106.127 998.509 107.115C998.509 108.051 998.336 108.827 997.989 109.442C997.651 110.058 997.24 110.53 996.754 110.859C996.269 111.189 995.814 111.401 995.389 111.496C995.892 111.592 996.421 111.821 996.975 112.185C997.53 112.541 998.002 113.043 998.392 113.693C998.782 114.343 998.977 115.158 998.977 116.137C998.977 117.212 998.713 118.187 998.184 119.062C997.664 119.938 996.893 120.635 995.87 121.155C994.856 121.667 993.6 121.922 992.1 121.922ZM992.1 118.789C992.62 118.789 993.084 118.677 993.491 118.451C993.907 118.226 994.237 117.901 994.479 117.476C994.722 117.052 994.843 116.536 994.843 115.929C994.843 115.349 994.726 114.842 994.492 114.408C994.267 113.966 993.946 113.624 993.53 113.381C993.123 113.139 992.646 113.017 992.1 113.017C991.554 113.017 991.073 113.139 990.657 113.381C990.241 113.624 989.916 113.966 989.682 114.408C989.457 114.85 989.344 115.357 989.344 115.929C989.344 116.536 989.466 117.052 989.708 117.476C989.951 117.901 990.28 118.226 990.696 118.451C991.112 118.677 991.58 118.789 992.1 118.789ZM992.1 109.988C992.863 109.988 993.47 109.772 993.92 109.338C994.38 108.896 994.609 108.316 994.609 107.596C994.609 107.076 994.497 106.647 994.271 106.309C994.055 105.963 993.756 105.707 993.374 105.542C992.993 105.378 992.568 105.295 992.1 105.295C991.632 105.295 991.208 105.378 990.826 105.542C990.445 105.707 990.142 105.963 989.916 106.309C989.7 106.647 989.591 107.076 989.591 107.596C989.591 108.316 989.817 108.896 990.267 109.338C990.727 109.772 991.338 109.988 992.1 109.988ZM1009.89 105.477V105.503H1001.53V102.435H1014.17V105.282C1013.29 105.915 1012.55 106.686 1011.92 107.596C1011.3 108.498 1010.78 109.499 1010.36 110.599C1009.95 111.7 1009.62 112.861 1009.37 114.083C1009.13 115.305 1008.96 116.553 1008.85 117.827C1008.75 119.101 1008.7 120.362 1008.7 121.61H1004.65C1004.65 120.267 1004.71 118.95 1004.81 117.658C1004.92 116.367 1005.1 115.123 1005.33 113.927C1005.57 112.731 1005.89 111.609 1006.29 110.56C1006.7 109.503 1007.2 108.545 1007.79 107.687C1008.39 106.821 1009.09 106.084 1009.89 105.477ZM1028.56 105.477H1020.97L1020.28 110.482C1020.31 110.396 1020.4 110.279 1020.55 110.131C1020.71 109.984 1020.93 109.837 1021.2 109.689C1021.49 109.533 1021.84 109.408 1022.26 109.312C1022.68 109.208 1023.17 109.156 1023.72 109.156C1025.46 109.156 1026.78 109.72 1027.68 110.846C1028.59 111.964 1029.04 113.429 1029.04 115.24C1029.04 116.688 1028.79 117.91 1028.29 118.906C1027.79 119.903 1027.06 120.657 1026.09 121.168C1025.12 121.671 1023.91 121.922 1022.46 121.922C1021.28 121.922 1020.28 121.749 1019.46 121.402C1018.65 121.047 1017.98 120.579 1017.47 119.998C1016.97 119.409 1016.6 118.759 1016.37 118.048C1016.13 117.329 1016.02 116.601 1016.02 115.864C1016.02 115.847 1016.02 115.838 1016.02 115.838C1016.02 115.83 1016.02 115.821 1016.02 115.812H1020.01C1020.01 115.821 1020.01 115.83 1020.01 115.838C1020.01 115.838 1020.01 115.847 1020.01 115.864C1020.05 116.792 1020.27 117.511 1020.66 118.022C1021.06 118.534 1021.68 118.789 1022.53 118.789C1023.07 118.789 1023.53 118.664 1023.89 118.412C1024.27 118.161 1024.54 117.78 1024.73 117.268C1024.91 116.748 1025 116.103 1025 115.331C1025 114.291 1024.82 113.485 1024.45 112.913C1024.09 112.333 1023.5 112.042 1022.7 112.042C1022.22 112.042 1021.8 112.133 1021.44 112.315C1021.08 112.497 1020.79 112.723 1020.55 112.991C1020.33 113.26 1020.17 113.524 1020.07 113.784L1016.24 112.783L1017.73 102.435H1028.56V105.477ZM1046.43 105.477V105.503H1038.07V102.435H1050.71V105.282C1049.83 105.915 1049.08 106.686 1048.46 107.596C1047.83 108.498 1047.31 109.499 1046.9 110.599C1046.48 111.7 1046.15 112.861 1045.91 114.083C1045.67 115.305 1045.49 116.553 1045.39 117.827C1045.29 119.101 1045.23 120.362 1045.23 121.61H1041.19C1041.19 120.267 1041.24 118.95 1041.35 117.658C1041.46 116.367 1041.63 115.123 1041.87 113.927C1042.11 112.731 1042.43 111.609 1042.83 110.56C1043.24 109.503 1043.74 108.545 1044.32 107.687C1044.92 106.821 1045.62 106.084 1046.43 105.477ZM1059.72 121.922C1058.22 121.922 1056.96 121.667 1055.93 121.155C1054.91 120.635 1054.14 119.938 1053.62 119.062C1053.1 118.187 1052.84 117.212 1052.84 116.137C1052.84 115.158 1053.03 114.343 1053.41 113.693C1053.8 113.043 1054.27 112.541 1054.83 112.185C1055.39 111.821 1055.92 111.592 1056.41 111.496C1056 111.401 1055.54 111.189 1055.05 110.859C1054.56 110.53 1054.15 110.062 1053.81 109.455C1053.48 108.84 1053.31 108.06 1053.31 107.115C1053.31 106.127 1053.58 105.261 1054.13 104.515C1054.68 103.77 1055.44 103.189 1056.4 102.773C1057.37 102.357 1058.48 102.149 1059.72 102.149C1060.95 102.149 1062.06 102.357 1063.02 102.773C1063.98 103.189 1064.74 103.77 1065.29 104.515C1065.85 105.261 1066.12 106.127 1066.12 107.115C1066.12 108.051 1065.95 108.827 1065.6 109.442C1065.27 110.058 1064.85 110.53 1064.37 110.859C1063.88 111.189 1063.43 111.401 1063 111.496C1063.51 111.592 1064.04 111.821 1064.59 112.185C1065.15 112.541 1065.62 113.043 1066.01 113.693C1066.4 114.343 1066.59 115.158 1066.59 116.137C1066.59 117.212 1066.33 118.187 1065.8 119.062C1065.28 119.938 1064.51 120.635 1063.49 121.155C1062.47 121.667 1061.21 121.922 1059.72 121.922ZM1059.72 118.789C1060.24 118.789 1060.7 118.677 1061.11 118.451C1061.52 118.226 1061.85 117.901 1062.09 117.476C1062.34 117.052 1062.46 116.536 1062.46 115.929C1062.46 115.349 1062.34 114.842 1062.11 114.408C1061.88 113.966 1061.56 113.624 1061.15 113.381C1060.74 113.139 1060.26 113.017 1059.72 113.017C1059.17 113.017 1058.69 113.139 1058.27 113.381C1057.86 113.624 1057.53 113.966 1057.3 114.408C1057.07 114.85 1056.96 115.357 1056.96 115.929C1056.96 116.536 1057.08 117.052 1057.32 117.476C1057.57 117.901 1057.9 118.226 1058.31 118.451C1058.73 118.677 1059.2 118.789 1059.72 118.789ZM1059.72 109.988C1060.48 109.988 1061.08 109.772 1061.54 109.338C1061.99 108.896 1062.22 108.316 1062.22 107.596C1062.22 107.076 1062.11 106.647 1061.89 106.309C1061.67 105.963 1061.37 105.707 1060.99 105.542C1060.61 105.378 1060.18 105.295 1059.72 105.295C1059.25 105.295 1058.82 105.378 1058.44 105.542C1058.06 105.707 1057.76 105.963 1057.53 106.309C1057.31 106.647 1057.21 107.076 1057.21 107.596C1057.21 108.316 1057.43 108.896 1057.88 109.338C1058.34 109.772 1058.95 109.988 1059.72 109.988ZM1076.82 121.61V117.931H1068.71V115.136L1075.55 102.409H1080.76V114.889H1083.05V117.931H1080.76V121.61H1076.82ZM1071.74 116.618L1070.66 114.889H1076.82V104.983L1077.64 105.204L1071.74 116.618ZM1104.3 105.477H1096.71L1096.02 110.482C1096.05 110.396 1096.14 110.279 1096.29 110.131C1096.45 109.984 1096.67 109.837 1096.94 109.689C1097.23 109.533 1097.58 109.408 1098 109.312C1098.42 109.208 1098.91 109.156 1099.46 109.156C1101.2 109.156 1102.52 109.72 1103.42 110.846C1104.33 111.964 1104.78 113.429 1104.78 115.24C1104.78 116.688 1104.53 117.91 1104.03 118.906C1103.53 119.903 1102.8 120.657 1101.83 121.168C1100.86 121.671 1099.65 121.922 1098.2 121.922C1097.03 121.922 1096.02 121.749 1095.2 121.402C1094.39 121.047 1093.72 120.579 1093.21 119.998C1092.71 119.409 1092.34 118.759 1092.11 118.048C1091.87 117.329 1091.76 116.601 1091.76 115.864C1091.76 115.847 1091.76 115.838 1091.76 115.838C1091.76 115.83 1091.76 115.821 1091.76 115.812H1095.75C1095.75 115.821 1095.75 115.83 1095.75 115.838C1095.75 115.838 1095.75 115.847 1095.75 115.864C1095.79 116.792 1096.01 117.511 1096.4 118.022C1096.8 118.534 1097.42 118.789 1098.27 118.789C1098.81 118.789 1099.27 118.664 1099.63 118.412C1100.01 118.161 1100.28 117.78 1100.47 117.268C1100.65 116.748 1100.74 116.103 1100.74 115.331C1100.74 114.291 1100.56 113.485 1100.19 112.913C1099.83 112.333 1099.24 112.042 1098.44 112.042C1097.96 112.042 1097.54 112.133 1097.18 112.315C1096.82 112.497 1096.53 112.723 1096.29 112.991C1096.07 113.26 1095.91 113.524 1095.81 113.784L1091.98 112.783L1093.47 102.435H1104.3V105.477ZM1114.45 121.922C1112.91 121.922 1111.66 121.554 1110.69 120.817C1109.72 120.072 1109.01 119.015 1108.55 117.645C1108.1 116.276 1107.87 114.655 1107.87 112.783C1107.87 111.076 1108.02 109.564 1108.31 108.246C1108.61 106.92 1109.04 105.807 1109.61 104.905C1110.19 104.004 1110.9 103.319 1111.74 102.851C1112.59 102.383 1113.55 102.149 1114.64 102.149C1115.81 102.149 1116.77 102.349 1117.52 102.747C1118.27 103.137 1118.86 103.631 1119.27 104.229C1119.7 104.819 1119.99 105.421 1120.16 106.036C1120.33 106.643 1120.42 107.159 1120.42 107.583C1120.42 107.609 1120.42 107.627 1120.42 107.635C1120.42 107.644 1120.42 107.657 1120.42 107.674H1116.66C1116.66 107.657 1116.66 107.644 1116.66 107.635C1116.66 107.627 1116.66 107.609 1116.66 107.583C1116.66 107.367 1116.63 107.128 1116.57 106.868C1116.52 106.6 1116.42 106.344 1116.27 106.101C1116.13 105.859 1115.93 105.659 1115.66 105.503C1115.39 105.347 1115.05 105.269 1114.63 105.269C1114.02 105.269 1113.5 105.542 1113.08 106.088C1112.67 106.626 1112.36 107.449 1112.15 108.558C1111.94 109.659 1111.84 111.067 1111.84 112.783L1111.09 112.796C1111.12 112.242 1111.31 111.713 1111.67 111.21C1112.02 110.699 1112.53 110.283 1113.2 109.962C1113.88 109.633 1114.7 109.468 1115.66 109.468C1116.85 109.468 1117.84 109.737 1118.63 110.274C1119.44 110.803 1120.04 111.509 1120.44 112.393C1120.84 113.277 1121.04 114.252 1121.04 115.318C1121.04 116.584 1120.79 117.715 1120.3 118.711C1119.81 119.708 1119.08 120.492 1118.1 121.064C1117.12 121.636 1115.9 121.922 1114.45 121.922ZM1114.5 118.789C1115.06 118.789 1115.51 118.668 1115.88 118.425C1116.24 118.183 1116.52 117.823 1116.7 117.346C1116.89 116.87 1116.98 116.285 1116.98 115.591C1116.98 114.915 1116.89 114.339 1116.7 113.862C1116.52 113.377 1116.25 113.004 1115.9 112.744C1115.56 112.484 1115.14 112.354 1114.64 112.354C1114.13 112.354 1113.68 112.476 1113.29 112.718C1112.9 112.961 1112.59 113.312 1112.37 113.771C1112.15 114.222 1112.04 114.777 1112.04 115.435C1112.04 116.094 1112.14 116.675 1112.34 117.177C1112.55 117.68 1112.84 118.074 1113.2 118.36C1113.57 118.646 1114.01 118.789 1114.5 118.789ZM1131.16 121.922C1129.67 121.922 1128.4 121.667 1127.38 121.155C1126.36 120.635 1125.59 119.938 1125.07 119.062C1124.55 118.187 1124.29 117.212 1124.29 116.137C1124.29 115.158 1124.48 114.343 1124.86 113.693C1125.25 113.043 1125.72 112.541 1126.28 112.185C1126.84 111.821 1127.37 111.592 1127.86 111.496C1127.45 111.401 1126.99 111.189 1126.5 110.859C1126.01 110.53 1125.6 110.062 1125.26 109.455C1124.92 108.84 1124.76 108.06 1124.76 107.115C1124.76 106.127 1125.03 105.261 1125.57 104.515C1126.13 103.77 1126.89 103.189 1127.85 102.773C1128.82 102.357 1129.93 102.149 1131.16 102.149C1132.4 102.149 1133.5 102.357 1134.47 102.773C1135.43 103.189 1136.19 103.77 1136.74 104.515C1137.3 105.261 1137.57 106.127 1137.57 107.115C1137.57 108.051 1137.4 108.827 1137.05 109.442C1136.72 110.058 1136.3 110.53 1135.82 110.859C1135.33 111.189 1134.88 111.401 1134.45 111.496C1134.96 111.592 1135.49 111.821 1136.04 112.185C1136.59 112.541 1137.07 113.043 1137.46 113.693C1137.85 114.343 1138.04 115.158 1138.04 116.137C1138.04 117.212 1137.78 118.187 1137.25 119.062C1136.73 119.938 1135.96 120.635 1134.93 121.155C1133.92 121.667 1132.66 121.922 1131.16 121.922ZM1131.16 118.789C1131.68 118.789 1132.15 118.677 1132.56 118.451C1132.97 118.226 1133.3 117.901 1133.54 117.476C1133.79 117.052 1133.91 116.536 1133.91 115.929C1133.91 115.349 1133.79 114.842 1133.56 114.408C1133.33 113.966 1133.01 113.624 1132.59 113.381C1132.19 113.139 1131.71 113.017 1131.16 113.017C1130.62 113.017 1130.14 113.139 1129.72 113.381C1129.31 113.624 1128.98 113.966 1128.75 114.408C1128.52 114.85 1128.41 115.357 1128.41 115.929C1128.41 116.536 1128.53 117.052 1128.77 117.476C1129.02 117.901 1129.34 118.226 1129.76 118.451C1130.18 118.677 1130.64 118.789 1131.16 118.789ZM1131.16 109.988C1131.93 109.988 1132.53 109.772 1132.98 109.338C1133.44 108.896 1133.67 108.316 1133.67 107.596C1133.67 107.076 1133.56 106.647 1133.34 106.309C1133.12 105.963 1132.82 105.707 1132.44 105.542C1132.06 105.378 1131.63 105.295 1131.16 105.295C1130.7 105.295 1130.27 105.378 1129.89 105.542C1129.51 105.707 1129.21 105.963 1128.98 106.309C1128.76 106.647 1128.66 107.076 1128.66 107.596C1128.66 108.316 1128.88 108.896 1129.33 109.338C1129.79 109.772 1130.4 109.988 1131.16 109.988Z" fill="white"/>
<rect x="1226" y="0.610352" width="1" height="192" stroke="white" stroke-opacity="0.3"/>
<rect x="1306.8" y="61.6104" width="70" height="70" rx="35" fill="white" fill-opacity="0.05"/>
<rect x="1307.3" y="62.1104" width="69" height="69" rx="34.5" stroke="#F4F4F4" stroke-opacity="0.5"/>
<path d="M1353.91 93.0615C1354.01 92.9639 1354.11 92.9476 1354.2 93.0127C1354.33 93.0778 1354.4 93.1755 1354.4 93.3057V103.267C1354.4 103.918 1354.17 104.471 1353.72 104.927C1353.26 105.382 1352.71 105.61 1352.06 105.61H1331.74C1331.09 105.61 1330.54 105.382 1330.08 104.927C1329.63 104.471 1329.4 103.918 1329.4 103.267V93.3057C1329.4 93.1755 1329.45 93.0941 1329.55 93.0615C1329.68 92.9964 1329.79 92.9964 1329.89 93.0615C1330.96 93.8753 1333.47 95.7145 1337.41 98.5791C1337.47 98.6442 1337.68 98.8232 1338.04 99.1162C1338.43 99.4092 1338.74 99.637 1338.97 99.7998C1339.2 99.93 1339.49 100.109 1339.85 100.337C1340.21 100.532 1340.55 100.679 1340.87 100.776C1341.23 100.874 1341.57 100.923 1341.9 100.923C1342.19 100.923 1342.49 100.89 1342.78 100.825C1343.07 100.728 1343.35 100.63 1343.61 100.532C1343.87 100.402 1344.15 100.239 1344.44 100.044C1344.73 99.8486 1344.98 99.6859 1345.17 99.5557C1345.37 99.3929 1345.59 99.2139 1345.86 99.0186C1346.12 98.8232 1346.29 98.6768 1346.39 98.5791C1350.23 95.8122 1352.74 93.973 1353.91 93.0615ZM1341.9 99.3604C1341.64 99.3604 1341.31 99.279 1340.92 99.1162C1340.57 98.9209 1340.27 98.7581 1340.04 98.6279C1339.82 98.4652 1339.47 98.221 1339.02 97.8955C1338.6 97.5374 1338.37 97.3584 1338.34 97.3584C1334.36 94.4613 1331.53 92.3617 1329.84 91.0596C1329.55 90.8317 1329.4 90.5225 1329.4 90.1318V89.2041C1329.4 88.5531 1329.63 87.9997 1330.08 87.5439C1330.54 87.0882 1331.09 86.8604 1331.74 86.8604H1352.06C1352.71 86.8604 1353.26 87.0882 1353.72 87.5439C1354.17 87.9997 1354.4 88.5531 1354.4 89.2041V90.1318C1354.4 90.5225 1354.25 90.8317 1353.96 91.0596C1352.37 92.2965 1349.53 94.3962 1345.46 97.3584C1345.43 97.3584 1345.19 97.5374 1344.73 97.8955C1344.31 98.221 1343.98 98.4652 1343.76 98.6279C1343.53 98.7581 1343.22 98.9209 1342.83 99.1162C1342.47 99.279 1342.16 99.3604 1341.9 99.3604Z" fill="white"/>
<path d="M1408.39 81.1104V70.1604H1409.86V81.1104H1408.39ZM1409.56 81.1104V79.7904H1414.87V81.1104H1409.56ZM1409.56 76.2054V74.8854H1414.41V76.2054H1409.56ZM1409.56 71.4804V70.1604H1414.72V71.4804H1409.56ZM1417.17 81.1104V73.1004H1418.31V76.5354H1418.13C1418.13 75.7554 1418.23 75.0954 1418.43 74.5554C1418.64 74.0054 1418.95 73.5854 1419.36 73.2954C1419.77 73.0054 1420.29 72.8604 1420.92 72.8604H1420.98C1421.61 72.8604 1422.13 73.0054 1422.54 73.2954C1422.96 73.5854 1423.27 74.0054 1423.47 74.5554C1423.67 75.0954 1423.77 75.7554 1423.77 76.5354H1423.35C1423.35 75.7554 1423.46 75.0954 1423.67 74.5554C1423.88 74.0054 1424.19 73.5854 1424.6 73.2954C1425.02 73.0054 1425.54 72.8604 1426.17 72.8604H1426.23C1426.86 72.8604 1427.39 73.0054 1427.81 73.2954C1428.23 73.5854 1428.54 74.0054 1428.74 74.5554C1428.95 75.0954 1429.05 75.7554 1429.05 76.5354V81.1104H1427.61V76.2204C1427.61 75.5704 1427.45 75.0704 1427.13 74.7204C1426.81 74.3604 1426.37 74.1804 1425.8 74.1804C1425.21 74.1804 1424.73 74.3704 1424.37 74.7504C1424.01 75.1204 1423.83 75.6404 1423.83 76.3104V81.1104H1422.39V76.2204C1422.39 75.5704 1422.23 75.0704 1421.91 74.7204C1421.59 74.3604 1421.15 74.1804 1420.58 74.1804C1419.99 74.1804 1419.51 74.3704 1419.15 74.7504C1418.79 75.1204 1418.61 75.6404 1418.61 76.3104V81.1104H1417.17ZM1436.54 81.1104V78.7104H1436.3V75.9354C1436.3 75.3854 1436.15 74.9704 1435.86 74.6904C1435.58 74.4104 1435.17 74.2704 1434.62 74.2704C1434.31 74.2704 1433.99 74.2754 1433.66 74.2854C1433.33 74.2954 1433.01 74.3054 1432.71 74.3154C1432.41 74.3254 1432.15 74.3404 1431.93 74.3604V73.1004C1432.15 73.0804 1432.38 73.0654 1432.62 73.0554C1432.87 73.0354 1433.13 73.0254 1433.39 73.0254C1433.65 73.0154 1433.9 73.0104 1434.14 73.0104C1434.96 73.0104 1435.63 73.1104 1436.15 73.3104C1436.67 73.5004 1437.05 73.8154 1437.3 74.2554C1437.55 74.6954 1437.68 75.2904 1437.68 76.0404V81.1104H1436.54ZM1433.91 81.3204C1433.31 81.3204 1432.79 81.2204 1432.35 81.0204C1431.92 80.8104 1431.59 80.5104 1431.35 80.1204C1431.12 79.7304 1431 79.2604 1431 78.7104C1431 78.1404 1431.13 77.6654 1431.38 77.2854C1431.64 76.9054 1432.01 76.6204 1432.5 76.4304C1432.99 76.2304 1433.58 76.1304 1434.27 76.1304H1436.45V77.2104H1434.21C1433.63 77.2104 1433.19 77.3504 1432.88 77.6304C1432.57 77.9104 1432.41 78.2704 1432.41 78.7104C1432.41 79.1504 1432.57 79.5054 1432.88 79.7754C1433.19 80.0454 1433.63 80.1804 1434.21 80.1804C1434.55 80.1804 1434.88 80.1204 1435.19 80.0004C1435.5 79.8704 1435.75 79.6604 1435.95 79.3704C1436.16 79.0704 1436.28 78.6604 1436.3 78.1404L1436.69 78.7104C1436.64 79.2804 1436.5 79.7604 1436.27 80.1504C1436.05 80.5304 1435.74 80.8204 1435.34 81.0204C1434.95 81.2204 1434.47 81.3204 1433.91 81.3204ZM1440.71 81.1104V73.1004H1442.15V81.1104H1440.71ZM1439.48 74.2404V73.1004H1442.15V74.2404H1439.48ZM1441.11 71.8104C1440.79 71.8104 1440.55 71.7254 1440.39 71.5554C1440.24 71.3854 1440.17 71.1704 1440.17 70.9104C1440.17 70.6504 1440.24 70.4354 1440.39 70.2654C1440.55 70.0954 1440.79 70.0104 1441.11 70.0104C1441.43 70.0104 1441.67 70.0954 1441.82 70.2654C1441.98 70.4354 1442.06 70.6504 1442.06 70.9104C1442.06 71.1704 1441.98 71.3854 1441.82 71.5554C1441.67 71.7254 1441.43 71.8104 1441.11 71.8104ZM1445.02 81.1104V70.1604H1446.46V81.1104H1445.02ZM1443.91 71.3004V70.1604H1446.46V71.3004H1443.91ZM1448.94 81.1104V79.2804H1450.68V81.1104H1448.94ZM1448.94 75.5604V73.7304H1450.68V75.5604H1448.94Z" fill="#2FC7A1"/>
<path d="M1408.22 121.61V107.804H1412.21V121.61H1408.22ZM1410.21 105.555C1409.58 105.555 1409.04 105.391 1408.57 105.061C1408.11 104.732 1407.88 104.268 1407.88 103.67C1407.88 103.064 1408.11 102.596 1408.57 102.266C1409.04 101.937 1409.58 101.772 1410.21 101.772C1410.84 101.772 1411.38 101.937 1411.84 102.266C1412.31 102.596 1412.55 103.064 1412.55 103.67C1412.55 104.277 1412.31 104.745 1411.84 105.074C1411.38 105.395 1410.84 105.555 1410.21 105.555ZM1424.9 121.61V115.747C1424.9 115.418 1424.9 115.119 1424.9 114.85C1424.9 114.582 1424.9 114.339 1424.9 114.122C1424.9 113.55 1424.83 113.03 1424.68 112.562C1424.53 112.086 1424.27 111.704 1423.89 111.418C1423.51 111.132 1422.96 110.989 1422.24 110.989C1421.61 110.989 1421.07 111.132 1420.61 111.418C1420.16 111.704 1419.81 112.103 1419.57 112.614C1419.33 113.126 1419.21 113.715 1419.21 114.382L1418.09 113.576C1418.09 112.38 1418.35 111.332 1418.87 110.43C1419.39 109.529 1420.09 108.823 1420.98 108.311C1421.87 107.8 1422.86 107.544 1423.94 107.544C1425.08 107.544 1426.01 107.774 1426.73 108.233C1427.47 108.684 1428.02 109.317 1428.37 110.131C1428.74 110.937 1428.92 111.882 1428.92 112.965C1428.92 113.407 1428.92 113.901 1428.92 114.447C1428.92 114.993 1428.92 115.552 1428.92 116.124V121.61H1424.9ZM1415.18 121.61V107.804H1419.21V121.61H1415.18ZM1433.61 121.61V110.924H1430.74V107.804H1433.61V106.855C1433.61 105.937 1433.73 105.152 1433.98 104.502C1434.23 103.844 1434.57 103.298 1434.99 102.864C1435.42 102.422 1435.89 102.076 1436.42 101.824C1436.96 101.564 1437.51 101.382 1438.07 101.278C1438.64 101.166 1439.2 101.109 1439.74 101.109C1440.31 101.109 1440.73 101.144 1441.01 101.213C1441.3 101.274 1441.49 101.326 1441.58 101.369V104.502C1441.48 104.468 1441.29 104.429 1441.02 104.385C1440.76 104.342 1440.48 104.32 1440.18 104.32C1439.67 104.32 1439.26 104.385 1438.93 104.515C1438.6 104.645 1438.34 104.836 1438.15 105.087C1437.96 105.33 1437.82 105.62 1437.75 105.958C1437.67 106.288 1437.63 106.647 1437.63 107.037V107.804H1441.33V110.924H1437.63V121.61H1433.61ZM1449.77 121.909C1448.28 121.909 1446.97 121.602 1445.83 120.986C1444.7 120.371 1443.81 119.526 1443.17 118.451C1442.53 117.368 1442.22 116.12 1442.22 114.707C1442.22 113.303 1442.53 112.064 1443.17 110.989C1443.81 109.906 1444.7 109.065 1445.83 108.467C1446.97 107.861 1448.28 107.557 1449.77 107.557C1451.26 107.557 1452.57 107.861 1453.71 108.467C1454.84 109.065 1455.73 109.906 1456.36 110.989C1457 112.064 1457.32 113.303 1457.32 114.707C1457.32 116.12 1457 117.368 1456.36 118.451C1455.73 119.526 1454.84 120.371 1453.71 120.986C1452.57 121.602 1451.26 121.909 1449.77 121.909ZM1449.77 118.711C1450.47 118.711 1451.08 118.547 1451.6 118.217C1452.12 117.888 1452.53 117.424 1452.81 116.826C1453.1 116.22 1453.24 115.513 1453.24 114.707C1453.24 113.901 1453.1 113.204 1452.81 112.614C1452.53 112.016 1452.12 111.557 1451.6 111.236C1451.08 110.916 1450.47 110.755 1449.77 110.755C1449.08 110.755 1448.47 110.916 1447.94 111.236C1447.42 111.557 1447.01 112.016 1446.73 112.614C1446.44 113.204 1446.3 113.901 1446.3 114.707C1446.3 115.513 1446.44 116.22 1446.73 116.826C1447.01 117.424 1447.42 117.888 1447.94 118.217C1448.47 118.547 1449.08 118.711 1449.77 118.711ZM1478.9 120.206C1478.32 120.536 1477.54 120.826 1476.56 121.077C1475.58 121.329 1474.49 121.524 1473.29 121.662C1472.1 121.81 1470.89 121.883 1469.68 121.883C1467.54 121.883 1465.68 121.558 1464.1 120.908C1462.54 120.25 1461.32 119.279 1460.45 117.996C1459.59 116.714 1459.16 115.132 1459.16 113.251C1459.16 111.605 1459.49 110.105 1460.14 108.753C1460.8 107.393 1461.71 106.223 1462.87 105.243C1464.04 104.255 1465.4 103.493 1466.96 102.955C1468.53 102.418 1470.24 102.149 1472.07 102.149C1473.78 102.149 1475.27 102.366 1476.53 102.799C1477.81 103.233 1478.86 103.822 1479.69 104.567C1480.53 105.304 1481.16 106.14 1481.58 107.076C1482 108.012 1482.21 108.979 1482.21 109.975C1482.21 111.076 1482.02 112.094 1481.64 113.03C1481.27 113.958 1480.73 114.768 1480.03 115.461C1479.33 116.155 1478.49 116.696 1477.52 117.086C1476.56 117.468 1475.49 117.658 1474.31 117.658C1473.95 117.658 1473.6 117.619 1473.24 117.541C1472.9 117.455 1472.61 117.312 1472.37 117.112C1472.14 116.904 1472.02 116.614 1472.01 116.241C1472.01 116.233 1472.01 116.22 1472.01 116.202C1472.01 116.185 1472.01 116.172 1472.01 116.163C1471.83 116.553 1471.48 116.887 1470.98 117.164C1470.49 117.442 1469.88 117.58 1469.15 117.58C1468.17 117.58 1467.37 117.39 1466.74 117.008C1466.13 116.618 1465.67 116.09 1465.36 115.422C1465.07 114.746 1464.92 113.984 1464.92 113.134C1464.92 111.895 1465.17 110.79 1465.68 109.819C1466.19 108.84 1466.89 108.069 1467.77 107.505C1468.66 106.942 1469.68 106.66 1470.82 106.66C1471.55 106.66 1472.14 106.79 1472.58 107.05C1473.03 107.31 1473.26 107.605 1473.26 107.934L1473.53 106.946H1476.21L1474.37 114.304C1474.37 114.365 1474.35 114.439 1474.33 114.525C1474.33 114.603 1474.32 114.655 1474.32 114.681C1474.32 115.011 1474.4 115.245 1474.56 115.383C1474.71 115.522 1474.94 115.591 1475.24 115.591C1476 115.591 1476.64 115.435 1477.16 115.123C1477.68 114.803 1478.1 114.374 1478.42 113.836C1478.74 113.299 1478.97 112.697 1479.12 112.029C1479.27 111.353 1479.34 110.66 1479.34 109.949C1479.34 108.788 1479.05 107.778 1478.48 106.92C1477.92 106.054 1477.08 105.382 1475.97 104.905C1474.86 104.42 1473.5 104.177 1471.89 104.177C1470.41 104.177 1469.07 104.398 1467.86 104.84C1466.66 105.274 1465.62 105.893 1464.74 106.699C1463.87 107.505 1463.21 108.467 1462.74 109.585C1462.28 110.703 1462.05 111.943 1462.05 113.303C1462.05 114.82 1462.38 116.064 1463.04 117.034C1463.71 118.005 1464.62 118.72 1465.78 119.179C1466.95 119.639 1468.29 119.868 1469.8 119.868C1470.76 119.868 1471.72 119.808 1472.68 119.686C1473.65 119.565 1474.56 119.396 1475.39 119.179C1476.22 118.963 1476.91 118.724 1477.45 118.464L1478.9 120.206ZM1469.58 115.565C1470.14 115.565 1470.57 115.457 1470.88 115.24C1471.19 115.015 1471.4 114.712 1471.51 114.33C1471.52 114.287 1471.56 114.144 1471.62 113.901C1471.68 113.659 1471.75 113.36 1471.84 113.004C1471.93 112.64 1472.03 112.272 1472.11 111.899C1472.21 111.527 1472.29 111.189 1472.37 110.885C1472.45 110.573 1472.51 110.344 1472.54 110.196C1472.58 109.997 1472.61 109.841 1472.61 109.728C1472.61 109.46 1472.52 109.208 1472.35 108.974C1472.18 108.732 1471.82 108.61 1471.25 108.61C1470.56 108.61 1469.95 108.831 1469.43 109.273C1468.92 109.715 1468.52 110.292 1468.24 111.002C1467.96 111.713 1467.82 112.467 1467.82 113.264C1467.82 113.992 1467.97 114.56 1468.28 114.967C1468.58 115.366 1469.01 115.565 1469.58 115.565ZM1495.14 119.972C1495.99 120.059 1496.73 120.224 1497.36 120.466C1498 120.7 1498.5 121.051 1498.86 121.519C1499.21 121.979 1499.39 122.594 1499.39 123.365C1499.39 124.258 1499.1 125.016 1498.51 125.64C1497.93 126.273 1497.07 126.754 1495.95 127.083C1494.82 127.413 1493.45 127.577 1491.85 127.577C1489.49 127.577 1487.65 127.235 1486.35 126.55C1485.06 125.874 1484.42 124.969 1484.42 123.833C1484.42 123.513 1484.45 123.222 1484.52 122.962C1484.6 122.711 1484.69 122.494 1484.81 122.312L1488.47 122.845C1488.43 122.906 1488.38 122.997 1488.33 123.118C1488.28 123.248 1488.26 123.409 1488.26 123.599C1488.26 124.059 1488.61 124.401 1489.29 124.626C1489.98 124.852 1490.88 124.964 1491.97 124.964C1492.74 124.964 1493.4 124.908 1493.94 124.795C1494.5 124.691 1494.92 124.535 1495.21 124.327C1495.5 124.119 1495.65 123.881 1495.65 123.612C1495.65 123.222 1495.46 122.967 1495.08 122.845C1494.7 122.724 1494.27 122.637 1493.78 122.585L1488.55 122.052C1487.59 121.957 1486.79 121.68 1486.16 121.22C1485.52 120.761 1485.21 120.141 1485.21 119.361C1485.21 118.876 1485.34 118.434 1485.61 118.035C1485.88 117.628 1486.19 117.294 1486.53 117.034C1486.88 116.766 1487.17 116.597 1487.41 116.527L1489.46 117.567C1489.29 117.593 1489.1 117.697 1488.87 117.879C1488.66 118.061 1488.55 118.274 1488.55 118.516C1488.55 118.759 1488.67 118.967 1488.91 119.14C1489.16 119.314 1489.62 119.431 1490.28 119.491L1495.14 119.972ZM1496.51 107.804H1500.05L1498.61 113.108C1498.34 114.114 1497.94 115.011 1497.42 115.799C1496.89 116.579 1496.18 117.195 1495.3 117.645C1494.42 118.096 1493.32 118.321 1491.98 118.321C1490.58 118.321 1489.36 118.105 1488.33 117.671C1487.31 117.238 1486.52 116.627 1485.96 115.838C1485.41 115.041 1485.13 114.101 1485.13 113.017C1485.13 111.934 1485.41 110.981 1485.98 110.157C1486.55 109.334 1487.32 108.693 1488.3 108.233C1489.29 107.774 1490.41 107.544 1491.66 107.544C1492.6 107.544 1493.46 107.7 1494.24 108.012C1495.03 108.316 1495.66 108.719 1496.14 109.221C1496.63 109.724 1496.88 110.279 1496.9 110.885L1496.15 111.08L1496.51 107.804ZM1491.96 115.37C1492.53 115.37 1493.03 115.279 1493.46 115.097C1493.9 114.907 1494.23 114.634 1494.48 114.278C1494.72 113.914 1494.84 113.477 1494.84 112.965C1494.84 112.463 1494.72 112.034 1494.48 111.678C1494.23 111.323 1493.9 111.05 1493.46 110.859C1493.03 110.669 1492.53 110.573 1491.96 110.573C1491.41 110.573 1490.92 110.673 1490.47 110.872C1490.04 111.063 1489.7 111.34 1489.45 111.704C1489.19 112.06 1489.07 112.493 1489.07 113.004C1489.07 113.507 1489.19 113.936 1489.43 114.291C1489.68 114.638 1490.01 114.907 1490.45 115.097C1490.88 115.279 1491.38 115.37 1491.96 115.37ZM1510.63 121.61V116.267C1510.63 115.756 1510.63 115.314 1510.63 114.941C1510.63 114.56 1510.63 114.244 1510.63 113.992C1510.63 113.637 1510.61 113.286 1510.57 112.939C1510.53 112.593 1510.45 112.272 1510.31 111.977C1510.18 111.674 1509.97 111.436 1509.7 111.262C1509.42 111.08 1509.04 110.989 1508.57 110.989C1508.12 110.989 1507.74 111.085 1507.42 111.275C1507.1 111.457 1506.84 111.713 1506.63 112.042C1506.43 112.363 1506.28 112.736 1506.19 113.16C1506.09 113.576 1506.04 114.014 1506.04 114.473L1504.94 113.563C1504.94 112.393 1505.15 111.358 1505.58 110.456C1506 109.546 1506.6 108.836 1507.38 108.324C1508.17 107.804 1509.1 107.544 1510.18 107.544C1511.33 107.544 1512.23 107.791 1512.87 108.285C1513.52 108.771 1513.97 109.421 1514.23 110.235C1514.5 111.041 1514.64 111.934 1514.64 112.913C1514.64 113.286 1514.64 113.789 1514.64 114.421C1514.64 115.054 1514.64 115.812 1514.64 116.696V121.61H1510.63ZM1502.01 121.61V107.804H1506.04V121.61H1502.01ZM1519.21 121.61V116.28C1519.21 115.752 1519.21 115.297 1519.21 114.915C1519.21 114.534 1519.21 114.218 1519.21 113.966C1519.21 113.585 1519.19 113.221 1519.15 112.874C1519.1 112.519 1519.01 112.198 1518.87 111.912C1518.74 111.626 1518.53 111.401 1518.25 111.236C1517.97 111.072 1517.6 110.989 1517.12 110.989C1516.68 110.989 1516.3 111.085 1515.98 111.275C1515.66 111.457 1515.41 111.709 1515.21 112.029C1515.01 112.35 1514.86 112.714 1514.77 113.121C1514.68 113.529 1514.64 113.953 1514.64 114.395L1513.53 113.498C1513.53 112.346 1513.74 111.323 1514.16 110.43C1514.58 109.538 1515.18 108.836 1515.95 108.324C1516.73 107.804 1517.66 107.544 1518.74 107.544C1519.87 107.544 1520.76 107.783 1521.41 108.259C1522.07 108.736 1522.54 109.373 1522.81 110.17C1523.1 110.959 1523.24 111.843 1523.24 112.822C1523.24 113.212 1523.24 113.715 1523.24 114.33C1523.24 114.946 1523.24 115.695 1523.24 116.579V121.61H1519.21ZM1530.94 121.896C1529.94 121.896 1529.04 121.736 1528.25 121.415C1527.47 121.095 1526.86 120.631 1526.42 120.024C1525.98 119.418 1525.75 118.681 1525.75 117.814C1525.75 116.835 1526.02 116.038 1526.56 115.422C1527.1 114.807 1527.81 114.339 1528.69 114.018C1529.59 113.689 1530.55 113.472 1531.59 113.368C1533.11 113.221 1534.15 113.087 1534.72 112.965C1535.31 112.844 1535.6 112.632 1535.6 112.328C1535.6 112.32 1535.6 112.311 1535.6 112.302C1535.6 111.791 1535.35 111.388 1534.85 111.093C1534.37 110.799 1533.69 110.651 1532.81 110.651C1531.89 110.651 1531.18 110.82 1530.68 111.158C1530.2 111.488 1529.95 111.995 1529.95 112.679H1525.99C1525.99 111.57 1526.29 110.634 1526.89 109.871C1527.49 109.109 1528.31 108.532 1529.34 108.142C1530.37 107.744 1531.54 107.544 1532.84 107.544C1534.05 107.544 1535.18 107.731 1536.21 108.103C1537.24 108.467 1538.07 109.018 1538.69 109.754C1539.32 110.491 1539.64 111.427 1539.64 112.562C1539.64 112.744 1539.64 112.926 1539.64 113.108C1539.64 113.282 1539.64 113.459 1539.64 113.641V118.529C1539.64 118.885 1539.65 119.227 1539.66 119.556C1539.69 119.877 1539.74 120.172 1539.82 120.44C1539.91 120.744 1540.02 120.995 1540.15 121.194C1540.28 121.394 1540.38 121.532 1540.47 121.61H1536.51C1536.45 121.55 1536.35 121.424 1536.22 121.233C1536.1 121.043 1535.99 120.822 1535.91 120.57C1535.8 120.267 1535.73 119.964 1535.67 119.66C1535.63 119.348 1535.61 118.984 1535.61 118.568L1536.44 119.14C1536.2 119.712 1535.8 120.206 1535.26 120.622C1534.72 121.03 1534.08 121.346 1533.33 121.571C1532.6 121.788 1531.8 121.896 1530.94 121.896ZM1532.02 118.88C1532.65 118.88 1533.24 118.768 1533.79 118.542C1534.34 118.308 1534.79 117.944 1535.14 117.45C1535.49 116.956 1535.66 116.311 1535.66 115.513V114.122L1536.66 115.097C1536.09 115.305 1535.43 115.479 1534.67 115.617C1533.93 115.747 1533.18 115.851 1532.44 115.929C1531.55 116.016 1530.89 116.168 1530.45 116.384C1530.01 116.592 1529.8 116.948 1529.8 117.45C1529.8 117.927 1529.98 118.287 1530.36 118.529C1530.73 118.763 1531.28 118.88 1532.02 118.88ZM1542.43 121.61V107.804H1546.42V121.61H1542.43ZM1544.42 105.555C1543.8 105.555 1543.25 105.391 1542.78 105.061C1542.32 104.732 1542.09 104.268 1542.09 103.67C1542.09 103.064 1542.32 102.596 1542.78 102.266C1543.25 101.937 1543.8 101.772 1544.42 101.772C1545.05 101.772 1545.6 101.937 1546.06 102.266C1546.53 102.596 1546.76 103.064 1546.76 103.67C1546.76 104.277 1546.53 104.745 1546.06 105.074C1545.6 105.395 1545.05 105.555 1544.42 105.555ZM1553.57 101.291V121.61H1549.59V101.291H1553.57ZM1559 122C1558.41 122 1557.9 121.792 1557.48 121.376C1557.07 120.96 1556.86 120.453 1556.86 119.855C1556.86 119.266 1557.07 118.763 1557.48 118.347C1557.9 117.931 1558.41 117.723 1559 117.723C1559.59 117.723 1560.1 117.931 1560.51 118.347C1560.93 118.763 1561.14 119.266 1561.14 119.855C1561.14 120.453 1560.93 120.96 1560.51 121.376C1560.1 121.792 1559.59 122 1559 122ZM1571.3 121.922C1569.79 121.922 1568.46 121.619 1567.31 121.012C1566.17 120.397 1565.28 119.543 1564.65 118.451C1564.02 117.359 1563.71 116.098 1563.71 114.668C1563.71 113.221 1564.02 111.969 1564.65 110.911C1565.28 109.845 1566.17 109.018 1567.31 108.428C1568.46 107.839 1569.79 107.544 1571.3 107.544C1572.44 107.544 1573.44 107.713 1574.32 108.051C1575.19 108.381 1575.93 108.818 1576.52 109.364C1577.1 109.91 1577.55 110.508 1577.85 111.158C1578.16 111.808 1578.31 112.454 1578.31 113.095C1578.31 113.104 1578.31 113.121 1578.31 113.147C1578.31 113.165 1578.31 113.182 1578.31 113.199H1574.32C1574.32 113.147 1574.31 113.1 1574.31 113.056C1574.31 113.004 1574.3 112.952 1574.28 112.9C1574.21 112.536 1574.06 112.194 1573.82 111.873C1573.59 111.553 1573.26 111.293 1572.84 111.093C1572.42 110.885 1571.9 110.781 1571.28 110.781C1570.61 110.781 1570.01 110.929 1569.48 111.223C1568.96 111.518 1568.55 111.956 1568.25 112.536C1567.94 113.108 1567.79 113.819 1567.79 114.668C1567.79 115.5 1567.94 116.22 1568.25 116.826C1568.55 117.424 1568.96 117.884 1569.48 118.204C1570.01 118.525 1570.61 118.685 1571.28 118.685C1571.96 118.685 1572.52 118.581 1572.95 118.373C1573.39 118.157 1573.71 117.871 1573.93 117.515C1574.15 117.151 1574.28 116.753 1574.32 116.319H1578.31C1578.31 116.961 1578.16 117.615 1577.85 118.282C1577.56 118.941 1577.12 119.543 1576.53 120.089C1575.95 120.635 1575.22 121.077 1574.34 121.415C1573.47 121.753 1572.46 121.922 1571.3 121.922ZM1587.74 121.909C1586.25 121.909 1584.94 121.602 1583.8 120.986C1582.67 120.371 1581.78 119.526 1581.14 118.451C1580.51 117.368 1580.19 116.12 1580.19 114.707C1580.19 113.303 1580.51 112.064 1581.14 110.989C1581.78 109.906 1582.67 109.065 1583.8 108.467C1584.94 107.861 1586.25 107.557 1587.74 107.557C1589.23 107.557 1590.55 107.861 1591.68 108.467C1592.82 109.065 1593.7 109.906 1594.33 110.989C1594.97 112.064 1595.3 113.303 1595.3 114.707C1595.3 116.12 1594.97 117.368 1594.33 118.451C1593.7 119.526 1592.82 120.371 1591.68 120.986C1590.55 121.602 1589.23 121.909 1587.74 121.909ZM1587.74 118.711C1588.44 118.711 1589.06 118.547 1589.58 118.217C1590.1 117.888 1590.5 117.424 1590.78 116.826C1591.07 116.22 1591.21 115.513 1591.21 114.707C1591.21 113.901 1591.07 113.204 1590.78 112.614C1590.5 112.016 1590.1 111.557 1589.58 111.236C1589.06 110.916 1588.44 110.755 1587.74 110.755C1587.05 110.755 1586.44 110.916 1585.91 111.236C1585.39 111.557 1584.99 112.016 1584.7 112.614C1584.41 113.204 1584.27 113.901 1584.27 114.707C1584.27 115.513 1584.41 116.22 1584.7 116.826C1584.99 117.424 1585.39 117.888 1585.91 118.217C1586.44 118.547 1587.05 118.711 1587.74 118.711ZM1606.43 121.61V116.267C1606.43 115.756 1606.43 115.314 1606.43 114.941C1606.43 114.56 1606.43 114.244 1606.43 113.992C1606.43 113.637 1606.41 113.286 1606.37 112.939C1606.33 112.593 1606.25 112.272 1606.11 111.977C1605.98 111.674 1605.77 111.436 1605.5 111.262C1605.22 111.08 1604.84 110.989 1604.36 110.989C1603.92 110.989 1603.54 111.085 1603.22 111.275C1602.9 111.457 1602.64 111.713 1602.43 112.042C1602.23 112.363 1602.08 112.736 1601.99 113.16C1601.89 113.576 1601.84 114.014 1601.84 114.473L1600.74 113.563C1600.74 112.393 1600.95 111.358 1601.37 110.456C1601.8 109.546 1602.4 108.836 1603.18 108.324C1603.97 107.804 1604.9 107.544 1605.98 107.544C1607.13 107.544 1608.03 107.791 1608.67 108.285C1609.32 108.771 1609.77 109.421 1610.03 110.235C1610.3 111.041 1610.44 111.934 1610.44 112.913C1610.44 113.286 1610.44 113.789 1610.44 114.421C1610.44 115.054 1610.44 115.812 1610.44 116.696V121.61H1606.43ZM1597.81 121.61V107.804H1601.84V121.61H1597.81ZM1615.01 121.61V116.28C1615.01 115.752 1615.01 115.297 1615.01 114.915C1615.01 114.534 1615.01 114.218 1615.01 113.966C1615.01 113.585 1614.99 113.221 1614.95 112.874C1614.9 112.519 1614.81 112.198 1614.67 111.912C1614.53 111.626 1614.33 111.401 1614.05 111.236C1613.77 111.072 1613.4 110.989 1612.92 110.989C1612.48 110.989 1612.1 111.085 1611.77 111.275C1611.46 111.457 1611.21 111.709 1611.01 112.029C1610.81 112.35 1610.66 112.714 1610.57 113.121C1610.48 113.529 1610.44 113.953 1610.44 114.395L1609.33 113.498C1609.33 112.346 1609.54 111.323 1609.95 110.43C1610.38 109.538 1610.98 108.836 1611.75 108.324C1612.53 107.804 1613.46 107.544 1614.54 107.544C1615.67 107.544 1616.56 107.783 1617.21 108.259C1617.87 108.736 1618.34 109.373 1618.61 110.17C1618.9 110.959 1619.04 111.843 1619.04 112.822C1619.04 113.212 1619.04 113.715 1619.04 114.33C1619.04 114.946 1619.04 115.695 1619.04 116.579V121.61H1615.01Z" fill="white"/>
</svg>
