<svg width="22" height="22" viewBox="0 0 22 22" fill="none" xmlns="http://www.w3.org/2000/svg">
<path d="M17.3 15.904L21.395 19.978C21.465 20.048 21.5 20.139 21.5 20.251C21.5 20.363 21.465 20.454 21.395 20.524L20.051 21.868C19.981 21.938 19.89 21.973 19.778 21.973C19.666 21.973 19.575 21.938 19.505 21.868L19.127 21.469L18.938 21.301C18.84 21.217 18.784 21.168 18.77 21.154L15.452 17.836C15.382 17.752 15.284 17.71 15.158 17.71C15.046 17.696 14.948 17.724 14.864 17.794C14.108 18.326 13.289 18.739 12.407 19.033C11.497 19.327 10.566 19.474 9.614 19.474C7.962 19.474 6.429 19.061 5.015 18.235C3.643 17.423 2.551 16.331 1.739 14.959C0.913 13.545 0.5 12.012 0.5 10.36C0.5 8.708 0.913 7.175 1.739 5.761C2.551 4.389 3.643 3.297 5.015 2.485C6.429 1.659 7.962 1.246 9.614 1.246C11.266 1.246 12.792 1.659 14.192 2.485C15.564 3.297 16.656 4.389 17.468 5.761C18.294 7.175 18.707 8.708 18.707 10.36C18.707 12.152 18.224 13.797 17.258 15.295C17.202 15.393 17.174 15.498 17.174 15.61C17.188 15.722 17.23 15.82 17.3 15.904ZM15.116 14.602C15.578 14 15.935 13.342 16.187 12.628C16.439 11.9 16.565 11.144 16.565 10.36C16.565 9.1 16.25 7.931 15.62 6.853C15.004 5.789 14.171 4.949 13.121 4.333C12.043 3.703 10.874 3.388 9.614 3.388C8.354 3.388 7.185 3.703 6.107 4.333C5.043 4.949 4.203 5.789 3.587 6.853C2.957 7.931 2.642 9.1 2.642 10.36C2.642 11.62 2.957 12.789 3.587 13.867C4.203 14.931 5.043 15.771 6.107 16.387C7.185 17.017 8.354 17.332 9.614 17.332C10.454 17.332 11.259 17.192 12.029 16.912C12.799 16.618 13.492 16.205 14.108 15.673C14.486 15.351 14.822 14.994 15.116 14.602Z" fill="#17254E"/>
</svg>
