<svg width="46" height="46" viewBox="0 0 46 46" fill="none" xmlns="http://www.w3.org/2000/svg">
<rect x="0.5" y="0.110352" width="45" height="45" rx="22.5" fill="#4D5756"/>
<path d="M23.1868 17.917C25.2786 17.917 27.0052 19.6436 27.0052 21.7354C27.0052 23.8604 25.2786 25.5537 23.1868 25.5537C21.0618 25.5537 19.3684 23.8604 19.3684 21.7354C19.3684 19.6436 21.0618 17.917 23.1868 17.917ZM23.1868 24.2256C24.5481 24.2256 25.6438 23.1299 25.6438 21.7354C25.6438 20.374 24.5481 19.2783 23.1868 19.2783C21.7923 19.2783 20.6966 20.374 20.6966 21.7354C20.6966 23.1299 21.8255 24.2256 23.1868 24.2256ZM28.0345 17.7842C28.0345 18.2822 27.636 18.6807 27.138 18.6807C26.6399 18.6807 26.2415 18.2822 26.2415 17.7842C26.2415 17.2861 26.6399 16.8877 27.138 16.8877C27.636 16.8877 28.0345 17.2861 28.0345 17.7842ZM30.5579 18.6807C30.6243 19.9092 30.6243 23.5947 30.5579 24.8232C30.4915 26.0186 30.2259 27.0479 29.3626 27.9443C28.4993 28.8076 27.4368 29.0732 26.2415 29.1396C25.013 29.2061 21.3274 29.2061 20.0989 29.1396C18.9036 29.0732 17.8743 28.8076 16.9778 27.9443C16.1145 27.0479 15.8489 26.0186 15.7825 24.8232C15.7161 23.5947 15.7161 19.9092 15.7825 18.6807C15.8489 17.4854 16.1145 16.4229 16.9778 15.5596C17.8743 14.6963 18.9036 14.4307 20.0989 14.3643C21.3274 14.2979 25.013 14.2979 26.2415 14.3643C27.4368 14.4307 28.4993 14.6963 29.3626 15.5596C30.2259 16.4229 30.4915 17.4854 30.5579 18.6807ZM28.9642 26.1182C29.3626 25.1553 29.263 22.8311 29.263 21.7354C29.263 20.6729 29.3626 18.3486 28.9642 17.3525C28.6985 16.7217 28.2005 16.1904 27.5696 15.958C26.5735 15.5596 24.2493 15.6592 23.1868 15.6592C22.0911 15.6592 19.7669 15.5596 18.804 15.958C18.1399 16.2236 17.6419 16.7217 17.3763 17.3525C16.9778 18.3486 17.0774 20.6729 17.0774 21.7354C17.0774 22.8311 16.9778 25.1553 17.3763 26.1182C17.6419 26.7822 18.1399 27.2803 18.804 27.5459C19.7669 27.9443 22.0911 27.8447 23.1868 27.8447C24.2493 27.8447 26.5735 27.9443 27.5696 27.5459C28.2005 27.2803 28.7317 26.7822 28.9642 26.1182Z" fill="#2FC7A1"/>
<a href="https://www.figma.com/design/Nx4sNsAeWJfmVVOXuDSmxJ/Untitled?node-id=2-828">
<rect fill="black" fill-opacity="0" x="0.18925" y="-1.275" width="14.875" height="19.55"/>
</a>
</svg>
