<svg width="46" height="46" viewBox="0 0 46 46" fill="none" xmlns="http://www.w3.org/2000/svg">
<rect x="0.5" y="0.110352" width="45" height="45" rx="22.5" fill="#4D5756"/>
<path d="M23.5769 13.4678C26.698 13.4678 29.5534 15.626 29.5534 18.9131C29.5534 22.001 27.9597 25.4541 24.4402 25.4541C23.5769 25.4541 22.5476 25.0225 22.1159 24.2588C21.3855 27.2471 21.4187 27.7119 19.7585 30.0029C19.5925 30.0693 19.6257 30.0693 19.5261 29.9365C19.4597 29.3057 19.3933 28.708 19.3933 28.0771C19.3933 26.0518 20.323 23.0967 20.7878 21.1377C20.5222 20.6064 20.4558 20.0088 20.4558 19.4443C20.4558 16.7881 23.5769 16.3896 23.5769 18.5811C23.5769 19.876 22.6804 21.1045 22.6804 22.3662C22.6804 23.1963 23.4109 23.7939 24.2409 23.7939C26.532 23.7939 27.2292 20.5068 27.2292 18.7471C27.2292 16.3896 25.5691 15.0947 23.2781 15.0947C20.655 15.0947 18.6296 16.9873 18.6296 19.6436C18.6296 20.9385 19.4265 21.6025 19.4265 21.9014C19.4265 22.167 19.2273 23.0635 18.8952 23.0635C18.0984 23.0635 16.8034 21.7354 16.8034 19.4111C16.8034 15.7256 20.157 13.4678 23.5769 13.4678Z" fill="#2FC7A1"/>
<a href="https://www.figma.com/design/Nx4sNsAeWJfmVVOXuDSmxJ/Untitled?node-id=2-828">
<rect fill="black" fill-opacity="0" x="0.173438" y="-1.275" width="12.75" height="19.55"/>
</a>
</svg>
