<svg width="46" height="46" viewBox="0 0 46 46" fill="none" xmlns="http://www.w3.org/2000/svg">
<rect x="0.5" y="0.110352" width="45" height="45" rx="22.5" fill="#4D5756"/>
<path d="M29.9402 18.2822C29.9402 18.4482 29.9402 18.5811 29.9402 18.7471C29.9402 23.3623 26.4539 28.6416 20.0457 28.6416C18.0535 28.6416 16.2273 28.0771 14.7 27.0811C14.9656 27.1143 15.2313 27.1475 15.5301 27.1475C17.157 27.1475 18.6512 26.583 19.8465 25.6533C18.3191 25.6201 17.0242 24.624 16.5926 23.2295C16.825 23.2627 17.0242 23.2959 17.2566 23.2959C17.5555 23.2959 17.8875 23.2295 18.1531 23.1631C16.5594 22.8311 15.3641 21.4365 15.3641 19.7432V19.71C15.8289 19.9756 16.3934 20.1084 16.9578 20.1416C15.9949 19.5107 15.3973 18.4482 15.3973 17.2529C15.3973 16.5889 15.5633 15.9912 15.8621 15.4932C17.5887 17.585 20.1785 18.9795 23.0672 19.1455C23.0008 18.8799 22.9676 18.6143 22.9676 18.3486C22.9676 16.4229 24.5281 14.8623 26.4539 14.8623C27.45 14.8623 28.3465 15.2607 29.0105 15.958C29.7742 15.792 30.5379 15.4932 31.202 15.0947C30.9363 15.9248 30.4051 16.5889 29.6746 17.0205C30.3719 16.9541 31.0691 16.7549 31.6668 16.4893C31.202 17.1865 30.6043 17.7842 29.9402 18.2822Z" fill="#2FC7A1"/>
<a href="https://www.figma.com/design/Nx4sNsAeWJfmVVOXuDSmxJ/Untitled?node-id=2-828">
<rect fill="black" fill-opacity="0" x="0.200001" y="-1.275" width="17" height="19.55"/>
</a>
</svg>
