<svg width="16" height="15" viewBox="0 0 16 15" fill="none" xmlns="http://www.w3.org/2000/svg">
<path d="M2.84375 2.4375C4.26953 1.01172 5.98828 0.298828 8 0.298828C10.0117 0.298828 11.7207 1.01172 13.127 2.4375C14.5527 3.84375 15.2656 5.55273 15.2656 7.56445C15.2656 9.57617 14.5527 11.2949 13.127 12.7207C11.7207 14.127 10.0117 14.8301 8 14.8301C5.98828 14.8301 4.26953 14.127 2.84375 12.7207C1.4375 11.2949 0.734375 9.57617 0.734375 7.56445C0.734375 5.55273 1.4375 3.84375 2.84375 2.4375ZM9.66992 10.5527C9.86523 10.6895 10.0312 10.6699 10.168 10.4941L10.9883 9.35156C11.125 9.15625 11.1055 8.99023 10.9297 8.85352L9.05469 7.50586V3.46289C9.05469 3.22852 8.9375 3.11133 8.70312 3.11133H7.29688C7.0625 3.11133 6.94531 3.22852 6.94531 3.46289V8.38477C6.94531 8.50195 6.99414 8.59961 7.0918 8.67773L9.66992 10.5527Z" fill="#00BEAE"/>
</svg>
