<svg width="12" height="16" viewBox="0 0 12 16" fill="none" xmlns="http://www.w3.org/2000/svg">
<path d="M5.78906 14.7715C5.32031 14.0879 4.7832 13.3164 4.17773 12.457C3.5918 11.5977 3.17188 10.9922 2.91797 10.6406C2.66406 10.2891 2.37109 9.85938 2.03906 9.35156C1.70703 8.82422 1.48242 8.45312 1.36523 8.23828C1.26758 8.02344 1.15039 7.75 1.01367 7.41797C0.896484 7.08594 0.818359 6.80273 0.779297 6.56836C0.759766 6.31445 0.75 6.02148 0.75 5.68945C0.75 4.12695 1.29688 2.79883 2.39062 1.70508C3.48438 0.611328 4.8125 0.0644531 6.375 0.0644531C7.9375 0.0644531 9.26562 0.611328 10.3594 1.70508C11.4531 2.79883 12 4.12695 12 5.68945C12 6.02148 11.9805 6.31445 11.9414 6.56836C11.9219 6.80273 11.8438 7.08594 11.707 7.41797C11.5898 7.75 11.4727 8.02344 11.3555 8.23828C11.2578 8.45312 11.043 8.82422 10.7109 9.35156C10.3789 9.85938 10.0859 10.2891 9.83203 10.6406C9.57812 10.9922 9.14844 11.5977 8.54297 12.457C7.95703 13.3164 7.42969 14.0879 6.96094 14.7715C6.82422 14.9668 6.62891 15.0645 6.375 15.0645C6.12109 15.0645 5.92578 14.9668 5.78906 14.7715ZM4.70508 7.35938C5.17383 7.80859 5.73047 8.0332 6.375 8.0332C7.01953 8.0332 7.56641 7.80859 8.01562 7.35938C8.48438 6.89062 8.71875 6.33398 8.71875 5.68945C8.71875 5.04492 8.48438 4.49805 8.01562 4.04883C7.56641 3.58008 7.01953 3.3457 6.375 3.3457C5.73047 3.3457 5.17383 3.58008 4.70508 4.04883C4.25586 4.49805 4.03125 5.04492 4.03125 5.68945C4.03125 6.33398 4.25586 6.89062 4.70508 7.35938Z" fill="#00BEAE"/>
<a href="https://www.figma.com/design/Nx4sNsAeWJfmVVOXuDSmxJ?node-id=2-4107">
<rect fill="black" fill-opacity="0" width="11.25" height="15"/>
</a>
</svg>
