<svg width="109" height="109" viewBox="0 0 109 109" fill="none" xmlns="http://www.w3.org/2000/svg">
<rect x="9.5" y="9.66992" width="90" height="90" rx="45" fill="#2FC7A1"/>
<g clip-path="url(#clip0_2_1065)">
<path d="M74.65 50.0299H42.65L73.37 41.0699C73.69 41.0699 73.9033 40.9633 74.01 40.7499C74.1167 40.5366 74.1167 40.2699 74.01 39.9499L72.41 34.5099C72.09 33.3366 71.4767 32.4033 70.57 31.7099C69.6633 31.0166 68.6233 30.6699 67.45 30.6699C66.9167 30.6699 66.4367 30.7233 66.01 30.8299L37.21 39.3099C35.8233 39.6299 34.7833 40.4299 34.09 41.7099C33.3967 42.9899 33.21 44.3233 33.53 45.7099L35.13 51.1499V73.3899C35.13 74.8833 35.6367 76.1366 36.65 77.1499C37.6633 78.1633 38.9167 78.6699 40.41 78.6699H51.61C51.93 78.6699 52.17 78.5899 52.33 78.4299C52.49 78.2699 52.57 78.0566 52.57 77.7899C52.57 77.5233 52.49 77.2833 52.33 77.0699C52.17 76.8566 51.93 76.7499 51.61 76.7499H40.41C39.45 76.7499 38.65 76.4299 38.01 75.7899C37.37 75.1499 37.05 74.3499 37.05 73.3899V60.7499H73.69V73.3899C73.69 74.3499 73.37 75.1499 72.73 75.7899C72.09 76.4299 71.3433 76.7499 70.49 76.7499H59.13C58.9167 76.7499 58.7033 76.8566 58.49 77.0699C58.2767 77.2833 58.17 77.5233 58.17 77.7899C58.17 78.0566 58.2767 78.2699 58.49 78.4299C58.7033 78.5899 58.9167 78.6699 59.13 78.6699H70.49C71.8767 78.6699 73.0767 78.1633 74.09 77.1499C75.1033 76.1366 75.61 74.8833 75.61 73.3899V50.9899C75.61 50.7766 75.53 50.5633 75.37 50.3499C75.21 50.1366 74.97 50.0299 74.65 50.0299ZM58.17 58.8299L62.17 51.9499H67.29L63.29 58.8299H58.17ZM50.81 58.8299L54.81 51.9499H59.93L55.93 58.8299H50.81ZM43.45 58.8299L47.45 51.9499H52.57L48.73 58.8299H43.45ZM46.97 46.6699L40.25 40.2699L45.37 38.8299L52.09 45.3899L47.13 46.8299L46.97 46.6699ZM59.45 34.8299L66.17 41.2299L61.21 42.6699L54.33 36.1099L59.45 34.6699V34.8299ZM52.41 36.9099L59.13 43.3099L54.17 44.7499L47.29 38.1899L52.41 36.7499V36.9099ZM66.49 32.7499C66.81 32.6433 67.13 32.5899 67.45 32.5899C68.1967 32.5899 68.8633 32.8033 69.45 33.2299C70.0367 33.6566 70.4367 34.2433 70.65 34.9899L72.09 39.6299L68.25 40.7499L61.53 34.1899L66.49 32.7499ZM35.77 42.6699C36.1967 41.8166 36.8367 41.2833 37.69 41.0699L38.17 40.9099L45.05 47.4699L36.73 49.8699L35.45 45.2299C35.13 44.2699 35.2367 43.4166 35.77 42.6699ZM37.05 51.9499H45.37L41.37 58.8299H37.05V51.9499ZM65.53 58.8299L69.53 51.9499H73.69V58.8299H65.53ZM61.85 68.5899C61.85 68.2699 61.69 68.0033 61.37 67.7899L53.21 63.1499C52.89 62.9366 52.57 62.9099 52.25 63.0699C51.93 63.2299 51.77 63.5233 51.77 63.9499V73.3899C51.77 73.7099 51.8767 73.9499 52.09 74.1099C52.3033 74.2699 52.49 74.3499 52.65 74.3499C52.81 74.3499 52.9967 74.2966 53.21 74.1899L61.37 69.3899C61.69 69.2833 61.85 69.0166 61.85 68.5899ZM53.69 71.7899V65.5499L59.13 68.5899L53.69 71.7899ZM55.45 76.7499C55.13 76.7499 54.89 76.8566 54.73 77.0699C54.57 77.2833 54.49 77.5233 54.49 77.7899C54.49 78.0566 54.57 78.2699 54.73 78.4299C54.89 78.5899 55.1033 78.6699 55.37 78.6699C55.6367 78.6699 55.8767 78.5899 56.09 78.4299C56.3033 78.2699 56.41 78.0566 56.41 77.7899C56.41 77.5233 56.3033 77.2833 56.09 77.0699C55.8767 76.8566 55.6633 76.7499 55.45 76.7499Z" fill="white"/>
</g>
<rect x="1" y="1.16992" width="107" height="107" rx="53.5" stroke="#2FC7A1" stroke-dasharray="3 2"/>
<defs>
<clipPath id="clip0_2_1065">
<rect width="48.02" height="48" fill="white" transform="matrix(1 0 0 -1 30.48 78.6699)"/>
</clipPath>
</defs>
</svg>
