<svg width="109" height="109" viewBox="0 0 109 109" fill="none" xmlns="http://www.w3.org/2000/svg">
<rect x="9.5" y="9.66992" width="90" height="90" rx="45" fill="#2FC7A1"/>
<g clip-path="url(#clip0_2_1051)">
<path d="M42.33 75.9499H46.49C47.2367 75.9499 47.7433 75.6299 48.01 74.9899C48.2767 74.3499 48.2767 73.7099 48.01 73.0699C47.7433 72.4299 47.2367 72.1099 46.49 72.1099H42.33C41.4767 72.1099 40.9167 72.4299 40.65 73.0699C40.3833 73.7099 40.3833 74.3499 40.65 74.9899C40.9167 75.6299 41.4767 75.9499 42.33 75.9499ZM42.33 73.5499H46.49C46.7033 73.5499 46.81 73.7099 46.81 74.0299C46.81 74.3499 46.7033 74.5099 46.49 74.5099H42.33C42.01 74.5099 41.85 74.3499 41.85 74.0299C41.85 73.7099 42.01 73.5499 42.33 73.5499ZM47.45 54.8299L42.81 59.4699L41.21 57.8699C40.9967 57.6566 40.7833 57.5766 40.57 57.6299C40.3567 57.6833 40.1967 57.8433 40.09 58.1099C39.9833 58.3766 40.0367 58.6166 40.25 58.8299L42.33 60.9099C42.65 61.2299 42.97 61.2299 43.29 60.9099L48.41 55.7899C48.6233 55.5766 48.6767 55.3633 48.57 55.1499C48.4633 54.9366 48.3033 54.7766 48.09 54.6699C47.8767 54.5633 47.6633 54.6166 47.45 54.8299ZM78.01 61.7099C77.69 61.2833 77.4767 60.7499 77.37 60.1099C76.6233 57.2299 75.5567 54.4566 74.17 51.7899L71.93 47.4699C71.5033 46.6166 70.8633 46.0833 70.01 45.8699C69.1567 45.6566 68.3567 45.7633 67.61 46.1899C66.8633 46.6166 66.3833 47.2566 66.17 48.1099C65.3167 47.7899 64.4633 47.8433 63.61 48.2699C62.7567 48.6966 62.2233 49.3366 62.01 50.1899C61.2633 49.9766 60.5433 50.0033 59.85 50.2699C59.1567 50.5366 58.5967 50.9899 58.17 51.6299V33.3899C58.17 32.6433 57.9033 32.0033 57.37 31.4699C56.8367 30.9366 56.1967 30.6699 55.45 30.6699H39.13C38.81 30.6699 38.5967 30.7766 38.49 30.9899C38.3833 31.2033 38.3833 31.4433 38.49 31.7099C38.5967 31.9766 38.81 32.1099 39.13 32.1099H55.45C55.8767 32.1099 56.1967 32.2433 56.41 32.5099C56.6233 32.7766 56.73 33.0699 56.73 33.3899V35.4699H31.93V33.3899C31.93 33.0699 32.0633 32.7766 32.33 32.5099C32.5967 32.2433 32.89 32.1099 33.21 32.1099H35.13C35.45 32.1099 35.6633 31.9766 35.77 31.7099C35.8767 31.4433 35.8767 31.2033 35.77 30.9899C35.6633 30.7766 35.45 30.6699 35.13 30.6699H33.21C32.4633 30.6699 31.8233 30.9366 31.29 31.4699C30.7567 32.0033 30.49 32.6433 30.49 33.3899V75.9499C30.49 76.6966 30.7567 77.3366 31.29 77.8699C31.8233 78.4033 32.4633 78.6699 33.21 78.6699H55.45C56.1967 78.6699 56.8367 78.4033 57.37 77.8699C57.9033 77.3366 58.17 76.6966 58.17 75.9499V67.3099L60.73 68.4299C61.37 68.7499 61.85 69.2299 62.17 69.8699C62.7033 71.0433 63.5833 71.8433 64.81 72.2699C66.0367 72.6966 67.2367 72.5899 68.41 71.9499L72.57 69.7099C72.7833 69.6033 72.89 69.4166 72.89 69.1499C72.89 68.8833 72.7833 68.6699 72.57 68.5099C72.3567 68.3499 72.1433 68.3766 71.93 68.5899L67.77 70.6699C66.9167 71.0966 66.0633 71.1766 65.21 70.9099C64.3567 70.6433 63.7167 70.0833 63.29 69.2299C62.8633 68.3766 62.2233 67.7366 61.37 67.3099L50.65 62.0299C50.01 61.7099 49.69 61.2299 49.69 60.5899C49.69 59.9499 49.93 59.4166 50.41 58.9899C50.89 58.5633 51.45 58.5099 52.09 58.8299L56.09 60.7499C56.3033 60.9633 56.5433 60.9366 56.81 60.6699C57.0767 60.4033 57.1567 60.1633 57.05 59.9499L50.33 46.9899C49.9033 46.3499 49.8767 45.7366 50.25 45.1499C50.6233 44.5633 51.13 44.2433 51.77 44.1899C52.41 44.1366 52.89 44.4833 53.21 45.2299L59.29 56.5899C59.3967 56.9099 59.5833 57.0699 59.85 57.0699C60.1167 57.0699 60.33 56.9633 60.49 56.7499C60.65 56.5366 60.6233 56.2699 60.41 55.9499L59.29 53.7099C59.0767 53.1766 59.13 52.6966 59.45 52.2699C59.77 51.8433 60.1967 51.5766 60.73 51.4699C61.2633 51.3633 61.69 51.5233 62.01 51.9499L63.45 54.5099C63.5567 54.7233 63.7433 54.8299 64.01 54.8299C64.2767 54.8299 64.49 54.7233 64.65 54.5099C64.81 54.2966 64.8367 54.0833 64.73 53.8699L63.29 51.1499C63.29 50.4033 63.6367 49.8433 64.33 49.4699C65.0233 49.0966 65.6367 49.1766 66.17 49.7099L67.61 52.2699C67.7167 52.4833 67.9033 52.5899 68.17 52.5899C68.4367 52.5899 68.65 52.4833 68.81 52.2699C68.97 52.0566 68.9433 51.8433 68.73 51.6299L67.45 49.0699C67.3433 48.4299 67.5033 47.9499 67.93 47.6299C68.3567 47.3099 68.8633 47.1766 69.45 47.2299C70.0367 47.2833 70.4367 47.5766 70.65 48.1099L73.05 52.4299C74.33 54.9899 75.29 57.6566 75.93 60.4299C76.1433 61.0699 76.4367 61.7633 76.81 62.5099C77.1833 63.2566 77.2367 64.0299 76.97 64.8299C76.7033 65.6299 76.1967 66.2433 75.45 66.6699C75.13 66.7766 74.97 66.9633 74.97 67.2299C74.97 67.4966 75.0767 67.7099 75.29 67.8699C75.5033 68.0299 75.77 68.0566 76.09 67.9499C77.1567 67.4166 77.8767 66.5366 78.25 65.3099C78.6233 64.0833 78.5433 62.8833 78.01 61.7099ZM56.73 75.9499C56.73 76.2699 56.6233 76.5633 56.41 76.8299C56.1967 77.0966 55.8767 77.2299 55.45 77.2299H33.21C32.89 77.2299 32.5967 77.0966 32.33 76.8299C32.0633 76.5633 31.93 76.2699 31.93 75.9499V70.8299H56.73V75.9499ZM48.57 58.9899C48.3567 59.5233 48.2767 60.0566 48.33 60.5899C48.3833 61.1233 48.5167 61.6566 48.73 62.1899C47.5567 63.4699 46.1167 64.1099 44.41 64.1099C42.7033 64.1099 41.2367 63.4966 40.01 62.2699C38.7833 61.0433 38.17 59.5766 38.17 57.8699C38.17 56.1633 38.7833 54.6966 40.01 53.4699C41.2367 52.2433 42.6767 51.6299 44.33 51.6299C45.9833 51.6299 47.3967 52.1899 48.57 53.3099C49.7433 54.4299 50.3833 55.7899 50.49 57.3899C49.6367 57.6033 48.9967 58.1366 48.57 58.9899ZM53.69 43.6299C53.37 43.3099 52.9967 43.0966 52.57 42.9899C51.93 42.7766 51.2633 42.8299 50.57 43.1499C49.8767 43.4699 49.3433 43.9499 48.97 44.5899C48.5967 45.2299 48.4633 45.9233 48.57 46.6699H35.29C35.0767 46.6699 34.97 46.6166 34.97 46.5099V41.3899C34.97 41.2833 35.0767 41.2299 35.29 41.2299H53.37C53.5833 41.2299 53.69 41.2833 53.69 41.3899V43.6299ZM56.73 48.9099L55.13 45.7099V41.3899C55.13 40.9633 54.97 40.5899 54.65 40.2699C54.33 39.9499 53.9033 39.7899 53.37 39.7899H35.29C34.8633 39.7899 34.49 39.9499 34.17 40.2699C33.85 40.5899 33.69 40.9633 33.69 41.3899V46.5099C33.69 46.9366 33.85 47.3099 34.17 47.6299C34.49 47.9499 34.8633 48.1099 35.29 48.1099H49.21L54.65 58.5099L52.73 57.5499C52.5167 57.4433 52.25 57.3366 51.93 57.2299C51.7167 55.3099 50.89 53.6833 49.45 52.3499C48.01 51.0166 46.2767 50.3499 44.25 50.3499C42.2233 50.3499 40.4633 51.0699 38.97 52.5099C37.4767 53.9499 36.73 55.7366 36.73 57.8699C36.73 60.0033 37.4767 61.7899 38.97 63.2299C40.4633 64.6699 42.2767 65.3899 44.41 65.3899C46.5433 65.3899 48.3567 64.6433 49.85 63.1499C50.81 63.6833 52.3567 64.4299 54.49 65.3899L56.73 66.5099V69.3899H31.93V36.9099H56.73V48.9099Z" fill="white"/>
</g>
<rect x="1" y="1.16992" width="107" height="107" rx="53.5" stroke="#2FC7A1" stroke-dasharray="3 2"/>
<defs>
<clipPath id="clip0_2_1051">
<rect width="48.02" height="48" fill="white" transform="matrix(1 0 0 -1 30.48 78.6699)"/>
</clipPath>
</defs>
</svg>
