<svg width="109" height="109" viewBox="0 0 109 109" fill="none" xmlns="http://www.w3.org/2000/svg">
<rect x="9.5" y="9.66992" width="90" height="90" rx="45" fill="#2FC7A1"/>
<path d="M75.45 72.59H74.81C74.9166 70.4566 74.65 68.59 74.01 66.99V63.95C74.01 62.5633 73.6366 61.3366 72.89 60.27L68.57 53.55C68.0366 52.6966 67.37 52.0033 66.57 51.47C65.77 50.9366 64.89 50.6166 63.93 50.51L57.53 49.55V48.59C58.3833 48.3766 59.0766 47.9233 59.61 47.23C60.1433 46.5366 60.41 45.7633 60.41 44.91V35.95C60.41 34.8833 60.0633 33.9766 59.37 33.23C58.6766 32.4833 57.7966 32.11 56.73 32.11H46.17C45.9566 32.11 45.7966 32.19 45.69 32.35C45.5833 32.51 45.53 32.6966 45.53 32.91V35.95C45.53 36.8033 45.7966 37.5766 46.33 38.27C46.8633 38.9633 47.5566 39.4166 48.41 39.63V44.91C48.5166 45.7633 48.8366 46.5366 49.37 47.23C49.9033 47.9233 50.5966 48.3766 51.45 48.59V49.55L49.53 49.87C49.4233 49.23 49.1033 48.7766 48.57 48.51C48.0366 48.2433 47.5033 48.1633 46.97 48.27L46.17 48.43C45.6366 48.5366 45.1833 48.8033 44.81 49.23C44.4366 49.6566 44.25 50.1366 44.25 50.67C42.65 51.0966 41.37 52.0566 40.41 53.55L36.09 60.27C35.3433 61.3366 34.97 62.5633 34.97 63.95V66.99C34.33 68.59 34.0633 70.51 34.17 72.75H33.53C33.3166 72.75 33.13 72.8033 32.97 72.91C32.81 73.0166 32.73 73.1766 32.73 73.39V76.43C32.73 76.6433 32.81 76.83 32.97 76.99C33.13 77.15 33.3166 77.23 33.53 77.23H75.45C75.6633 77.23 75.85 77.15 76.01 76.99C76.17 76.83 76.25 76.6433 76.25 76.43V73.39C76.25 73.1766 76.17 72.99 76.01 72.83C75.85 72.67 75.6633 72.59 75.45 72.59ZM55.93 72.59C58.0633 70.03 61.2633 68.27 65.53 67.31C67.6633 66.8833 69.85 66.67 72.09 66.67C72.5166 67.31 72.8366 68.0566 73.05 68.91C71.0233 69.0166 69.05 69.2833 67.13 69.71C66.81 69.8166 66.5966 70.0033 66.49 70.27C66.3833 70.5366 66.4366 70.7766 66.65 70.99C66.8633 71.2033 67.13 71.2566 67.45 71.15C69.37 70.7233 71.29 70.4566 73.21 70.35C73.3166 71.0966 73.37 71.8433 73.37 72.59H55.93ZM67.29 54.35L71.61 61.07C72.25 61.9233 72.5166 62.8833 72.41 63.95V65.23C70.9166 65.1233 69.4233 65.1766 67.93 65.39V63.63C67.93 63.5233 67.93 63.4166 67.93 63.31L64.09 58.03C63.8766 57.8166 63.6366 57.71 63.37 57.71C63.1033 57.71 62.9166 57.8433 62.81 58.11C62.7033 58.3766 62.7033 58.6166 62.81 58.83L66.49 63.95V65.55L65.37 65.87C60.4633 66.9366 56.8366 69.0166 54.49 72.11C53.4233 70.51 51.9833 69.1766 50.17 68.11H51.45C52.09 68.11 52.6233 67.8966 53.05 67.47C53.4766 67.0433 53.69 66.51 53.69 65.87V62.99C53.69 62.4566 53.5566 61.9766 53.29 61.55C53.0233 61.1233 52.6233 60.8566 52.09 60.75L49.85 51.31L51.45 50.99C51.5566 51.63 51.8233 52.1633 52.25 52.59C52.6766 53.0166 53.1566 53.23 53.69 53.23H55.29C55.8233 53.23 56.3033 53.0166 56.73 52.59C57.1566 52.1633 57.4233 51.63 57.53 50.99L63.77 51.95C65.2633 52.27 66.4366 53.07 67.29 54.35ZM50.49 60.59H48.25L46.65 54.19L48.89 53.71L50.49 60.59ZM47.77 62.19H51.45C51.6633 62.19 51.85 62.27 52.01 62.43C52.17 62.59 52.25 62.7766 52.25 62.99V65.87C52.25 66.0833 52.17 66.27 52.01 66.43C51.85 66.59 51.6633 66.67 51.45 66.67H47.77V62.19ZM55.93 48.59V50.99C55.93 51.2033 55.8766 51.3633 55.77 51.47C55.6633 51.5766 55.5033 51.63 55.29 51.63H53.69C53.4766 51.63 53.3166 51.5766 53.21 51.47C53.1033 51.3633 53.05 51.2033 53.05 50.99V48.59H55.93ZM46.97 35.95V33.71H56.73C57.37 33.71 57.9033 33.9233 58.33 34.35C58.7566 34.7766 58.97 35.31 58.97 35.95V38.19H49.21C48.57 38.19 48.0366 37.9766 47.61 37.55C47.1833 37.1233 46.97 36.59 46.97 35.95ZM50.01 44.91V39.63H58.97V44.91C58.97 45.55 58.7566 46.0833 58.33 46.51C57.9033 46.9366 57.37 47.15 56.73 47.15H52.25C51.61 47.15 51.0766 46.9366 50.65 46.51C50.2233 46.0833 50.01 45.55 50.01 44.91ZM46.01 50.19C46.1166 49.9766 46.2766 49.87 46.49 49.87L47.29 49.71C47.3966 49.6033 47.5566 49.63 47.77 49.79C47.9833 49.95 48.09 50.0833 48.09 50.19L48.57 52.27L46.33 52.75L45.85 50.83C45.7433 50.6166 45.7966 50.4033 46.01 50.19ZM37.37 61.07L41.69 54.35C42.4366 53.2833 43.3966 52.5366 44.57 52.11L46.81 60.59H43.93L44.57 59.63C44.7833 59.31 44.81 59.0433 44.65 58.83C44.49 58.6166 44.2766 58.4833 44.01 58.43C43.7433 58.3766 43.5033 58.51 43.29 58.83L41.85 61.07C41.7433 61.2833 41.7433 61.5233 41.85 61.79C41.9566 62.0566 42.17 62.19 42.49 62.19H46.17V66.51C45.53 66.19 44.7833 65.9766 43.93 65.87C41.4766 65.3366 39.0233 65.1233 36.57 65.23V63.95C36.4633 62.8833 36.73 61.9233 37.37 61.07ZM35.77 70.35C37.69 70.4566 39.61 70.7233 41.53 71.15C41.85 71.2566 42.1166 71.2033 42.33 70.99C42.5433 70.7766 42.5966 70.5366 42.49 70.27C42.3833 70.0033 42.17 69.8166 41.85 69.71C39.93 69.2833 37.9566 69.0166 35.93 68.91C36.1433 68.0566 36.4633 67.31 36.89 66.67C39.13 66.67 41.37 66.8833 43.61 67.31C47.9833 68.27 51.13 70.03 53.05 72.59H35.61C35.61 71.8433 35.6633 71.0966 35.77 70.35ZM74.81 75.63H34.17V74.19H74.81V75.63Z" fill="white"/>
<rect x="1" y="1.16992" width="107" height="107" rx="53.5" stroke="#2FC7A1" stroke-dasharray="3 2"/>
</svg>
