<svg width="109" height="109" viewBox="0 0 109 109" fill="none" xmlns="http://www.w3.org/2000/svg">
<rect x="9.5" y="9.66992" width="90" height="90" rx="45" fill="#2FC7A1"/>
<g clip-path="url(#clip0_2_1037)">
<path d="M50.81 69.71C51.6633 69.71 52.3833 69.39 52.97 68.75C53.5567 68.11 53.85 67.3366 53.85 66.43C53.85 65.5233 53.5567 64.7766 52.97 64.19C52.3833 63.6033 51.6367 63.31 50.73 63.31C49.8233 63.31 49.0767 63.6033 48.49 64.19C47.9033 64.7766 47.61 65.5233 47.61 66.43C47.61 67.3366 47.9033 68.11 48.49 68.75C49.0767 69.39 49.85 69.71 50.81 69.71ZM50.81 64.59C51.2367 64.59 51.6367 64.7766 52.01 65.15C52.3833 65.5233 52.57 65.95 52.57 66.43C52.57 66.91 52.3833 67.3366 52.01 67.71C51.6367 68.0833 51.21 68.27 50.73 68.27C50.25 68.27 49.8233 68.0833 49.45 67.71C49.0767 67.3366 48.89 66.91 48.89 66.43C48.89 65.95 49.0767 65.5233 49.45 65.15C49.8233 64.7766 50.2767 64.59 50.81 64.59ZM45.37 72.27V76.59C45.37 76.8033 45.45 76.9633 45.61 77.07C45.77 77.1766 45.9033 77.23 46.01 77.23H55.45C55.5567 77.23 55.69 77.1766 55.85 77.07C56.01 76.9633 56.09 76.8033 56.09 76.59V72.27C56.09 71.4166 55.7967 70.6966 55.21 70.11C54.6233 69.5233 53.9567 69.2833 53.21 69.39C52.89 69.2833 52.6767 69.3366 52.57 69.55C52.4633 69.7633 52.3033 69.9233 52.09 70.03C51.5567 70.4566 50.9967 70.6166 50.41 70.51C49.8233 70.4033 49.3167 70.0833 48.89 69.55C48.7833 69.3366 48.57 69.2833 48.25 69.39C47.5033 69.2833 46.8367 69.5233 46.25 70.11C45.6633 70.6966 45.37 71.4166 45.37 72.27ZM46.81 72.27C46.81 71.8433 46.9167 71.4966 47.13 71.23C47.3433 70.9633 47.6633 70.7766 48.09 70.67C48.73 71.4166 49.61 71.79 50.73 71.79C51.85 71.79 52.73 71.4166 53.37 70.67C53.7967 70.7766 54.1167 70.9633 54.33 71.23C54.5433 71.4966 54.65 71.8433 54.65 72.27V75.95H46.81V72.27ZM62.01 69.71C62.8633 69.71 63.61 69.39 64.25 68.75C64.89 68.11 65.21 67.3366 65.21 66.43C65.21 65.5233 64.89 64.7766 64.25 64.19C63.61 63.6033 62.8367 63.31 61.93 63.31C61.0233 63.31 60.2767 63.6033 59.69 64.19C59.1033 64.7766 58.81 65.5233 58.81 66.43C58.81 67.3366 59.13 68.11 59.77 68.75C60.41 69.39 61.1567 69.71 62.01 69.71ZM62.01 64.59C62.4367 64.59 62.8367 64.7766 63.21 65.15C63.5833 65.5233 63.77 65.95 63.77 66.43C63.77 66.91 63.5833 67.3366 63.21 67.71C62.8367 68.0833 62.41 68.27 61.93 68.27C61.45 68.27 61.0233 68.0833 60.65 67.71C60.2767 67.3366 60.09 66.91 60.09 66.43C60.09 65.95 60.2767 65.5233 60.65 65.15C61.0233 64.7766 61.4767 64.59 62.01 64.59ZM56.73 72.27V76.59C56.73 76.8033 56.7833 76.9633 56.89 77.07C56.9967 77.1766 57.1567 77.23 57.37 77.23H66.65C66.8633 77.23 67.0233 77.1766 67.13 77.07C67.2367 76.9633 67.29 76.8033 67.29 76.59V72.27C67.29 71.4166 66.9967 70.7233 66.41 70.19C65.8233 69.6566 65.1567 69.39 64.41 69.39C64.1967 69.2833 64.01 69.3366 63.85 69.55C63.69 69.7633 63.5033 69.9233 63.29 70.03C62.7567 70.4566 62.1967 70.6166 61.61 70.51C61.0233 70.4033 60.5167 70.0833 60.09 69.55C59.9833 69.3366 59.8233 69.2833 59.61 69.39C58.7567 69.2833 58.0633 69.5233 57.53 70.11C56.9967 70.6966 56.73 71.4166 56.73 72.27ZM58.01 72.27C58.01 71.8433 58.1167 71.4966 58.33 71.23C58.5433 70.9633 58.8633 70.7766 59.29 70.67C59.93 71.31 60.7033 71.6833 61.61 71.79C62.5167 71.8966 63.3433 71.6833 64.09 71.15L64.73 70.67C65.05 70.7766 65.3433 70.9633 65.61 71.23C65.8767 71.4966 66.01 71.8433 66.01 72.27V75.95H58.01V72.27ZM73.21 69.71C74.0633 69.71 74.81 69.39 75.45 68.75C76.09 68.11 76.41 67.3366 76.41 66.43C76.41 65.5233 76.09 64.7766 75.45 64.19C74.81 63.6033 74.0633 63.31 73.21 63.31C72.3567 63.31 71.61 63.6033 70.97 64.19C70.33 64.7766 70.01 65.5233 70.01 66.43C70.01 67.3366 70.33 68.11 70.97 68.75C71.61 69.39 72.3567 69.71 73.21 69.71ZM73.21 64.59C73.7433 64.59 74.17 64.7766 74.49 65.15C74.81 65.5233 74.97 65.95 74.97 66.43C74.97 66.91 74.81 67.3366 74.49 67.71C74.17 68.0833 73.7433 68.27 73.21 68.27C72.6767 68.27 72.25 68.0833 71.93 67.71C71.61 67.3366 71.45 66.91 71.45 66.43C71.45 65.95 71.61 65.5233 71.93 65.15C72.25 64.7766 72.6767 64.59 73.21 64.59ZM75.61 69.39C75.3967 69.2833 75.21 69.3366 75.05 69.55C74.89 69.7633 74.7033 69.9233 74.49 70.03C74.0633 70.4566 73.53 70.6166 72.89 70.51C72.25 70.4033 71.7167 70.0833 71.29 69.55C71.1833 69.3366 71.0233 69.2833 70.81 69.39C69.9567 69.39 69.2367 69.6566 68.65 70.19C68.0633 70.7233 67.77 71.4166 67.77 72.27V76.59C67.77 76.8033 67.85 76.9633 68.01 77.07C68.17 77.1766 68.3567 77.23 68.57 77.23H77.85C78.0633 77.23 78.2233 77.1766 78.33 77.07C78.4367 76.9633 78.49 76.8033 78.49 76.59V72.27C78.49 71.4166 78.1967 70.6966 77.61 70.11C77.0233 69.5233 76.3567 69.2833 75.61 69.39ZM75.93 70.67C76.25 70.7766 76.5167 70.9633 76.73 71.23C76.9433 71.4966 77.05 71.8433 77.05 72.27V75.95H69.21V72.27C69.21 71.8433 69.3167 71.4966 69.53 71.23C69.7433 70.9633 70.0633 70.7766 70.49 70.67C71.2367 71.4166 72.1433 71.79 73.21 71.79C74.2767 71.79 75.1833 71.4166 75.93 70.67ZM38.97 41.23C40.0367 41.23 40.9433 40.83 41.69 40.03C42.4367 39.23 42.81 38.2966 42.81 37.23V35.95C42.81 34.8833 42.4367 33.9766 41.69 33.23C40.9433 32.4833 40.0367 32.11 38.97 32.11C37.9033 32.11 36.9967 32.4833 36.25 33.23C35.5033 33.9766 35.13 34.8833 35.13 35.95V37.23C35.13 38.2966 35.5033 39.23 36.25 40.03C36.9967 40.83 37.9033 41.23 38.97 41.23ZM36.41 35.95C36.41 35.31 36.6767 34.75 37.21 34.27C37.7433 33.79 38.3567 33.55 39.05 33.55C39.7433 33.55 40.33 33.79 40.81 34.27C41.29 34.75 41.53 35.31 41.53 35.95V37.23C41.53 37.9766 41.29 38.59 40.81 39.07C40.33 39.55 39.7433 39.79 39.05 39.79C38.3567 39.79 37.7433 39.55 37.21 39.07C36.6767 38.59 36.41 37.9766 36.41 37.23V35.95ZM30.49 55.31C30.49 56.0566 30.73 56.6433 31.21 57.07C31.69 57.4966 32.25 57.71 32.89 57.71C33.4233 57.71 33.85 57.6033 34.17 57.39L34.65 72.11C34.65 72.6433 34.81 73.1233 35.13 73.55C35.45 73.9766 35.85 74.27 36.33 74.43C36.81 74.59 37.29 74.6166 37.77 74.51C38.25 74.4033 38.7033 74.1366 39.13 73.71C39.45 74.1366 39.8767 74.4033 40.41 74.51C40.9433 74.6166 41.45 74.59 41.93 74.43C42.41 74.27 42.81 73.9766 43.13 73.55C43.45 73.1233 43.61 72.6433 43.61 72.11L44.09 57.55C44.41 57.7633 44.7833 57.87 45.21 57.87C45.85 57.87 46.41 57.63 46.89 57.15C47.37 56.67 47.61 56.0566 47.61 55.31V45.55C47.7167 44.4833 47.4233 43.5233 46.73 42.67C46.0367 41.8166 45.1567 41.3366 44.09 41.23H42.01C41.7967 41.23 41.6367 41.2833 41.53 41.39L39.13 43.63L36.73 41.39C36.6233 41.2833 36.4633 41.23 36.25 41.23H34.49C33.4233 41.23 32.49 41.6033 31.69 42.35C30.89 43.0966 30.49 44.0566 30.49 45.23V45.55V55.31ZM41.05 73.23C40.73 73.23 40.4367 73.1233 40.17 72.91C39.9033 72.6966 39.77 72.43 39.77 72.11V57.55C39.77 57.4433 39.7167 57.31 39.61 57.15C39.5033 56.99 39.3433 56.91 39.13 56.91C38.9167 56.91 38.7567 56.99 38.65 57.15C38.5433 57.31 38.49 57.4433 38.49 57.55V72.11C38.49 72.43 38.3567 72.6966 38.09 72.91C37.8233 73.1233 37.53 73.23 37.21 73.23C36.89 73.23 36.5967 73.1233 36.33 72.91C36.0633 72.6966 35.93 72.43 35.93 72.11L35.45 55.15H42.65L42.17 72.11C42.17 72.43 42.0633 72.6966 41.85 72.91C41.6367 73.1233 41.37 73.23 41.05 73.23ZM32.57 43.31C33.1033 42.7766 33.7433 42.51 34.49 42.51H35.93L38.65 45.07L42.33 42.51H43.77C44.5167 42.51 45.1567 42.83 45.69 43.47C46.2233 44.11 46.4367 44.8033 46.33 45.55V55.31C46.33 55.63 46.2233 55.8966 46.01 56.11C45.7967 56.3233 45.53 56.43 45.21 56.43C44.89 56.43 44.6233 56.3233 44.41 56.11C44.1967 55.8966 44.09 55.63 44.09 55.31V48.75C44.09 48.5366 44.0367 48.3766 43.93 48.27C43.8233 48.1633 43.6633 48.11 43.45 48.11C43.2367 48.11 43.0767 48.1633 42.97 48.27C42.8633 48.3766 42.81 48.5366 42.81 48.75V53.87H35.45V48.75C35.45 48.5366 35.37 48.3766 35.21 48.27C35.05 48.1633 34.89 48.11 34.73 48.11C34.57 48.11 34.41 48.1633 34.25 48.27C34.09 48.3766 34.01 48.5366 34.01 48.75V55.31C34.01 55.63 33.9033 55.8966 33.69 56.11C33.4767 56.3233 33.21 56.43 32.89 56.43C32.6767 56.43 32.4633 56.3233 32.25 56.11C32.0367 55.8966 31.93 55.63 31.93 55.31V45.23C31.8233 44.4833 32.0367 43.8433 32.57 43.31ZM49.05 38.35H50.17V52.43C50.17 53.1766 50.4367 53.8166 50.97 54.35C51.5033 54.8833 52.1433 55.15 52.89 55.15H61.53L56.89 59.31C56.57 59.5233 56.4633 59.79 56.57 60.11C56.6767 60.43 56.8633 60.59 57.13 60.59C57.3967 60.59 57.5833 60.5366 57.69 60.43L62.97 55.63L68.25 60.43C68.3567 60.5366 68.5167 60.59 68.73 60.59C68.9433 60.59 69.1033 60.51 69.21 60.35C69.3167 60.19 69.37 60.0033 69.37 59.79C69.37 59.5766 69.3167 59.4166 69.21 59.31L64.41 55.15H73.05C73.7967 55.15 74.4367 54.8833 74.97 54.35C75.5033 53.8166 75.77 53.1766 75.77 52.43V38.35H76.89C77.1033 38.35 77.2633 38.27 77.37 38.11C77.4767 37.95 77.53 37.8166 77.53 37.71V32.91C77.53 32.6966 77.4767 32.5366 77.37 32.43C77.2633 32.3233 77.1033 32.27 76.89 32.27H49.05C48.9433 32.27 48.81 32.3233 48.65 32.43C48.49 32.5366 48.41 32.6966 48.41 32.91V37.71C48.41 37.8166 48.49 37.95 48.65 38.11C48.81 38.27 48.9433 38.35 49.05 38.35ZM74.33 52.43C74.33 52.75 74.1967 53.0433 73.93 53.31C73.6633 53.5766 73.37 53.71 73.05 53.71H52.89C52.57 53.71 52.2767 53.5766 52.01 53.31C51.7433 53.0433 51.61 52.75 51.61 52.43V38.35H74.33V52.43ZM49.85 33.71H76.25V36.91H49.85V33.71ZM54.65 43.79H67.29C67.5033 43.79 67.69 43.71 67.85 43.55C68.01 43.39 68.09 43.23 68.09 43.07C68.09 42.91 68.01 42.75 67.85 42.59C67.69 42.43 67.5033 42.35 67.29 42.35H54.65C54.5433 42.35 54.41 42.43 54.25 42.59C54.09 42.75 54.01 42.91 54.01 43.07C54.01 43.23 54.09 43.39 54.25 43.55C54.41 43.71 54.5433 43.79 54.65 43.79ZM54.65 46.51H71.29C71.5033 46.51 71.69 46.43 71.85 46.27C72.01 46.11 72.09 45.95 72.09 45.79C72.09 45.63 72.01 45.47 71.85 45.31C71.69 45.15 71.5033 45.07 71.29 45.07H54.65C54.5433 45.07 54.41 45.15 54.25 45.31C54.09 45.47 54.01 45.63 54.01 45.79C54.01 45.95 54.09 46.11 54.25 46.27C54.41 46.43 54.5433 46.51 54.65 46.51ZM54.65 49.07H71.29C71.5033 49.07 71.69 49.0166 71.85 48.91C72.01 48.8033 72.09 48.6433 72.09 48.43C72.09 48.2166 72.01 48.0566 71.85 47.95C71.69 47.8433 71.5033 47.79 71.29 47.79H54.65C54.5433 47.79 54.41 47.8433 54.25 47.95C54.09 48.0566 54.01 48.2166 54.01 48.43C54.01 48.6433 54.09 48.8033 54.25 48.91C54.41 49.0166 54.5433 49.07 54.65 49.07Z" fill="white"/>
</g>
<rect x="1" y="1.16992" width="107" height="107" rx="53.5" stroke="#2FC7A1" stroke-dasharray="3 2"/>
<defs>
<clipPath id="clip0_2_1037">
<rect width="48.02" height="48" fill="white" transform="matrix(1 0 0 -1 30.48 78.6699)"/>
</clipPath>
</defs>
</svg>
