<svg width="14" height="16" viewBox="0 0 14 16" fill="none" xmlns="http://www.w3.org/2000/svg">
<path d="M0.5 13.7988V5.83008H13.625V13.7988C13.625 14.1895 13.4883 14.5215 13.2148 14.7949C12.9414 15.0684 12.6094 15.2051 12.2188 15.2051H1.90625C1.51562 15.2051 1.18359 15.0684 0.910156 14.7949C0.636719 14.5215 0.5 14.1895 0.5 13.7988ZM9.875 8.05664V9.22852C9.875 9.46289 9.99219 9.58008 10.2266 9.58008H11.3984C11.6328 9.58008 11.75 9.46289 11.75 9.22852V8.05664C11.75 7.82227 11.6328 7.70508 11.3984 7.70508H10.2266C9.99219 7.70508 9.875 7.82227 9.875 8.05664ZM9.875 11.8066V12.9785C9.875 13.2129 9.99219 13.3301 10.2266 13.3301H11.3984C11.6328 13.3301 11.75 13.2129 11.75 12.9785V11.8066C11.75 11.5723 11.6328 11.4551 11.3984 11.4551H10.2266C9.99219 11.4551 9.875 11.5723 9.875 11.8066ZM6.125 8.05664V9.22852C6.125 9.46289 6.24219 9.58008 6.47656 9.58008H7.64844C7.88281 9.58008 8 9.46289 8 9.22852V8.05664C8 7.82227 7.88281 7.70508 7.64844 7.70508H6.47656C6.24219 7.70508 6.125 7.82227 6.125 8.05664ZM6.125 11.8066V12.9785C6.125 13.2129 6.24219 13.3301 6.47656 13.3301H7.64844C7.88281 13.3301 8 13.2129 8 12.9785V11.8066C8 11.5723 7.88281 11.4551 7.64844 11.4551H6.47656C6.24219 11.4551 6.125 11.5723 6.125 11.8066ZM2.375 8.05664V9.22852C2.375 9.46289 2.49219 9.58008 2.72656 9.58008H3.89844C4.13281 9.58008 4.25 9.46289 4.25 9.22852V8.05664C4.25 7.82227 4.13281 7.70508 3.89844 7.70508H2.72656C2.49219 7.70508 2.375 7.82227 2.375 8.05664ZM2.375 11.8066V12.9785C2.375 13.2129 2.49219 13.3301 2.72656 13.3301H3.89844C4.13281 13.3301 4.25 13.2129 4.25 12.9785V11.8066C4.25 11.5723 4.13281 11.4551 3.89844 11.4551H2.72656C2.49219 11.4551 2.375 11.5723 2.375 11.8066ZM12.2188 2.08008C12.6094 2.08008 12.9414 2.2168 13.2148 2.49023C13.4883 2.76367 13.625 3.0957 13.625 3.48633V4.89258H0.5V3.48633C0.5 3.0957 0.636719 2.76367 0.910156 2.49023C1.18359 2.2168 1.51562 2.08008 1.90625 2.08008H3.3125V0.673828C3.3125 0.537109 3.35156 0.429688 3.42969 0.351562C3.52734 0.253906 3.64453 0.205078 3.78125 0.205078H4.71875C4.85547 0.205078 4.96289 0.253906 5.04102 0.351562C5.13867 0.429688 5.1875 0.537109 5.1875 0.673828V2.08008H8.9375V0.673828C8.9375 0.537109 8.97656 0.429688 9.05469 0.351562C9.15234 0.253906 9.26953 0.205078 9.40625 0.205078H10.3438C10.4805 0.205078 10.5879 0.253906 10.666 0.351562C10.7637 0.429688 10.8125 0.537109 10.8125 0.673828V2.08008H12.2188Z" fill="#FC6441"/>
</svg>
