<svg width="18" height="16" viewBox="0 0 18 16" fill="none" xmlns="http://www.w3.org/2000/svg">
<path d="M12.8575 6.76758C12.8575 7.27539 12.672 7.71484 12.3009 8.08594C11.9298 8.45703 11.4904 8.64258 10.9825 8.64258H5.41614L3.01379 10.459C2.91614 10.5371 2.80872 10.5469 2.69153 10.4883C2.59387 10.4297 2.54504 10.3418 2.54504 10.2246V8.64258C2.03723 8.64258 1.59778 8.45703 1.22668 8.08594C0.855591 7.71484 0.670044 7.27539 0.670044 6.76758V2.08008C0.670044 1.57227 0.855591 1.13281 1.22668 0.761719C1.59778 0.390625 2.03723 0.205078 2.54504 0.205078H10.9825C11.4904 0.205078 11.9298 0.390625 12.3009 0.761719C12.672 1.13281 12.8575 1.57227 12.8575 2.08008V6.76758ZM15.67 4.89258C16.1779 4.89258 16.6173 5.07812 16.9884 5.44922C17.3595 5.82031 17.545 6.25977 17.545 6.76758V11.4551C17.545 11.9629 17.3595 12.4023 16.9884 12.7734C16.6173 13.1445 16.1779 13.3301 15.67 13.3301H14.7325V14.9121C14.7325 15.0293 14.674 15.1172 14.5568 15.1758C14.4591 15.2344 14.3615 15.2246 14.2638 15.1465L11.8615 13.3301H8.17004C7.66223 13.3301 7.22278 13.1445 6.85168 12.7734C6.48059 12.4023 6.29504 11.9629 6.29504 11.4551V9.58008H10.9825C11.7638 9.58008 12.4279 9.30664 12.9747 8.75977C13.5216 8.21289 13.795 7.54883 13.795 6.76758V4.89258H15.67Z" fill="#FC6441"/>
</svg>
