<svg width="71" height="71" viewBox="0 0 71 71" fill="none" xmlns="http://www.w3.org/2000/svg">
<rect x="0.800049" y="0.610352" width="70" height="70" rx="35" fill="white" fill-opacity="0.05"/>
<rect x="1.30005" y="1.11035" width="69" height="69" rx="34.5" stroke="#F4F4F4" stroke-opacity="0.5"/>
<path d="M47.9118 32.0615C48.0094 31.9639 48.1071 31.9476 48.2047 32.0127C48.3349 32.0778 48.4 32.1755 48.4 32.3057V42.2666C48.4 42.9176 48.1722 43.471 47.7165 43.9268C47.2607 44.3825 46.7073 44.6104 46.0563 44.6104H25.7438C25.0928 44.6104 24.5394 44.3825 24.0836 43.9268C23.6279 43.471 23.4 42.9176 23.4 42.2666V32.3057C23.4 32.1755 23.4489 32.0941 23.5465 32.0615C23.6767 31.9964 23.7907 31.9964 23.8883 32.0615C24.9625 32.8753 27.4691 34.7145 31.4079 37.5791C31.473 37.6442 31.6846 37.8232 32.0426 38.1162C32.4333 38.4092 32.7425 38.637 32.9704 38.7998C33.1982 38.93 33.4912 39.109 33.8493 39.3369C34.2073 39.5322 34.5491 39.6787 34.8747 39.7764C35.2327 39.874 35.5745 39.9229 35.9 39.9229C36.193 39.9229 36.486 39.8903 36.779 39.8252C37.0719 39.7275 37.3486 39.6299 37.609 39.5322C37.8695 39.402 38.1461 39.2393 38.4391 39.0439C38.7321 38.8486 38.9762 38.6859 39.1715 38.5557C39.3668 38.3929 39.5947 38.2139 39.8551 38.0186C40.1155 37.8232 40.2946 37.6768 40.3922 37.5791C44.2334 34.8122 46.7399 32.973 47.9118 32.0615ZM35.9 38.3604C35.6396 38.3604 35.3141 38.279 34.9235 38.1162C34.5654 37.9209 34.2724 37.7581 34.0446 37.6279C33.8167 37.4652 33.4749 37.221 33.0192 36.8955C32.596 36.5374 32.3681 36.3584 32.3356 36.3584C28.3642 33.4613 25.5322 31.3617 23.8395 30.0596C23.5465 29.8317 23.4 29.5225 23.4 29.1318V28.2041C23.4 27.5531 23.6279 26.9997 24.0836 26.5439C24.5394 26.0882 25.0928 25.8604 25.7438 25.8604H46.0563C46.7073 25.8604 47.2607 26.0882 47.7165 26.5439C48.1722 26.9997 48.4 27.5531 48.4 28.2041V29.1318C48.4 29.5225 48.2536 29.8317 47.9606 30.0596C46.3655 31.2965 43.5335 33.3962 39.4645 36.3584C39.432 36.3584 39.1878 36.5374 38.7321 36.8955C38.3089 37.221 37.9834 37.4652 37.7555 37.6279C37.5277 37.7581 37.2184 37.9209 36.8278 38.1162C36.4697 38.279 36.1605 38.3604 35.9 38.3604Z" fill="white"/>
</svg>
