<svg width="16" height="16" viewBox="0 0 16 16" fill="none" xmlns="http://www.w3.org/2000/svg">
<path d="M14.4424 0.6875C15.0068 0.6875 15.5049 1.18555 15.5049 1.7832V14.5C15.5049 15.0977 15.0068 15.5625 14.4424 15.5625H1.65918C1.09473 15.5625 0.629883 15.0977 0.629883 14.5V1.7832C0.629883 1.18555 1.09473 0.6875 1.65918 0.6875H14.4424ZM5.1123 13.4375V6.36523H2.9209V13.4375H5.1123ZM4.0166 5.36914C4.71387 5.36914 5.27832 4.80469 5.27832 4.10742C5.27832 3.41016 4.71387 2.8125 4.0166 2.8125C3.28613 2.8125 2.72168 3.41016 2.72168 4.10742C2.72168 4.80469 3.28613 5.36914 4.0166 5.36914ZM13.3799 13.4375V9.55273C13.3799 7.66016 12.9482 6.16602 10.7236 6.16602C9.66113 6.16602 8.93066 6.76367 8.63184 7.32812H8.59863V6.36523H6.50684V13.4375H8.69824V9.95117C8.69824 9.02148 8.86426 8.125 10.0264 8.125C11.1553 8.125 11.1553 9.1875 11.1553 9.98438V13.4375H13.3799Z" fill="white"/>
<a href="https://www.figma.com/design/Nx4sNsAeWJfmVVOXuDSmxJ/Untitled?node-id=2-828">
<rect fill="black" fill-opacity="0" y="-1.275" width="14.875" height="19.55"/>
</a>
</svg>
