<svg width="25" height="25" viewBox="0 0 25 25" fill="none" xmlns="http://www.w3.org/2000/svg">
<g clip-path="url(#clip0_2_1372)">
<g clip-path="url(#clip1_2_1372)">
<g clip-path="url(#clip2_2_1372)">
<path d="M19.9882 3.4731C18.071 1.55586 15.5219 0.5 12.8105 0.5C10.0991 0.5 7.54996 1.55586 5.63277 3.4731C3.71553 5.39038 2.65967 7.93945 2.65967 10.6508C2.65967 16.1357 7.84584 20.6978 10.632 23.1487C11.0193 23.4893 11.3536 23.7835 11.62 24.0323C11.9538 24.344 12.3822 24.5 12.8105 24.5C13.2389 24.5 13.6672 24.344 14.001 24.0323C14.2673 23.7834 14.6017 23.4893 14.9889 23.1487C17.7751 20.6978 22.9613 16.1357 22.9613 10.6508C22.9612 7.93945 21.9054 5.39038 19.9882 3.4731ZM14.0603 22.0932C13.6646 22.4412 13.3229 22.7419 13.0412 23.005C12.9118 23.1258 12.7091 23.1258 12.5797 23.005C12.298 22.7418 11.9563 22.4412 11.5606 22.0932C8.94117 19.789 4.06545 15.5 4.06545 10.6508C4.06545 5.82885 7.98838 1.90592 12.8104 1.90592C17.6324 1.90592 21.5553 5.82885 21.5553 10.6508C21.5553 15.5 16.6797 19.789 14.0603 22.0932Z" fill="#FE543D"/>
<path d="M12.8098 5.79395C10.3431 5.79395 8.33643 7.80062 8.33643 10.2672C8.33643 12.7339 10.3431 14.7405 12.8098 14.7405C15.2764 14.7405 17.2831 12.7339 17.2831 10.2672C17.2831 7.80062 15.2764 5.79395 12.8098 5.79395ZM12.8098 13.3346C11.1184 13.3346 9.7423 11.9585 9.7423 10.2672C9.7423 8.57584 11.1184 7.19978 12.8098 7.19978C14.5012 7.19978 15.8772 8.57584 15.8772 10.2672C15.8772 11.9585 14.5012 13.3346 12.8098 13.3346Z" fill="#FE543D"/>
</g>
</g>
</g>
<defs>
<clipPath id="clip0_2_1372">
<rect width="24" height="24" fill="white" transform="translate(0.810059 0.5)"/>
</clipPath>
<clipPath id="clip1_2_1372">
<rect width="24" height="24" fill="white" transform="translate(0.810059 0.5)"/>
</clipPath>
<clipPath id="clip2_2_1372">
<rect width="24" height="24" fill="white" transform="translate(0.810059 0.5)"/>
</clipPath>
</defs>
</svg>
