<svg width="71" height="71" viewBox="0 0 71 71" fill="none" xmlns="http://www.w3.org/2000/svg">
<rect x="0.5" y="0.610352" width="70" height="70" rx="35" fill="white" fill-opacity="0.05"/>
<rect x="1" y="1.11035" width="69" height="69" rx="34.5" stroke="#F4F4F4" stroke-opacity="0.5"/>
<path d="M34.6284 47.2471C33.8472 46.1077 32.952 44.8219 31.9429 43.3896C30.9663 41.9574 30.2665 40.9482 29.8433 40.3623C29.4201 39.7764 28.9318 39.0602 28.3784 38.2139C27.8251 37.335 27.4507 36.7165 27.2554 36.3584C27.0926 36.0003 26.8973 35.5446 26.6695 34.9912C26.4741 34.4378 26.3439 33.9658 26.2788 33.5752C26.2463 33.152 26.23 32.6637 26.23 32.1104C26.23 29.5062 27.1415 27.2926 28.9644 25.4697C30.7873 23.6468 33.0008 22.7354 35.605 22.7354C38.2092 22.7354 40.4227 23.6468 42.2456 25.4697C44.0685 27.2926 44.98 29.5062 44.98 32.1104C44.98 32.6637 44.9475 33.152 44.8823 33.5752C44.8498 33.9658 44.7196 34.4378 44.4917 34.9912C44.2964 35.5446 44.1011 36.0003 43.9058 36.3584C43.743 36.7165 43.385 37.335 42.8316 38.2139C42.2782 39.0602 41.7899 39.7764 41.3667 40.3623C40.9435 40.9482 40.2274 41.9574 39.2183 43.3896C38.2417 44.8219 37.3628 46.1077 36.5816 47.2471C36.3537 47.5726 36.0282 47.7354 35.605 47.7354C35.1818 47.7354 34.8563 47.5726 34.6284 47.2471ZM32.8218 34.8936C33.6031 35.6423 34.5308 36.0166 35.605 36.0166C36.6792 36.0166 37.5907 35.6423 38.3394 34.8936C39.1206 34.1123 39.5113 33.1846 39.5113 32.1104C39.5113 31.0361 39.1206 30.1247 38.3394 29.376C37.5907 28.5947 36.6792 28.2041 35.605 28.2041C34.5308 28.2041 33.6031 28.5947 32.8218 29.376C32.0731 30.1247 31.6988 31.0361 31.6988 32.1104C31.6988 33.1846 32.0731 34.1123 32.8218 34.8936Z" fill="white"/>
</svg>
