<svg width="14" height="16" viewBox="0 0 14 16" fill="none" xmlns="http://www.w3.org/2000/svg">
<path d="M9.66919 6.79102C8.94653 7.51367 8.06763 7.875 7.03247 7.875C5.99731 7.875 5.10864 7.51367 4.36646 6.79102C3.6438 6.04883 3.28247 5.16016 3.28247 4.125C3.28247 3.08984 3.6438 2.21094 4.36646 1.48828C5.10864 0.746094 5.99731 0.375 7.03247 0.375C8.06763 0.375 8.94653 0.746094 9.66919 1.48828C10.4114 2.21094 10.7825 3.08984 10.7825 4.125C10.7825 5.16016 10.4114 6.04883 9.66919 6.79102ZM9.66919 8.8125C10.7434 8.8125 11.6614 9.20312 12.4231 9.98438C13.2043 10.7461 13.595 11.6641 13.595 12.7383V13.9688C13.595 14.3594 13.4583 14.6914 13.1848 14.9648C12.9114 15.2383 12.5793 15.375 12.1887 15.375H1.87622C1.4856 15.375 1.15356 15.2383 0.880127 14.9648C0.606689 14.6914 0.469971 14.3594 0.469971 13.9688V12.7383C0.469971 11.6641 0.85083 10.7461 1.61255 9.98438C2.3938 9.20312 3.32153 8.8125 4.39575 8.8125H4.8938C5.57739 9.125 6.29028 9.28125 7.03247 9.28125C7.77466 9.28125 8.48755 9.125 9.17114 8.8125H9.66919Z" fill="#FE543D"/>
</svg>
