<svg width="71" height="71" viewBox="0 0 71 71" fill="none" xmlns="http://www.w3.org/2000/svg">
<rect x="0.5" y="0.610352" width="70" height="70" rx="35" fill="white" fill-opacity="0.05"/>
<rect x="1" y="1.11035" width="69" height="69" rx="34.5" stroke="#F4F4F4" stroke-opacity="0.5"/>
<path d="M46.8573 46.6315C46.7379 47.2522 46.369 47.5679 45.7506 47.5787C39.5015 47.6878 34.1252 45.5678 29.6215 41.2186C25.1178 36.8695 22.8114 31.5704 22.7024 25.3213C22.6916 24.7029 22.9942 24.3232 23.6103 24.1822L28.6673 22.9219C29.2828 22.7484 29.7262 22.9686 29.9973 23.5824L32.4362 29.0094C32.6731 29.5262 32.5671 29.9838 32.1183 30.3824L29.2308 32.8257C30.1431 34.7307 31.3606 36.4024 32.8833 37.8409C34.4066 39.3119 36.1198 40.4703 38.0229 41.3161L40.4128 38.3443C40.7629 37.8824 41.2165 37.7605 41.7738 37.9787L47.2826 40.2266C47.873 40.4768 48.0923 40.9125 47.9403 41.5337L46.8573 46.6315Z" fill="white"/>
</svg>
