<svg width="16" height="16" viewBox="0 0 16 16" fill="none" xmlns="http://www.w3.org/2000/svg">
<path d="M14.8281 9.58594C15.3262 10.2168 15.625 11.0137 15.5918 11.8438C15.5918 13.9023 13.9316 15.5625 11.873 15.5625C11.043 15.5625 10.2461 15.2969 9.61523 14.7988C9.15039 14.8984 8.65234 14.9648 8.1543 14.9648C4.40234 14.9648 1.34766 11.9102 1.34766 8.125C1.34766 7.66016 1.41406 7.16211 1.51367 6.69727C1.01562 6.06641 0.75 5.26953 0.75 4.40625C0.75 2.38086 2.41016 0.6875 4.46875 0.6875C5.29883 0.6875 6.0957 0.986328 6.72656 1.48438C7.19141 1.38477 7.68945 1.31836 8.1875 1.31836C11.9395 1.31836 14.9941 4.37305 14.9941 8.125C14.9941 8.62305 14.9277 9.12109 14.8281 9.58594ZM8.38672 12.6406C10.2129 12.6406 12.1055 11.7109 12.1055 9.75195C12.1055 8.05859 10.4453 7.49414 9.08398 7.19531C7.49023 6.79688 6.79297 6.73047 6.79297 6.09961C6.79297 5.56836 7.32422 5.33594 8.1875 5.33594C9.71484 5.33594 9.74805 6.46484 10.6777 6.46484C11.3086 6.46484 11.6738 5.9668 11.6738 5.40234C11.6738 4.27344 9.81445 3.54297 7.98828 3.54297C6.32812 3.54297 4.36914 4.27344 4.36914 6.26562C4.36914 8.42383 6.22852 8.62305 8.28711 9.1543C9.15039 9.35352 9.68164 9.45312 9.68164 10.084C9.68164 10.582 9.11719 10.9473 8.28711 10.9473C6.49414 10.9473 6.39453 9.45312 5.36523 9.45312C4.66797 9.45312 4.36914 9.95117 4.36914 10.4824C4.36914 11.6777 6.19531 12.6406 8.38672 12.6406Z" fill="white"/>
<a href="https://www.figma.com/design/Nx4sNsAeWJfmVVOXuDSmxJ/Untitled?node-id=2-828">
<rect fill="black" fill-opacity="0" y="-1.275" width="14.875" height="19.55"/>
</a>
</svg>
