<svg width="18" height="18" viewBox="0 0 18 18" fill="none" xmlns="http://www.w3.org/2000/svg">
<path d="M15.9902 5.67188C15.9902 5.83789 15.9902 5.9707 15.9902 6.13672C15.9902 10.752 12.5039 16.0312 6.0957 16.0312C4.10352 16.0312 2.27734 15.4668 0.75 14.4707C1.01562 14.5039 1.28125 14.5371 1.58008 14.5371C3.20703 14.5371 4.70117 13.9727 5.89648 13.043C4.36914 13.0098 3.07422 12.0137 2.64258 10.6191C2.875 10.6523 3.07422 10.6855 3.30664 10.6855C3.60547 10.6855 3.9375 10.6191 4.20312 10.5527C2.60938 10.2207 1.41406 8.82617 1.41406 7.13281V7.09961C1.87891 7.36523 2.44336 7.49805 3.00781 7.53125C2.04492 6.90039 1.44727 5.83789 1.44727 4.64258C1.44727 3.97852 1.61328 3.38086 1.91211 2.88281C3.63867 4.97461 6.22852 6.36914 9.11719 6.53516C9.05078 6.26953 9.01758 6.00391 9.01758 5.73828C9.01758 3.8125 10.5781 2.25195 12.5039 2.25195C13.5 2.25195 14.3965 2.65039 15.0605 3.34766C15.8242 3.18164 16.5879 2.88281 17.252 2.48438C16.9863 3.31445 16.4551 3.97852 15.7246 4.41016C16.4219 4.34375 17.1191 4.14453 17.7168 3.87891C17.252 4.57617 16.6543 5.17383 15.9902 5.67188Z" fill="white"/>
<a href="https://www.figma.com/design/Nx4sNsAeWJfmVVOXuDSmxJ/Untitled?node-id=2-828">
<rect fill="black" fill-opacity="0" y="-1.275" width="17" height="19.55"/>
</a>
</svg>
