<svg width="54" height="55" viewBox="0 0 54 55" fill="none" xmlns="http://www.w3.org/2000/svg">
<rect y="0.589844" width="54" height="54" rx="27" fill="#FC6341" fill-opacity="0.1"/>
<path d="M26.475 35.4883C25.9125 34.668 25.268 33.7422 24.5414 32.7109C23.8383 31.6797 23.3344 30.9531 23.0297 30.5312C22.725 30.1094 22.3734 29.5938 21.975 28.9844C21.5766 28.3516 21.307 27.9062 21.1664 27.6484C21.0492 27.3906 20.9086 27.0625 20.7445 26.6641C20.6039 26.2656 20.5102 25.9258 20.4633 25.6445C20.4398 25.3398 20.4281 24.9883 20.4281 24.5898C20.4281 22.7148 21.0844 21.1211 22.3969 19.8086C23.7094 18.4961 25.3031 17.8398 27.1781 17.8398C29.0531 17.8398 30.6469 18.4961 31.9594 19.8086C33.2719 21.1211 33.9281 22.7148 33.9281 24.5898C33.9281 24.9883 33.9047 25.3398 33.8578 25.6445C33.8344 25.9258 33.7406 26.2656 33.5766 26.6641C33.4359 27.0625 33.2953 27.3906 33.1547 27.6484C33.0375 27.9062 32.7797 28.3516 32.3812 28.9844C31.9828 29.5938 31.6312 30.1094 31.3266 30.5312C31.0219 30.9531 30.5062 31.6797 29.7797 32.7109C29.0766 33.7422 28.4437 34.668 27.8812 35.4883C27.7172 35.7227 27.4828 35.8398 27.1781 35.8398C26.8734 35.8398 26.6391 35.7227 26.475 35.4883ZM25.1742 26.5938C25.7367 27.1328 26.4047 27.4023 27.1781 27.4023C27.9516 27.4023 28.6078 27.1328 29.1469 26.5938C29.7094 26.0312 29.9906 25.3633 29.9906 24.5898C29.9906 23.8164 29.7094 23.1602 29.1469 22.6211C28.6078 22.0586 27.9516 21.7773 27.1781 21.7773C26.4047 21.7773 25.7367 22.0586 25.1742 22.6211C24.6352 23.1602 24.3656 23.8164 24.3656 24.5898C24.3656 25.3633 24.6352 26.0312 25.1742 26.5938Z" fill="#FC6441"/>
</svg>
