<svg width="54" height="55" viewBox="0 0 54 55" fill="none" xmlns="http://www.w3.org/2000/svg">
<rect y="0.589844" width="54" height="54" rx="27" fill="#FC6341" fill-opacity="0.1"/>
<path d="M33.2756 36.3472C33.1059 36.7694 32.8018 36.9419 32.3633 36.8646C27.9316 36.0832 24.423 33.8462 21.8375 30.1536C19.2519 26.461 18.3498 22.3989 19.1312 17.9673C19.2085 17.5287 19.4746 17.302 19.9295 17.287L23.6767 17.0909C24.1356 17.0528 24.4187 17.2694 24.526 17.7405L25.5041 21.9112C25.6006 22.309 25.4628 22.6179 25.0908 22.8379L22.7144 24.1681C23.0974 25.6397 23.7283 26.9885 24.6069 28.2144C25.4814 29.4634 26.5331 30.5175 27.7619 31.3767L29.8593 29.6046C30.1702 29.3263 30.5076 29.3025 30.8715 29.5332L34.4561 31.8788C34.839 32.1367 34.9341 32.4748 34.7414 32.893L33.2756 36.3472Z" fill="#FC6441"/>
</svg>
