<svg width="54" height="55" viewBox="0 0 54 55" fill="none" xmlns="http://www.w3.org/2000/svg">
<rect y="0.589844" width="54" height="54" rx="27" fill="#FC6341" fill-opacity="0.1"/>
<path d="M20.9656 20.6875C22.6766 18.9766 24.7391 18.1211 27.1531 18.1211C29.5672 18.1211 31.618 18.9766 33.3055 20.6875C35.0164 22.375 35.8719 24.4258 35.8719 26.8398C35.8719 29.2539 35.0164 31.3164 33.3055 33.0273C31.618 34.7148 29.5672 35.5586 27.1531 35.5586C24.7391 35.5586 22.6766 34.7148 20.9656 33.0273C19.2781 31.3164 18.4344 29.2539 18.4344 26.8398C18.4344 24.4258 19.2781 22.375 20.9656 20.6875ZM29.157 30.4258C29.3914 30.5898 29.5906 30.5664 29.7547 30.3555L30.7391 28.9844C30.9031 28.75 30.8797 28.5508 30.6688 28.3867L28.4188 26.7695V21.918C28.4188 21.6367 28.2781 21.4961 27.9969 21.4961H26.3094C26.0281 21.4961 25.8875 21.6367 25.8875 21.918V27.8242C25.8875 27.9648 25.9461 28.082 26.0633 28.1758L29.157 30.4258Z" fill="#FC6441"/>
</svg>
