<svg width="649" height="53" viewBox="0 0 649 53" fill="none" xmlns="http://www.w3.org/2000/svg">
<rect x="0.5" y="42.25" width="648" height="10" rx="5" fill="#89BAB4" fill-opacity="0.3"/>
<rect x="0.5" y="42.25" width="486" height="10" rx="5" fill="#2FC7A1"/>
<rect width="42.67" height="24" transform="translate(443.83 0.25)" fill="#2FC7A1"/>
<path d="M453.039 17.25L457.365 8.304L457.281 8.178H451.695V7.03H458.555V8.654L454.439 17.25H453.039ZM451.695 9.802V7.03H452.815V9.802H451.695ZM463.486 17.502C462.702 17.502 462.04 17.3433 461.498 17.026C460.957 16.6993 460.546 16.2747 460.266 15.752C459.986 15.2293 459.846 14.674 459.846 14.086H461.162C461.162 14.5153 461.256 14.898 461.442 15.234C461.638 15.57 461.909 15.836 462.254 16.032C462.6 16.228 463.01 16.326 463.486 16.326C463.953 16.326 464.359 16.2327 464.704 16.046C465.059 15.85 465.334 15.584 465.53 15.248C465.726 14.9027 465.824 14.5153 465.824 14.086C465.824 13.6567 465.726 13.2693 465.53 12.924C465.344 12.5787 465.073 12.3033 464.718 12.098C464.373 11.8927 463.962 11.79 463.486 11.79C463.141 11.79 462.791 11.8507 462.436 11.972C462.082 12.084 461.797 12.2473 461.582 12.462H460.35L460.868 7.03H466.23V8.178H461.652L461.988 7.716L461.596 11.678L461.232 11.552C461.503 11.2813 461.83 11.0667 462.212 10.908C462.604 10.7493 463.048 10.67 463.542 10.67C464.326 10.67 464.984 10.8333 465.516 11.16C466.048 11.4773 466.45 11.8927 466.72 12.406C467 12.91 467.14 13.4373 467.14 13.988V14.184C467.14 14.7347 467 15.2667 466.72 15.78C466.44 16.284 466.025 16.6993 465.474 17.026C464.933 17.3433 464.27 17.502 463.486 17.502ZM471.299 17.25L475.163 7.03H476.227L472.363 17.25H471.299ZM470.543 12.518C470.011 12.518 469.577 12.3967 469.241 12.154C468.914 11.9113 468.672 11.5893 468.513 11.188C468.364 10.7867 468.289 10.3527 468.289 9.886V9.522C468.289 9.018 468.368 8.57 468.527 8.178C468.686 7.77667 468.933 7.464 469.269 7.24C469.605 7.00667 470.03 6.89 470.543 6.89C471.066 6.89 471.49 7.00667 471.817 7.24C472.153 7.464 472.4 7.77667 472.559 8.178C472.718 8.57 472.797 9.018 472.797 9.522V9.886C472.797 10.3527 472.718 10.7867 472.559 11.188C472.41 11.5893 472.172 11.9113 471.845 12.154C471.518 12.3967 471.084 12.518 470.543 12.518ZM470.543 11.594C470.972 11.594 471.29 11.44 471.495 11.132C471.71 10.8147 471.817 10.3433 471.817 9.718C471.817 9.05533 471.71 8.57467 471.495 8.276C471.28 7.968 470.963 7.814 470.543 7.814C470.123 7.814 469.806 7.968 469.591 8.276C469.376 8.57467 469.269 9.05067 469.269 9.704C469.269 10.3293 469.372 10.8007 469.577 11.118C469.792 11.4353 470.114 11.594 470.543 11.594ZM476.927 17.39C476.395 17.39 475.961 17.2687 475.625 17.026C475.298 16.7833 475.056 16.4613 474.897 16.06C474.748 15.6587 474.673 15.2247 474.673 14.758V14.394C474.673 13.89 474.752 13.442 474.911 13.05C475.07 12.6487 475.317 12.336 475.653 12.112C475.989 11.8787 476.414 11.762 476.927 11.762C477.45 11.762 477.874 11.8787 478.201 12.112C478.537 12.336 478.784 12.6487 478.943 13.05C479.102 13.442 479.181 13.89 479.181 14.394V14.758C479.181 15.2247 479.102 15.6587 478.943 16.06C478.794 16.4613 478.556 16.7833 478.229 17.026C477.902 17.2687 477.468 17.39 476.927 17.39ZM476.927 16.466C477.356 16.466 477.674 16.312 477.879 16.004C478.094 15.6867 478.201 15.2153 478.201 14.59C478.201 13.9273 478.094 13.4467 477.879 13.148C477.664 12.84 477.347 12.686 476.927 12.686C476.507 12.686 476.19 12.84 475.975 13.148C475.76 13.4467 475.653 13.9227 475.653 14.576C475.653 15.2013 475.756 15.6727 475.961 15.99C476.176 16.3073 476.498 16.466 476.927 16.466Z" fill="white"/>
<rect x="458.09" y="24.25" width="9.9985" height="9.9985" transform="rotate(-45 458.09 24.25)" fill="#2FC7A1"/>
</svg>
