<svg width="649" height="53" viewBox="0 0 649 53" fill="none" xmlns="http://www.w3.org/2000/svg">
<rect x="0.5" y="42.25" width="648" height="10" rx="5" fill="#89BAB4" fill-opacity="0.3"/>
<rect x="0.5" y="42.25" width="408.23" height="10" rx="5" fill="#2FC7A1"/>
<rect width="43.73" height="24" transform="translate(365 0.25)" fill="#2FC7A1"/>
<path d="M377.079 17.53C376.333 17.53 375.707 17.3993 375.203 17.138C374.709 16.8767 374.312 16.522 374.013 16.074C373.724 15.6167 373.514 15.094 373.383 14.506C373.262 13.918 373.201 13.302 373.201 12.658V11.986C373.201 10.3713 373.603 9.13 374.405 8.262C375.208 7.38467 376.37 6.946 377.891 6.946C378.255 6.946 378.563 6.95533 378.815 6.974C379.067 6.99267 379.343 7.02067 379.641 7.058V8.206C379.333 8.16867 379.049 8.14067 378.787 8.122C378.526 8.10333 378.209 8.094 377.835 8.094C376.986 8.094 376.314 8.25267 375.819 8.57C375.325 8.88733 374.97 9.34467 374.755 9.942C374.541 10.53 374.433 11.244 374.433 12.084V12.714L374.097 13.96C374.107 13.2227 374.247 12.6113 374.517 12.126C374.797 11.6407 375.175 11.2767 375.651 11.034C376.137 10.7913 376.692 10.67 377.317 10.67C378.045 10.67 378.661 10.8193 379.165 11.118C379.669 11.4073 380.047 11.8087 380.299 12.322C380.561 12.8353 380.691 13.4187 380.691 14.072C380.691 14.7347 380.556 15.3273 380.285 15.85C380.015 16.3727 379.609 16.7833 379.067 17.082C378.535 17.3807 377.873 17.53 377.079 17.53ZM377.079 16.354C377.593 16.354 378.022 16.256 378.367 16.06C378.713 15.864 378.969 15.598 379.137 15.262C379.315 14.9167 379.403 14.52 379.403 14.072C379.403 13.624 379.319 13.2273 379.151 12.882C378.983 12.5367 378.731 12.2707 378.395 12.084C378.069 11.888 377.663 11.79 377.177 11.79C376.701 11.79 376.272 11.8787 375.889 12.056C375.516 12.2333 375.222 12.4947 375.007 12.84C374.793 13.176 374.685 13.5913 374.685 14.086C374.685 14.4967 374.769 14.8747 374.937 15.22C375.105 15.5653 375.367 15.8407 375.721 16.046C376.076 16.2513 376.529 16.354 377.079 16.354ZM385.608 17.502C384.843 17.502 384.194 17.3527 383.662 17.054C383.13 16.7553 382.724 16.3587 382.444 15.864C382.173 15.3693 382.038 14.8327 382.038 14.254H383.354C383.354 14.8887 383.555 15.3927 383.956 15.766C384.367 16.1393 384.917 16.326 385.608 16.326C386.065 16.326 386.462 16.242 386.798 16.074C387.134 15.906 387.395 15.668 387.582 15.36C387.769 15.0427 387.862 14.674 387.862 14.254C387.862 13.6193 387.657 13.106 387.246 12.714C386.845 12.322 386.303 12.126 385.622 12.126C385.333 12.126 385.081 12.1633 384.866 12.238C384.661 12.3033 384.479 12.3873 384.32 12.49L383.648 11.286L387.554 8.43L387.414 8.178H382.444V7.03H388.674V8.892L385.44 11.244L384.46 11.286C384.619 11.23 384.791 11.1833 384.978 11.146C385.174 11.1087 385.403 11.09 385.664 11.09C386.411 11.09 387.045 11.23 387.568 11.51C388.091 11.79 388.487 12.1633 388.758 12.63C389.038 13.0967 389.178 13.6053 389.178 14.156V14.352C389.178 14.8933 389.038 15.4067 388.758 15.892C388.487 16.368 388.086 16.7553 387.554 17.054C387.031 17.3527 386.383 17.502 385.608 17.502ZM393.536 17.25L397.4 7.03H398.464L394.6 17.25H393.536ZM392.78 12.518C392.248 12.518 391.814 12.3967 391.478 12.154C391.151 11.9113 390.908 11.5893 390.75 11.188C390.6 10.7867 390.526 10.3527 390.526 9.886V9.522C390.526 9.018 390.605 8.57 390.764 8.178C390.922 7.77667 391.17 7.464 391.506 7.24C391.842 7.00667 392.266 6.89 392.78 6.89C393.302 6.89 393.727 7.00667 394.054 7.24C394.39 7.464 394.637 7.77667 394.796 8.178C394.954 8.57 395.034 9.018 395.034 9.522V9.886C395.034 10.3527 394.954 10.7867 394.796 11.188C394.646 11.5893 394.408 11.9113 394.082 12.154C393.755 12.3967 393.321 12.518 392.78 12.518ZM392.78 11.594C393.209 11.594 393.526 11.44 393.732 11.132C393.946 10.8147 394.054 10.3433 394.054 9.718C394.054 9.05533 393.946 8.57467 393.732 8.276C393.517 7.968 393.2 7.814 392.78 7.814C392.36 7.814 392.042 7.968 391.828 8.276C391.613 8.57467 391.506 9.05067 391.506 9.704C391.506 10.3293 391.608 10.8007 391.814 11.118C392.028 11.4353 392.35 11.594 392.78 11.594ZM399.164 17.39C398.632 17.39 398.198 17.2687 397.862 17.026C397.535 16.7833 397.292 16.4613 397.134 16.06C396.984 15.6587 396.91 15.2247 396.91 14.758V14.394C396.91 13.89 396.989 13.442 397.148 13.05C397.306 12.6487 397.554 12.336 397.89 12.112C398.226 11.8787 398.65 11.762 399.164 11.762C399.686 11.762 400.111 11.8787 400.438 12.112C400.774 12.336 401.021 12.6487 401.18 13.05C401.338 13.442 401.418 13.89 401.418 14.394V14.758C401.418 15.2247 401.338 15.6587 401.18 16.06C401.03 16.4613 400.792 16.7833 400.466 17.026C400.139 17.2687 399.705 17.39 399.164 17.39ZM399.164 16.466C399.593 16.466 399.91 16.312 400.116 16.004C400.33 15.6867 400.438 15.2153 400.438 14.59C400.438 13.9273 400.33 13.4467 400.116 13.148C399.901 12.84 399.584 12.686 399.164 12.686C398.744 12.686 398.426 12.84 398.212 13.148C397.997 13.4467 397.89 13.9227 397.89 14.576C397.89 15.2013 397.992 15.6727 398.198 15.99C398.412 16.3073 398.734 16.466 399.164 16.466Z" fill="white"/>
<rect x="379.79" y="24.25" width="9.9985" height="9.9985" transform="rotate(-45 379.79 24.25)" fill="#2FC7A1"/>
</svg>
