<svg width="649" height="53" viewBox="0 0 649 53" fill="none" xmlns="http://www.w3.org/2000/svg">
<rect x="0.5" y="42.25" width="648" height="10" rx="5" fill="#89BAB4" fill-opacity="0.3"/>
<rect x="0.5" y="42.25" width="602.63" height="10" rx="5" fill="#2FC7A1"/>
<rect width="43.73" height="24" transform="translate(559.39 0.25)" fill="#2FC7A1"/>
<path d="M570.928 6.75C571.675 6.75 572.296 6.88067 572.79 7.142C573.294 7.40333 573.691 7.76267 573.98 8.22C574.279 8.668 574.489 9.186 574.61 9.774C574.741 10.362 574.806 10.978 574.806 11.622V12.294C574.806 13.9087 574.405 15.1547 573.602 16.032C572.8 16.9 571.638 17.334 570.116 17.334C569.752 17.334 569.444 17.3247 569.192 17.306C568.94 17.2873 568.665 17.2593 568.366 17.222V16.074C568.674 16.1113 568.959 16.1393 569.22 16.158C569.482 16.1767 569.799 16.186 570.172 16.186C571.022 16.186 571.694 16.0273 572.188 15.71C572.683 15.3927 573.038 14.94 573.252 14.352C573.467 13.7547 573.574 13.036 573.574 12.196V11.566L573.91 10.32C573.901 11.0573 573.756 11.6687 573.476 12.154C573.206 12.6393 572.828 13.0033 572.342 13.246C571.866 13.4887 571.316 13.61 570.69 13.61C569.962 13.61 569.346 13.4653 568.842 13.176C568.338 12.8773 567.956 12.4713 567.694 11.958C567.442 11.4447 567.316 10.8613 567.316 10.208C567.316 9.54533 567.452 8.95267 567.722 8.43C567.993 7.90733 568.394 7.49667 568.926 7.198C569.468 6.89933 570.135 6.75 570.928 6.75ZM570.928 7.926C570.415 7.926 569.986 8.024 569.64 8.22C569.295 8.416 569.034 8.68667 568.856 9.032C568.688 9.368 568.604 9.76 568.604 10.208C568.604 10.656 568.688 11.0527 568.856 11.398C569.024 11.7433 569.272 12.014 569.598 12.21C569.934 12.3967 570.345 12.49 570.83 12.49C571.306 12.49 571.731 12.4013 572.104 12.224C572.487 12.0467 572.786 11.79 573 11.454C573.215 11.1087 573.322 10.6887 573.322 10.194C573.322 9.78333 573.238 9.40533 573.07 9.06C572.902 8.71467 572.641 8.43933 572.286 8.234C571.932 8.02867 571.479 7.926 570.928 7.926ZM580.003 17.502C579.238 17.502 578.589 17.3527 578.057 17.054C577.525 16.7553 577.119 16.3587 576.839 15.864C576.568 15.3693 576.433 14.8327 576.433 14.254H577.749C577.749 14.8887 577.95 15.3927 578.351 15.766C578.762 16.1393 579.312 16.326 580.003 16.326C580.46 16.326 580.857 16.242 581.193 16.074C581.529 15.906 581.79 15.668 581.977 15.36C582.164 15.0427 582.257 14.674 582.257 14.254C582.257 13.6193 582.052 13.106 581.641 12.714C581.24 12.322 580.698 12.126 580.017 12.126C579.728 12.126 579.476 12.1633 579.261 12.238C579.056 12.3033 578.874 12.3873 578.715 12.49L578.043 11.286L581.949 8.43L581.809 8.178H576.839V7.03H583.069V8.892L579.835 11.244L578.855 11.286C579.014 11.23 579.186 11.1833 579.373 11.146C579.569 11.1087 579.798 11.09 580.059 11.09C580.806 11.09 581.44 11.23 581.963 11.51C582.486 11.79 582.882 12.1633 583.153 12.63C583.433 13.0967 583.573 13.6053 583.573 14.156V14.352C583.573 14.8933 583.433 15.4067 583.153 15.892C582.882 16.368 582.481 16.7553 581.949 17.054C581.426 17.3527 580.778 17.502 580.003 17.502ZM587.931 17.25L591.795 7.03H592.859L588.995 17.25H587.931ZM587.175 12.518C586.643 12.518 586.209 12.3967 585.873 12.154C585.546 11.9113 585.303 11.5893 585.145 11.188C584.995 10.7867 584.921 10.3527 584.921 9.886V9.522C584.921 9.018 585 8.57 585.159 8.178C585.317 7.77667 585.565 7.464 585.901 7.24C586.237 7.00667 586.661 6.89 587.175 6.89C587.697 6.89 588.122 7.00667 588.449 7.24C588.785 7.464 589.032 7.77667 589.191 8.178C589.349 8.57 589.429 9.018 589.429 9.522V9.886C589.429 10.3527 589.349 10.7867 589.191 11.188C589.041 11.5893 588.803 11.9113 588.477 12.154C588.15 12.3967 587.716 12.518 587.175 12.518ZM587.175 11.594C587.604 11.594 587.921 11.44 588.127 11.132C588.341 10.8147 588.449 10.3433 588.449 9.718C588.449 9.05533 588.341 8.57467 588.127 8.276C587.912 7.968 587.595 7.814 587.175 7.814C586.755 7.814 586.437 7.968 586.223 8.276C586.008 8.57467 585.901 9.05067 585.901 9.704C585.901 10.3293 586.003 10.8007 586.209 11.118C586.423 11.4353 586.745 11.594 587.175 11.594ZM593.559 17.39C593.027 17.39 592.593 17.2687 592.257 17.026C591.93 16.7833 591.687 16.4613 591.529 16.06C591.379 15.6587 591.305 15.2247 591.305 14.758V14.394C591.305 13.89 591.384 13.442 591.543 13.05C591.701 12.6487 591.949 12.336 592.285 12.112C592.621 11.8787 593.045 11.762 593.559 11.762C594.081 11.762 594.506 11.8787 594.833 12.112C595.169 12.336 595.416 12.6487 595.575 13.05C595.733 13.442 595.813 13.89 595.813 14.394V14.758C595.813 15.2247 595.733 15.6587 595.575 16.06C595.425 16.4613 595.187 16.7833 594.861 17.026C594.534 17.2687 594.1 17.39 593.559 17.39ZM593.559 16.466C593.988 16.466 594.305 16.312 594.511 16.004C594.725 15.6867 594.833 15.2153 594.833 14.59C594.833 13.9273 594.725 13.4467 594.511 13.148C594.296 12.84 593.979 12.686 593.559 12.686C593.139 12.686 592.821 12.84 592.607 13.148C592.392 13.4467 592.285 13.9227 592.285 14.576C592.285 15.2013 592.387 15.6727 592.593 15.99C592.807 16.3073 593.129 16.466 593.559 16.466Z" fill="white"/>
<rect x="574.18" y="24.25" width="9.9985" height="9.9985" transform="rotate(-45 574.18 24.25)" fill="#2FC7A1"/>
</svg>
