<svg width="649" height="53" viewBox="0 0 649 53" fill="none" xmlns="http://www.w3.org/2000/svg">
<rect x="0.5" y="42.25" width="648" height="10" rx="5" fill="#89BAB4" fill-opacity="0.3"/>
<rect x="0.5" y="42.25" width="583.19" height="10" rx="5" fill="#2FC7A1"/>
<rect width="45.55" height="24" transform="translate(538.14 0.25)" fill="#2FC7A1"/>
<path d="M549.687 6.75C550.433 6.75 551.054 6.88067 551.549 7.142C552.053 7.40333 552.449 7.76267 552.739 8.22C553.037 8.668 553.247 9.186 553.369 9.774C553.499 10.362 553.565 10.978 553.565 11.622V12.294C553.565 13.9087 553.163 15.1547 552.361 16.032C551.558 16.9 550.396 17.334 548.875 17.334C548.511 17.334 548.203 17.3247 547.951 17.306C547.699 17.2873 547.423 17.2593 547.125 17.222V16.074C547.433 16.1113 547.717 16.1393 547.979 16.158C548.24 16.1767 548.557 16.186 548.931 16.186C549.78 16.186 550.452 16.0273 550.947 15.71C551.441 15.3927 551.796 14.94 552.011 14.352C552.225 13.7547 552.333 13.036 552.333 12.196V11.566L552.669 10.32C552.659 11.0573 552.515 11.6687 552.235 12.154C551.964 12.6393 551.586 13.0033 551.101 13.246C550.625 13.4887 550.074 13.61 549.449 13.61C548.721 13.61 548.105 13.4653 547.601 13.176C547.097 12.8773 546.714 12.4713 546.453 11.958C546.201 11.4447 546.075 10.8613 546.075 10.208C546.075 9.54533 546.21 8.95267 546.481 8.43C546.751 7.90733 547.153 7.49667 547.685 7.198C548.226 6.89933 548.893 6.75 549.687 6.75ZM549.687 7.926C549.173 7.926 548.744 8.024 548.399 8.22C548.053 8.416 547.792 8.68667 547.615 9.032C547.447 9.368 547.363 9.76 547.363 10.208C547.363 10.656 547.447 11.0527 547.615 11.398C547.783 11.7433 548.03 12.014 548.357 12.21C548.693 12.3967 549.103 12.49 549.589 12.49C550.065 12.49 550.489 12.4013 550.863 12.224C551.245 12.0467 551.544 11.79 551.759 11.454C551.973 11.1087 552.081 10.6887 552.081 10.194C552.081 9.78333 551.997 9.40533 551.829 9.06C551.661 8.71467 551.399 8.43933 551.045 8.234C550.69 8.02867 550.237 7.926 549.687 7.926ZM559.783 17.502C559.018 17.502 558.365 17.3713 557.823 17.11C557.291 16.8393 556.857 16.4753 556.521 16.018C556.195 15.5607 555.957 15.0333 555.807 14.436C555.658 13.8293 555.583 13.19 555.583 12.518V11.762C555.583 10.8193 555.728 9.97 556.017 9.214C556.316 8.458 556.773 7.86067 557.389 7.422C558.015 6.974 558.813 6.75 559.783 6.75C560.754 6.75 561.547 6.974 562.163 7.422C562.779 7.86067 563.232 8.458 563.521 9.214C563.82 9.97 563.969 10.8193 563.969 11.762V12.518C563.969 13.19 563.895 13.8293 563.745 14.436C563.596 15.0333 563.353 15.5607 563.017 16.018C562.691 16.4753 562.261 16.8393 561.729 17.11C561.197 17.3713 560.549 17.502 559.783 17.502ZM559.783 16.27C560.754 16.27 561.463 15.9433 561.911 15.29C562.369 14.6273 562.597 13.582 562.597 12.154C562.597 10.6607 562.364 9.592 561.897 8.948C561.44 8.304 560.735 7.982 559.783 7.982C558.822 7.982 558.108 8.304 557.641 8.948C557.184 9.592 556.955 10.6513 556.955 12.126C556.955 13.5633 557.184 14.6133 557.641 15.276C558.099 15.9387 558.813 16.27 559.783 16.27ZM568.494 17.25L572.358 7.03H573.422L569.558 17.25H568.494ZM567.738 12.518C567.206 12.518 566.772 12.3967 566.436 12.154C566.109 11.9113 565.866 11.5893 565.708 11.188C565.558 10.7867 565.484 10.3527 565.484 9.886V9.522C565.484 9.018 565.563 8.57 565.722 8.178C565.88 7.77667 566.128 7.464 566.464 7.24C566.8 7.00667 567.224 6.89 567.738 6.89C568.26 6.89 568.685 7.00667 569.012 7.24C569.348 7.464 569.595 7.77667 569.754 8.178C569.912 8.57 569.992 9.018 569.992 9.522V9.886C569.992 10.3527 569.912 10.7867 569.754 11.188C569.604 11.5893 569.366 11.9113 569.04 12.154C568.713 12.3967 568.279 12.518 567.738 12.518ZM567.738 11.594C568.167 11.594 568.484 11.44 568.69 11.132C568.904 10.8147 569.012 10.3433 569.012 9.718C569.012 9.05533 568.904 8.57467 568.69 8.276C568.475 7.968 568.158 7.814 567.738 7.814C567.318 7.814 567 7.968 566.786 8.276C566.571 8.57467 566.464 9.05067 566.464 9.704C566.464 10.3293 566.566 10.8007 566.772 11.118C566.986 11.4353 567.308 11.594 567.738 11.594ZM574.122 17.39C573.59 17.39 573.156 17.2687 572.82 17.026C572.493 16.7833 572.25 16.4613 572.092 16.06C571.942 15.6587 571.868 15.2247 571.868 14.758V14.394C571.868 13.89 571.947 13.442 572.106 13.05C572.264 12.6487 572.512 12.336 572.848 12.112C573.184 11.8787 573.608 11.762 574.122 11.762C574.644 11.762 575.069 11.8787 575.396 12.112C575.732 12.336 575.979 12.6487 576.138 13.05C576.296 13.442 576.376 13.89 576.376 14.394V14.758C576.376 15.2247 576.296 15.6587 576.138 16.06C575.988 16.4613 575.75 16.7833 575.424 17.026C575.097 17.2687 574.663 17.39 574.122 17.39ZM574.122 16.466C574.551 16.466 574.868 16.312 575.074 16.004C575.288 15.6867 575.396 15.2153 575.396 14.59C575.396 13.9273 575.288 13.4467 575.074 13.148C574.859 12.84 574.542 12.686 574.122 12.686C573.702 12.686 573.384 12.84 573.17 13.148C572.955 13.4467 572.848 13.9227 572.848 14.576C572.848 15.2013 572.95 15.6727 573.156 15.99C573.37 16.3073 573.692 16.466 574.122 16.466Z" fill="white"/>
<rect x="553.84" y="24.25" width="9.9985" height="9.9985" transform="rotate(-45 553.84 24.25)" fill="#2FC7A1"/>
</svg>
